<svg width="63" height="51" viewBox="0 0 63 51" fill="none" xmlns="http://www.w3.org/2000/svg">
<path d="M27.7857 3.21899C27.299 3.21766 26.8109 3.21789 26.3215 3.21968C23.9655 3.22855 21.5719 3.27865 19.1578 3.35117L19.8562 5.83075C22.3702 5.60065 25.1263 5.42932 27.8822 5.34366C29.3752 5.29724 30.8592 5.27273 32.2986 5.27891C36.6169 5.29714 40.535 5.59069 43.0984 6.39473L44.1945 6.73878L43.7052 7.60389C40.1293 13.9276 39.3023 20.0284 39.8627 26.0143C40.1393 18.9104 43.787 12.5919 48.5756 4.4919C42.0595 3.61533 35.0855 3.23861 27.7857 3.21889V3.21899ZM31.2352 7.08284C30.1598 7.08353 29.0634 7.10116 27.9672 7.13523C22.8396 7.29461 17.7298 7.78169 14.3996 8.3401C18.1196 13.9261 21.129 19.5249 23.0723 24.983C23.314 24.9765 23.556 24.978 23.7975 24.9875C24.2919 25.0071 24.7809 25.0614 25.2587 25.1459C23.2807 20.0263 21.0277 15.3045 18.2271 10.5899L17.5942 9.52466L19.0322 9.31867C22.6443 8.8009 26.3727 8.60048 29.9211 8.59959C30.1577 8.59959 30.3935 8.60038 30.6283 8.60198C32.8831 8.61792 35.0561 8.71234 37.0694 8.85449L38.4295 8.95061L38.0328 10.0082C35.7318 16.1404 35.2811 22.7261 36.5821 28.9919C36.6039 29.0081 36.6255 29.0243 36.6468 29.0407C37.116 28.9076 37.5549 28.772 37.964 28.6269C36.9484 21.9139 37.3984 14.9881 41.1914 7.78857C39.0748 7.35198 35.8481 7.12377 32.3027 7.08791C31.9469 7.08435 31.591 7.08259 31.2352 7.08284ZM49.0703 7.81845C45.2612 14.3484 42.5558 19.5813 42.1123 25.2305C44.5779 18.5764 49.3437 12.6115 54.7743 8.77918C52.8893 8.39851 50.9864 8.07801 49.0703 7.81845ZM12.7762 9.66411C10.4679 10.0494 8.2129 10.5385 6.03177 11.2142C7.09317 11.9593 9.01196 13.3454 11.34 15.1876C12.4115 14.2948 13.5043 13.4127 14.6441 12.6107C14.0404 11.6207 13.4177 10.6384 12.7762 9.66411ZM30.2517 10.4094C28.5758 10.4028 26.8603 10.4417 25.1386 10.5382C24.958 11.901 23.9623 13.176 22.773 14.4299C24.6718 18.0626 26.3116 21.7694 27.7879 25.7051C30.0489 26.245 32.2858 26.8832 34.0978 27.6479C33.4247 23.4187 33.5168 19.0852 34.3906 14.8473C32.8051 13.5215 31.9793 12.0493 31.9131 10.4306C31.3594 10.4187 30.8056 10.4116 30.2517 10.4094ZM52.6485 13.0973C49.6055 16.0159 46.9242 19.6713 45.0971 23.6472C48.4518 19.7841 52.5771 16.7709 56.9683 14.6425C55.5377 14.1105 54.0976 13.5954 52.6485 13.0973ZM15.6433 14.2886C13.8476 15.6022 12.0732 17.1789 10.2255 18.6811C14.1985 20.5927 17.5825 22.8565 20.3431 25.4206C20.5145 25.3682 20.6876 25.3211 20.8617 25.2782C19.57 21.6827 17.7997 18.0034 15.6433 14.2886ZM44.3609 26.715C42.3433 28.6861 40.4438 29.7267 37.8283 30.557C38.1225 31.4754 37.6856 32.5297 36.6798 33.3362C36.0882 33.8104 35.3447 34.351 34.2577 34.7023C34.4146 34.7775 34.5746 34.8482 34.7376 34.9142C36.259 35.5288 38.9467 35.3306 41.4437 34.4113C43.9329 33.4949 46.1566 31.9119 46.9808 30.3083C47.3939 29.4068 47.0989 28.9366 46.3758 28.2471C45.8609 27.7566 45.109 27.262 44.3609 26.7151V26.715ZM23.4332 26.7734C22.1147 26.7637 20.7757 27.0716 19.6692 27.7456C18.0954 28.7041 16.8822 30.4135 16.8713 33.3172V33.3371L16.8701 33.357C16.5108 39.4711 17.067 42.292 18.1689 43.8225C19.1414 45.1734 20.759 45.82 23.1252 47.0094C23.2379 46.7697 23.3553 46.475 23.4654 46.1031C23.7456 45.1569 23.9774 43.8574 24.1243 42.4201C24.4183 39.5455 24.3754 36.0939 23.8838 33.6101L23.624 32.2963L25.2256 32.5946C29.1157 33.319 31.341 33.4046 32.633 33.2201C33.9253 33.0355 34.3632 32.67 35.1212 32.0623C35.8336 31.4913 35.8203 31.2858 35.6695 30.9645C35.5185 30.643 34.9128 30.1133 33.8853 29.6065C31.83 28.5929 28.3377 27.6531 25.0734 26.9522C24.538 26.8375 23.987 26.7774 23.4332 26.7734ZM46.7014 33.6879C45.4693 34.6595 43.9531 35.4571 42.3606 36.0434C39.7787 36.9938 36.9388 37.4286 34.5827 36.7957C33.7509 37.0463 33.2677 37.3343 33.024 37.5727C32.6895 37.8998 32.6686 38.1404 32.7819 38.4851C32.8952 38.8297 33.2329 39.2389 33.6505 39.5334C34.068 39.8278 34.5643 39.9808 34.7529 39.988C40.5107 40.2093 43.0027 38.8717 46.1073 37.3202C47.0127 36.8677 47.3592 35.9512 47.2724 35.036C47.229 34.5784 47.0645 34.1484 46.8746 33.8776C46.8274 33.8084 46.7692 33.7447 46.7014 33.6879ZM26.2526 34.5939C26.5881 37.091 26.5936 40.0041 26.3316 42.568C26.1781 44.0693 25.9409 45.4346 25.6192 46.521C25.4793 46.9937 25.3254 47.4129 25.1394 47.7819L43.19 47.138C42.9862 46.5255 42.7785 45.9104 42.5709 45.295C41.8774 45.4819 41.1686 45.6291 40.4496 45.7357L40.455 45.8084L39.4317 45.86C38.8016 45.9211 38.1457 45.9549 37.4651 45.9588L27.1464 46.4777L27.4531 45.3216C28.431 41.6354 28.5212 38.3899 27.918 34.8393C27.3609 34.7663 26.8056 34.6845 26.2524 34.5939H26.2526ZM30.1866 35.0605C30.6724 38.2413 30.614 41.2771 29.8906 44.5433L32.2609 44.4242C31.8891 43.9802 31.6336 43.4792 31.5104 42.9522C31.3509 42.2669 31.4396 41.5041 31.9934 40.8733C32.0179 40.8453 32.0444 40.8185 32.0706 40.7915C31.4251 40.3089 30.8859 39.6897 30.6415 38.9464C30.3814 38.1551 30.5438 37.1863 31.3179 36.4293C31.5737 36.1792 31.8829 35.9535 32.246 35.7503C31.9249 35.5431 31.6434 35.3235 31.4002 35.0947C31.0232 35.0968 30.6195 35.0854 30.1866 35.0605ZM46.5108 39.2227C43.6246 40.6424 40.3818 41.9994 34.6478 41.7791C34.4607 41.7717 34.2747 41.7512 34.0919 41.7178C33.9402 41.7729 33.8592 41.8429 33.7988 41.9118C33.6803 42.0467 33.6103 42.2903 33.6869 42.6203C33.8405 43.2804 34.6129 44.0037 35.3321 44.0715C40.4244 44.5509 43.9428 43.2023 46.0791 41.6333C47.0635 40.9104 47.0718 40.448 46.9269 39.9449C46.8543 39.6936 46.6943 39.4499 46.5108 39.2227ZM45.6884 44.1097C45.3466 44.2832 44.9957 44.4447 44.6367 44.5938C44.8398 45.1966 45.0433 45.7993 45.2442 46.4021L47.6953 46.0463C47.0629 45.6094 46.568 45.1544 46.1708 44.702C45.9933 44.4999 45.8369 44.3035 45.6884 44.1097Z" fill="#14AE5C"/>
</svg>
