<?xml version="1.0" encoding="UTF-8"?>
<svg id="Layer_2" data-name="Layer 2" xmlns="http://www.w3.org/2000/svg" viewBox="0 0 421.73 422.02">
  <defs>
    <style>
      .cls-1 {
        fill: #4a7fa9;
      }

      .cls-1, .cls-2, .cls-3, .cls-4, .cls-5, .cls-6, .cls-7, .cls-8 {
        stroke-width: 0px;
      }

      .cls-2 {
        fill: #1a6faf;
      }

      .cls-3 {
        fill: #5bcaf9;
      }

      .cls-4 {
        fill: #f5cb4f;
      }

      .cls-5 {
        fill: #fff;
      }

      .cls-6 {
        fill: #f2ab3c;
      }

      .cls-7 {
        fill: #fefefe;
      }

      .cls-8 {
        fill: #48a2d1;
      }
    </style>
  </defs>
  <g id="Layer_1-2" data-name="Layer 1">
    <g>
      <g>
        <path class="cls-3" d="M140.61,363.79c-6.66-.01-13.32-.23-19.96.05-3.51.15-4.24-1.06-4.23-4.36.12-33.88.07-67.77.07-101.65,0-1.06-.05-2.12-.07-3.17-1.93-2.54-1.33-5.52-1.33-8.34-.03-70.41-.02-140.82-.03-211.23,0-1.97.1-3.94-.05-5.9-.91-12.26-6.52-21.19-18.23-25.87-1.73-.69-3.99-.7-4.7-3.03,2.12-.09,4.23-.26,6.35-.26C188.31,0,278.19,0,368.08,0c20.27,0,32.17,11.88,32.17,32.14,0,100.79,0,201.58,0,302.37-1.18,1.48-2.89,1.54-4.53,1.56-14.17.1-28.33.12-42.5,0-1.21-.01-2.4-.2-3.5-.76-2.36-1.72-2.39-4.43-2.81-6.93-4.06-24.19-8.09-48.39-12.13-72.58-1.17-6.98-1.28-7.06-8.42-7.06-33.16,0-66.33,0-99.49,0-7.29,0-7.31.02-8.55,7.41-4.05,24.19-8.06,48.39-12.13,72.58-.37,2.23-.54,4.54-2.26,6.3-2.06,1.28-4.38,1.02-6.63,1.03-14.38.03-28.76,0-43.14.02q-7.31,0-8.58,7.4c-.87,5.07-1.61,10.17-2.58,15.22-.35,1.85-.25,4.02-2.37,5.1Z"/>
        <path class="cls-6" d="M140.61,363.79c1.41-8.35,2.9-16.68,4.19-25.05.46-2.97,1.41-4.22,4.83-4.18,18.03.21,36.06.07,54.09.06,1.5-1.26,3.31-1.39,5.14-1.39,16.17-.04,32.34-.06,48.5,0,1.36,0,2.72.12,4,.66,1.81.94,2.27,2.72,2.56,4.48,1.36,8.25,3,16.45,4.03,24.75,3.06,16.84,5.63,33.76,8.59,50.91,3.02-17.09,5.49-34.03,8.62-50.85,1.05-8.25,2.64-16.4,3.99-24.6.29-1.78.72-3.59,2.49-4.63,2.02-.88,4.16-.75,6.27-.75,14.84-.02,29.68-.03,44.52,0,2.4,0,4.89-.28,6.96,1.41,16.95-.03,33.9-.07,50.85-.1,7.17.37,7.22.37,8.4,7.37,4.31,25.65,8.54,51.32,12.94,76.95.42,2.46.06,3.42-2.49,3.14-.75-.08-1.51-.01-2.27-.01-93.5,0-187.01-.02-280.51.07-3.85,0-5.44-.19-4.55-4.99,3.27-17.69,5.96-35.49,8.86-53.25Z"/>
        <path class="cls-1" d="M92.08.28c17.31,5.11,24.41,14.64,24.41,32.75,0,72.06,0,144.12,0,216.18,0,1.82-.05,3.63-.07,5.45-25.14,0-50.27-.01-75.41-.03-1.81,0-3.62-.13-5.43-.2.47-2.24,2.56-2.34,4.12-3.04,11.26-5.01,16.99-13.84,17.19-25.96.28-17.21.06-34.43.09-51.65,0-2.24-.3-4.57,1.25-6.53.02-45.29.04-90.58.07-135.87.02-20.23,13.62-32.73,33.79-31.09Z"/>
        <path class="cls-8" d="M58.22,167.24c.02,19.98.11,39.97.05,59.95-.04,10.98-8.06,21.89-18.52,25.6-1.41.5-2.78,1.08-4.18,1.63-12.06,1.18-22.5-1.75-30-11.97-3.59-4.9-5.44-10.44-5.46-16.5-.06-18.29.06-36.58-.12-54.87-.03-3.48,1.37-3.82,4.25-3.8,17.99.08,35.98,0,53.97-.04Z"/>
        <path class="cls-4" d="M262.13,334.71c-19.47-.03-38.94-.07-58.4-.1,4.57-27.29,9.21-54.58,13.65-81.89.62-3.79,1.55-5.52,6-5.49,35.45.22,70.9.22,106.36,0,4.46-.03,5.39,1.7,6,5.49,4.44,27.31,9.08,54.6,13.65,81.89-19.47.03-38.94.07-58.4.1-.66.68-1.49,1.11-2.41,1.15-8.01.4-16.03.4-24.04,0-.91-.05-1.75-.48-2.41-1.15Z"/>
        <path class="cls-2" d="M257.91,160.05c-33.32,0-66.64-.06-99.96.08-3.74.01-5.33-.57-5.19-4.86.32-9.76.07-9.77,9.74-9.77,65.28,0,130.56.06,195.84-.12,4.77-.01,5.81,1.36,5.64,5.81-.34,8.85-.1,8.86-8.82,8.86h-97.24Z"/>
        <path class="cls-2" d="M258.3,196.43c-33.32,0-66.64-.08-99.96.1-4.27.02-5.76-.86-5.58-5.4.37-9.24.1-9.25,9.35-9.25,65.28,0,130.56,0,195.84,0q5.92,0,5.92,5.75,0,8.8-8.78,8.8h-96.78Z"/>
        <path class="cls-2" d="M290.68,50.93c-22.56,0-45.12-.09-67.68.09-3.87.03-4.81-1.14-4.73-4.85.21-9.79.04-9.79,9.68-9.79,43.61,0,87.21.07,130.82-.1,4.28-.02,5.31,1.25,5.19,5.31-.27,9.33-.07,9.34-9.24,9.34-21.35,0-42.7,0-64.05,0Z"/>
        <path class="cls-2" d="M291.16,72.75c22.56,0,45.12.09,67.68-.08,3.82-.03,5.28.7,5.14,4.91-.31,9.72-.07,9.72-9.78,9.72-43.45,0-86.91-.06-130.36.1-4.23.02-5.78-.81-5.6-5.38.37-9.26.1-9.27,9.33-9.27,21.2,0,42.39,0,63.59,0Z"/>
        <path class="cls-2" d="M291.14,109.13c22.56,0,45.12.08,67.68-.08,3.79-.03,5.3.65,5.16,4.89-.31,9.74-.07,9.74-9.76,9.74-43.45,0-86.91-.06-130.36.09-4.19.01-5.82-.73-5.62-5.35.38-9.28.1-9.29,9.31-9.29h63.59Z"/>
        <path class="cls-2" d="M178.13,232.8c-7.1,0-14.21-.1-21.31.05-2.77.06-3.99-.51-4.02-3.68-.13-10.92-.26-10.92,10.79-10.92,11.94,0,23.89.1,35.83-.06,3.17-.04,4.53.51,4.49,4.15-.1,10.47.07,10.47-10.35,10.47-5.14,0-10.28,0-15.42,0Z"/>
        <path class="cls-3" d="M262.13,334.71c9.62,0,19.24,0,28.85,0-1.63,9.69-3.25,19.39-4.88,29.08-6.37,2.15-12.73,2.15-19.1,0-1.63-9.69-3.25-19.39-4.88-29.08Z"/>
        <path class="cls-7" d="M267.01,363.79c6.37,0,12.73,0,19.1,0-2.99,18.33-5.97,36.65-8.96,54.98-.39,0-.78,0-1.17,0-2.99-18.33-5.98-36.65-8.97-54.98Z"/>
      </g>
      <path class="cls-5" d="M199.81,23.48c1.25.71,1.57,1.84,1.54,3.19-.05,1.89,0,3.79-.01,5.68,0,2.19-.81,2.99-3.01,2.99-4.87,0-9.73,0-14.6,0-.36,0-.71,0-1.06,0-.11.32.11.47.23.64,1.84,2.61,3.13,5.47,3.81,8.59.17.77.48,1.02,1.3,1.01,3.49-.06,6.99-.03,10.48-.02,2.22,0,2.95.72,2.96,2.91,0,2.06.02,4.12,0,6.17-.02,2.01-.78,2.76-2.8,2.76-3.46,0-6.92.02-10.39-.01-.76,0-1.09.1-1.27.98-2.1,10.59-8.59,17.38-18.49,21.17-3.22,1.24-6.58,1.91-10.13,2.4,1.64,1.8,3.2,3.51,4.74,5.22,8.44,9.36,16.5,19.05,24.5,28.78,1.08,1.31,2.14,2.63,3.24,3.93.66.78.98,1.6.51,2.6-.47,1.01-1.26,1.38-2.36,1.37-4.31-.03-8.62-.06-12.93.02-1.31.02-2.19-.43-3.01-1.41-5.53-6.57-11.08-13.11-16.66-19.64-5.77-6.75-11.69-13.37-17.76-19.85-.86-.92-1.27-1.89-1.24-3.15.06-2.51,0-5.03.02-7.54,0-2.05.87-2.88,2.91-2.91,3.92-.05,7.84.17,11.75-.19,4.69-.44,9.2-1.46,13.06-4.36,2.24-1.69,3.82-3.87,4.73-6.55.25-.74.1-.85-.63-.85-9.54.02-19.07.01-28.61.01-.39,0-.79,0-1.17-.03-1.11-.1-1.9-.82-1.96-1.94-.15-2.61-.14-5.22,0-7.83.06-1.19.8-1.86,2-1.99.39-.04.78-.05,1.17-.05,9.11,0,18.22,0,27.34,0,.31,0,.63,0,1.09,0-1.17-2.26-2.8-3.88-4.89-5.05-3.83-2.15-8.03-2.79-12.32-2.9-3.82-.1-7.64-.04-11.46-.05-2.1,0-2.99-.86-2.99-2.94,0-2.78.03-5.55-.02-8.33-.02-1.31.43-2.27,1.65-2.82h60.76Z"/>
    </g>
  </g>
</svg>