<?xml version="1.0" encoding="UTF-8"?>
<svg id="Layer_2" data-name="Layer 2" xmlns="http://www.w3.org/2000/svg" viewBox="0 0 850.01 811.14">
  <defs>
    <style>
      .cls-1 {
        fill: #2c91be;
      }

      .cls-1, .cls-2, .cls-3, .cls-4, .cls-5, .cls-6, .cls-7, .cls-8, .cls-9, .cls-10, .cls-11, .cls-12, .cls-13, .cls-14 {
        stroke-width: 0px;
      }

      .cls-2 {
        fill: #4ec3a4;
      }

      .cls-3 {
        fill: #30a987;
      }

      .cls-4 {
        fill: #5f6fe6;
      }

      .cls-5 {
        fill: #e0533b;
      }

      .cls-6 {
        fill: #9597a0;
      }

      .cls-7 {
        fill: #1f81a2;
      }

      .cls-8 {
        fill: #e5e8ed;
      }

      .cls-9 {
        fill: #c7cdd5;
      }

      .cls-10 {
        fill: #6e7fec;
      }

      .cls-11 {
        fill: #f7cd01;
      }

      .cls-12 {
        fill: #838691;
      }

      .cls-13 {
        fill: #5d5b68;
      }

      .cls-14 {
        fill: #c6ccd4;
      }
    </style>
  </defs>
  <g id="Layer_1-2" data-name="Layer 1">
    <g>
      <path class="cls-8" d="M.3,543.08C3.81,376.35,1.14,209.59,2.04,42.85,2.16,21.89,23.32,1.14,44.98.25c2.05-.08,4.11-.02,6.17-.02,250.52,0,501.05,0,751.57.05,3.38,0,7.11-1.28,10.08,1.62-1.83,3.38-3.03,6.85-3,10.84.32,50.28-8.43,99.16-23.55,146.92-15.51,49-38.9,94.14-68.43,136.13-.72,1.16-1.58,2.23-2.47,3.26-12.21,16.01-24.83,31.69-38.67,46.32-2.35,2.48-5.31,8.3-8.76.59-1.02-4.66-.72-9.38-.72-14.07-.02-50.52-.01-101.04-.02-151.56,0-2.94-.09-5.88-.07-8.81.03-5.42-2.41-8.06-7.97-8.09-5.58-.03-11.16.25-16.73-.24-11.5,1.05-23.17-1.65-34.53,1.64-3.68,3.3-2.34,7.68-2.35,11.62-.08,72.64-.28,145.27.18,217.91.07,11.35-3.43,18.87-13.11,24.47-7.59,4.39-14.71,9.61-22.38,13.91-3,1.69-5.92,3.98-9.78,2.92-2.86-3.49-2.36-7.71-2.41-11.76-.12-10.54.07-21.07-.08-31.61-.13-9.58-.9-10.25-10.72-10.42-4.97-.09-9.95.12-14.93-.15-8.2.42-16.4.06-24.6.2-10.28.17-11.09.83-11.15,10.96-.12,21.09,0,42.18-.07,63.27-.01,4.36.43,8.83-1.92,12.87-3.41,3.59-8.17,4.55-12.53,6.12-44.2,15.93-89.67,26.14-136.66,28.25-94.51,4.23-189.09.83-283.63,1.83-15.57.16-31.13-.11-46.7.08-9.11.11-9.99,1.14-10.27,10.21-.25,7.92.43,15.86-.49,23.77-.21,1.08-.62,2.09-1.19,3.03-.72,1.02-1.65,1.27-2.79.78Z"/>
      <path class="cls-12" d="M42.16,652.52c-21.11-2.14-37.08-18.17-40.48-40.64-.61-22.94-1.33-45.87.38-68.8h0c2.55-2.38,5.76-2.71,9.02-2.84,3.23-.13,6.46-.09,9.69-.09,269.32,0,538.65,0,807.97,0,20.09,0,20.22.01,20.05,19.8-.14,17.31.69,34.62-.49,51.92-3.4,22.51-19.28,38.47-40.46,40.65-3.13,1.22-6.39.62-9.59.62-82.79.04-165.61-1.36-248.37.44-74.23,1.62-148.47,2.14-222.64.77-93.02-1.73-186.02-.21-279.02-1.19-2.04-.02-4.13.32-6.07-.64Z"/>
      <path class="cls-9" d="M848.3,611.87c-.09-18.49-.13-36.97-.28-55.46-.12-15.11,1.83-13.29-12.9-13.29-275.05-.03-550.09-.02-825.14-.03-2.64,0-5.28,0-7.93-.01-.02-11.45.08-22.9-.11-34.35-.07-4.42,1.39-6.65,6.07-6.27,2.33.19,4.69.02,7.04.02,98.35,0,196.71.2,295.06-.08,56.8-.16,112.21-9.29,166-27.83,5.77-1.99,11.1-5.45,17.46-5.63,9.21,4.43,19.04,2.26,28.63,2.71,3.51.17,7.04-.03,10.57.1,5.54-.33,11.1-.32,16.62-.09,6.52.28,8.87-2.72,8.66-8.92-.2-5.83-.15-11.67.03-17.5.11-3.45-.23-7.1,2.77-9.75,11.35-7.17,22.69-14.38,34.07-21.5,5.88-3.68,8.28-8.36,8.25-15.76-.32-75.88-.22-151.76-.13-227.64,0-3.34-1.39-7.09,1.68-9.98,3.99,4.81,2.84,10.6,2.84,16.06.07,92.4.05,184.79.05,277.19q0,17.58,17.98,17.6c5.28,0,10.56-.23,15.83.22,5.57-.37,11.15-.32,16.71-.17,6.29.16,9.07-2.53,9.03-8.88-.07-10.56,0-21.12,0-31.68.02-23.18-.07-46.36.07-69.53.02-4.28-.79-8.93,3.07-12.33,14.33-15.33,28.25-31.01,40.53-48.06.83-1.15,2.05-2.02,3.09-3.01,3.95,4.13,2.86,9.36,2.87,14.22.1,46.67.05,93.34.06,140.01,0,2.64-.04,5.28.02,7.92.24,10.31.98,11.09,11,11.3,8.21.17,16.44-.25,24.65.23,6.15-.42,12.32-.08,18.48-.27,4.68-.14,6.96-2.37,7.08-7.04.06-2.35.13-4.69.13-7.04,0-47.83.03-95.66-.03-143.49,0-4.33.81-8.86-2.01-12.75-2.79-2.88-6.41-2.29-9.83-2.31-13.03-.09-26.07.52-39.1.21-3.98-.09-8.21.53-11.48-2.73,8.49-13.93,17.13-27.79,25.46-41.82,28.2-47.48,46.72-98.62,57.37-152.69,5.99-30.41,9.41-61.11,8.87-92.16-.07-3.84-.69-8.08,5.33-7.71,23.63,7.02,36.73,24.75,36.8,50.42.12,46.66.02,93.32.04,139.98.05,135.87.12,271.74.1,407.61,0,3.99,1.24,8.24-1.42,11.96Z"/>
      <path class="cls-13" d="M262.56,756.24c16.65-33.44,33.29-66.88,49.94-100.31,1.59-3.63,4.87-2.67,7.66-2.67,69.88-.04,139.77-.04,209.65,0,2.77,0,6.08-1.04,7.61,2.69,16.68,33.43,33.36,66.86,50.04,100.29-3.27,3.32-7.54,2.89-11.58,2.9-100.57.08-201.15.08-301.72,0-4.04,0-8.31.42-11.58-2.89Z"/>
      <path class="cls-12" d="M262.56,756.24c108.3,0,216.59,0,324.89,0,19.09.02,38.18.25,57.26-.08,5.81-.1,7.62,1.64,7.46,7.43-.37,13.5-.35,27.02,0,40.52.14,5.48-1.71,7.58-7.04,6.85-1.15-.16-2.35-.02-3.52-.02-144.49,0-288.98-.09-433.47.21-8.68.02-11-2.29-10.48-10.7.75-12.29.49-24.67.07-36.99-.21-5.98,1.95-7.38,7.57-7.29,19.08.3,38.18.09,57.26.07Z"/>
      <path class="cls-6" d="M537.41,655.95c-3.03-2.45-6.63-1.86-10.1-1.86-68.23-.01-136.46-.01-204.69,0-3.48,0-7.07-.56-10.12,1.84-2.71-3.5-6.54-1.88-9.82-1.88-82.83-.1-165.66-.06-248.48-.13-4.02,0-8.25.99-12.03-1.4,4.4-.08,8.8-.23,13.2-.23,247.89-.01,495.78-.01,743.68,0,2.93,0,5.87.15,8.8.23-3.77,2.38-7.98,1.39-12,1.4-82.88.06-165.76.03-248.64.12-3.27,0-7.1-1.6-9.79,1.91Z"/>
      <path class="cls-9" d="M2.06,543.08c-.13,22.93-.25,45.87-.38,68.8-2.64-3.7-1.38-7.92-1.4-11.89-.12-18.97-.01-37.93.02-56.9.59,0,1.18,0,1.76,0Z"/>
      <path class="cls-5" d="M112.46,307.19c-23.67-21.3-37.08-48.29-41.39-79.35-10.22-73.67,35.92-139.65,108.37-156.1,10.61-2.41,21.37-3.73,32.29-2.58,2.25,2.25,2.72,5.16,2.71,8.1-.03,42.37.72,84.74-.34,127.09-.61,4.34-3.59,7.2-6.49,10.09-29.12,29.13-58.24,58.27-87.39,87.37-2.24,2.24-4.24,4.93-7.75,5.38Z"/>
      <path class="cls-11" d="M112.46,307.19c33.09-33.13,66.17-66.27,99.26-99.4,3.55-2.74,7.75-2.43,11.84-2.43,37.3-.05,74.6-.06,111.91.01,4.06,0,8.31-.45,11.74,2.6.43,46.14-18.9,82.76-54.82,110.63-51.47,39.94-127.44,36.91-175.15-6.32-1.72-1.56-3.19-3.39-4.77-5.1Z"/>
      <path class="cls-4" d="M347.2,207.97c-45.16-.06-90.32-.12-135.48-.19,0-46.21,0-92.43,0-138.64,58.96-2.03,119.27,46.24,132.11,105.84,2.34,10.85,4.61,21.75,3.37,32.98Z"/>
      <path class="cls-1" d="M641.81,474.23c-9.68.09-19.39-.19-29.04.41-6.64.41-8.44-1.83-8.39-8.4.33-41.69.26-83.38.28-125.07.04-60.19.04-120.37.06-180.56,12.36.02,24.72.04,37.08.06,3.06,3.37,2.81,7.59,2.81,11.67.06,96.74.06,193.48,0,290.22,0,4.07.26,8.29-2.8,11.67Z"/>
      <path class="cls-7" d="M641.81,474.23c0-104.52,0-209.03,0-313.55q28.18-3.12,28.18,24.3c.08,54.71.21,109.41.31,164.12-.11,38.46-.53,76.92-.1,115.38.1,8.81-2.56,11.37-10.83,10.36-5.79-.71-11.71-.44-17.57-.61Z"/>
      <path class="cls-10" d="M186.06,440.73c-37,0-74,.02-111.01-.04-3.19,0-6.57,0-9.53-.98-6.18-2.06-9.44-6.5-9.22-13.35.23-6.89,3.73-11.02,10.19-12.49,3.38-.77,6.96-.95,10.45-.95,72.83-.05,145.66-.04,218.49-.03,2.35,0,4.72-.14,7.04.12,8.57.96,14.46,6.73,14.39,13.92-.08,7.52-6.58,13.66-15.39,13.74-20.85.19-41.7.07-62.55.07-17.62,0-35.24,0-52.86,0Z"/>
      <path class="cls-1" d="M423.21,474.35c-10.85.06-21.71-.1-32.54.27-5.12.18-6.41-1.75-6.39-6.6.14-54.85.1-109.7.06-164.55,0-3.76-.13-6.87,5.28-6.84,19.06.12,38.12-.12,57.18-.22,1.24,0,2.26.38,2.75,1.64-3.65,3.3-8.2,2.65-12.54,2.82-10.07.41-10.86,1.03-10.9,11.35-.12,30.79-.04,61.58-.04,92.37,0,19.06.04,38.12-.03,57.18-.02,4.36.39,8.88-2.81,12.56Z"/>
      <path class="cls-2" d="M752.79,474.34c-9.37.04-18.79-.46-28.11.28-8.33.67-10.9-1.75-10.82-10.47.43-51.86.22-103.72.21-155.58,0-3.51-.09-7.03-.14-10.54.61-.58,1.22-1.16,1.83-1.74,18.19,0,36.38-.06,54.56.07,3.07.02,6.51-1.25,9.16,1.56-3.49,3.64-8.1,2.78-12.39,2.96-10.71.44-11.39.91-11.41,11.7-.09,45.65.1,91.3-.16,136.95-.05,8.29,2.31,17.02-2.73,24.82Z"/>
      <path class="cls-7" d="M423.21,474.35c0-55.57.16-111.13-.18-166.7-.05-7.81,2.12-10.55,9.85-9.7,5.49.6,11.1.11,16.66.11.15,31.33.35,62.67.44,94,.07,24.32-.39,48.64.23,72.94.22,8.45-2.63,10.71-10.35,9.86-5.5-.61-11.1-.37-16.65-.51Z"/>
      <path class="cls-10" d="M140.3,488.41c-22.29,0-44.57.03-66.86-.01-11.2-.02-16.94-4.54-17.09-13.23-.16-8.87,5.21-14.36,16.23-14.42,45.16-.28,90.32-.36,135.48.02,14.43.12,21.29,10.5,15.14,21.04-3.26,5.58-8.36,6.67-14.27,6.65-22.87-.1-45.75-.04-68.62-.04Z"/>
      <path class="cls-2" d="M532.5,474.33c-10.74.05-21.49-.05-32.22.21-4.21.1-6.74-.99-6.71-5.59.13-26.84.5-53.69.23-80.53-.07-7.02,1.42-9.97,9.04-9.41,9.87.73,19.82.34,29.74.44,3.17,3.32,2.7,7.56,2.72,11.58.09,23.9.08,47.79.01,71.69-.01,4.06.18,8.24-2.82,11.6Z"/>
      <path class="cls-3" d="M532.5,474.33c.03-31.62.06-63.25.08-94.87,7.27-.1,14.55.06,21.8-.39,5.31-.33,6.2,2.12,6.18,6.72-.09,16.57.16,33.15.29,49.72-.11,10.49-.58,21-.21,31.48.22,6.26-2.05,8.23-8.04,7.79-6.67-.49-13.4-.33-20.1-.45Z"/>
      <path class="cls-14" d="M426.26,585.21c6.86.4,12.82,6.59,12.61,13.1-.26,8.18-6.99,14.16-15.15,13.47-7.36-.62-12.91-6.91-12.6-14.25.31-7.24,7.11-12.78,15.14-12.31Z"/>
      <path class="cls-3" d="M752.79,474.34c0-55.67.12-111.34-.15-167.01-.04-7.19,1.8-10.12,9.27-9.4,5.8.56,11.71.04,17.57,0,1.83,2.66,1.09,5.68,1.09,8.55.04,52.77-.18,105.55.24,158.32.07,8.48-2.68,10.77-10.46,9.97-5.81-.6-11.7-.31-17.56-.41Z"/>
    </g>
  </g>
</svg>