<?xml version="1.0" encoding="UTF-8"?>
<svg id="Layer_2" data-name="Layer 2" xmlns="http://www.w3.org/2000/svg" viewBox="0 0 813.17 749.7">
  <defs>
    <style>
      .cls-1 {
        fill: #5b5a5d;
      }

      .cls-1, .cls-2, .cls-3, .cls-4, .cls-5, .cls-6, .cls-7, .cls-8, .cls-9, .cls-10, .cls-11, .cls-12, .cls-13, .cls-14 {
        stroke-width: 0px;
      }

      .cls-2 {
        fill: #e6e5e6;
      }

      .cls-3 {
        fill: #c6c5c7;
      }

      .cls-4 {
        fill: #e0dfe0;
      }

      .cls-5 {
        fill: #787779;
      }

      .cls-6 {
        fill: #6c6c6c;
      }

      .cls-7 {
        fill: #6a6a6a;
      }

      .cls-8 {
        fill: #2d2d2e;
      }

      .cls-9 {
        fill: #efefef;
      }

      .cls-10 {
        fill: #e4e4e4;
      }

      .cls-11 {
        fill: #4d4c4d;
      }

      .cls-12 {
        fill: #f0f0f0;
      }

      .cls-13 {
        fill: #bbbabc;
      }

      .cls-14 {
        fill: #5c5b5e;
      }
    </style>
  </defs>
  <g id="Layer_1-2" data-name="Layer 1">
    <g>
      <path class="cls-3" d="M747.59,147.41c19.8,36.61,39.67,73.18,59.31,109.86,2.66,4.98,4.21,10.56,6.27,15.86v14.29c-3.04,2.72-6.81,2.55-10.49,2.55-49.27.05-98.55.06-147.82,0-3.16,0-6.35,0-9.25-1.56-2.69-1.92-2.91-4.87-3.08-7.78-2.29-39.32-9.57-78.04-13.84-117.11-.6-5.51-3.69-11.33.62-16.74,3.66-2.08,7.7-1.67,11.64-1.67,31.49-.04,62.98-.06,94.46.02,4.15.01,8.55-.74,12.18,2.29Z"/>
      <path class="cls-13" d="M644.94,287.49c56.08-.02,112.15-.04,168.23-.06v9.53c-2.67,3.4-2.53,7.76-3.98,11.59-10.81,28.63-31.2,45.98-61.1,52.25-1.76,1.7-3.76,2.9-6.26,3.11-34.39,2.83-66.92-4.94-88.47-40.36-4.45-7.31-7.62-15.11-8.97-23.59-.13-2.8-1.3-5.46-1.27-8.29.02-1.21.29-2.36.91-3.41.3-.26.6-.51.9-.77Z"/>
      <path class="cls-12" d="M748,390.63c.01,98.17.1,196.35,0,294.52-.03,30.1-23.9,57.63-53.55,63.04-6.05,1.1-12.02,1.42-18.07,1.42-174.12,0-348.24,0-522.36,0-30.98-4.07-48.92-22.4-56.66-51.85-1.22-4.65-1.29-9.41-1.29-14.17,0-93.3,0-186.59.01-279.89,0-13.57.14-13.83,13.12-17.39,11.42-3.13,21.57-8.56,30.6-16.12,13.23-12.32,21.2-27.73,26.2-44.88,1.17-1.25,2.43-2.25,4.28-1.37,3.98,13.15,8.42,25.93,17.15,37.05,26.87,34.22,82.3,37.71,113.91,7.75,12.92-12.25,19.68-27.17,25-43.35,1.16-1.3,2.42-2.28,4.3-1.52,2.11,2.61,2.01,5.94,2.88,8.96,8.15,27.95,26.29,46.36,54.29,53.59,27.13,7.01,51.69.86,72.75-18.35,10.91-9.95,18.11-21.9,22.08-35.97.36-1.27.73-2.55,1.31-3.74.81-1.67,1.63-3.57,3.9-3.33,2.24.24,2.78,2.24,3.21,4.03,2.28,9.62,5.97,18.59,11.72,26.7,18.72,26.41,44.96,36.78,76.03,32.1,30.62-4.6,50.55-23.59,60.35-53.01,1.07-3.23,1.27-6.8,3.82-9.44,1.95-.66,3.22.34,4.34,1.76,5.21,18.75,14.08,35.21,30.25,46.81,12.89,9.25,26.94,14.96,43.29,14.77,9.03-.11,18.38-2.29,27.17,1.9Z"/>
      <path class="cls-5" d="M747.59,147.41c-39.52.13-79.05.26-118.57.39-2.62,2.21-5.81,2.4-8.99,2.39-44.12-.04-88.24.33-132.36-.17-52.94.34-105.88.38-158.82,0-47.64.33-95.29.38-142.93,0-37.21.46-74.41.17-111.62.13-3.12,0-6.42.06-8.74-2.73.06-30.67-2.37-61.46,1.11-91.97C70.17,24.65,96.85,1.56,127.9.12c2.38-.11,4.76-.12,7.14-.12,181.02,0,362.03-.02,543.05,0,33.94,0,59.39,18.58,67.4,49.2,1.2,4.57,2.15,9.36,2.18,14.06.14,28.05-.02,56.09-.08,84.14Z"/>
      <path class="cls-3" d="M65.54,147.42c40.04.13,80.08.25,120.12.38,3.13,4.19,1.13,8.73.48,12.95-4.6,29.89-8.64,59.86-13.04,89.78-.65,4.43-.71,8.92-1.55,13.32-1.57,4.86-.83,9.88-1.05,14.84-.15,3.36.33,6.92-2.65,9.51-3.61,2.16-7.64,1.8-11.57,1.8-47.99.04-95.99.05-143.98-.02-4.13,0-8.53.74-12.05-2.49-1.05-10.83,1.04-21.14,6.13-30.63,19.6-36.54,39.41-72.96,59.15-109.43Z"/>
      <path class="cls-4" d="M327.17,325.56c-4.41,33.81-37.39,63.37-72.03,65.34-25.75,1.46-47.76-5.69-65.39-24.32-11.15-11.79-19.27-25.59-19.85-42.6-.97-1.91-1.27-2.09-1.76-1.05-.43.9-.72,1.86-1.38,2.63-2.33,17.83-11.93,31.76-23.85,44.46-8.71-2.43-13.21-9.51-17.96-16.31.45-2.37,2.46-3.29,4.21-4.4,17.86-11.34,29.82-27.04,35.29-47.56.34-1.27.88-2.48,1.63-3.58,1.19-1.2,2.45-2.17,4.25-1.18,2.14,2.83,2.51,6.34,3.6,9.56,16.27,48.1,73.78,68.91,116.71,41.7,16.53-10.47,27.95-25.44,33.5-44.58.99-3.42.6-8.44,6.37-8.53,1.81,1.82,1.82,4.31,2.42,6.58,13.44,50.2,70.09,73.86,114.89,47.49,16.12-9.49,27.61-23.49,33.78-41.5,1.27-3.71,1.68-7.77,4.09-11.07,1.13-.66,2.3-.71,3.5-.18,2.23,2.17,2.39,5.22,3.26,7.94,10.64,33.27,40.36,55.69,73.83,55.64,33.38-.05,63.07-22.58,73.71-55.93.72-2.25,1.09-4.64,2.38-6.7,1.85-1.75,2.84-.56,3.7,1.09,7.09,36.3,39.08,63.03,76.08,63.46,8.66.1,17.35.57,25.94-1.17-.03,9.94-.06,19.89-.09,29.83-14.74-.69-29.78,2.4-44.21-1.65-29.18-8.2-48.17-27.24-56.89-56.34-.52-1.73-.36-3.66-.52-5.49-.83-1.05-1.24-2.29-1.61-3.54-.34-1.17-.86-2.3-.83-2.46-.33-2.12-1.68-.66-.72-1.11.37-.17.58-.02.64.45.24,1.75,1.09,3.58-.65,5.07-5.73,36.37-34.22,61.36-66.35,64.88-40.92,4.48-77.77-17.38-89.48-65.39-2.31,6.41-4.16,11.69-6.12,16.93-10.9,29.1-44.6,50.77-75.38,49.23-28.8-1.44-50.97-13.91-66.22-38.27-5.48-8.75-9.35-18.31-9.35-28.97-1.11.51.13-3.08-1.74-1.02-.63.7-.75,1.83-1.42,2.6Z"/>
      <path class="cls-4" d="M125.3,354.08c5.87,5.31,11.74,10.62,17.61,15.94-9.72,10.39-22.01,16.18-35.64,19.02-6.77,1.41-9.05,4.14-9.03,11.49.32,93.43.69,186.87-.05,280.29-.26,32.67,20.72,59.53,51.61,67.05,1.52.37,3.21.16,4.22,1.73-11.57-.64-23.2,1.24-34.75-1.2-28.17-5.95-45.32-23.18-52.71-50.66-.48-1.77-.95-3.55-1.42-5.33,1.21-4.75,1.22-9.5,0-14.25-.03-105.79-.05-211.58-.08-317.36,1.9-2.12,4.37-1.4,6.67-1.26,16.19.99,32.15.23,47.56-5.53,1.96-.73,4.03-1.43,6.02.07Z"/>
      <path class="cls-13" d="M125.3,354.08c-19.4,8.36-39.59,9.63-60.25,6.72-35.56-7.96-57.04-29.79-64.38-65.47-.52-2.54-.29-5.23-.4-7.85,55.98,0,111.96,0,167.94-.01.28.24.57.49.86.73.59.99.84,2.08.89,3.22.37,2.91-1.88,4.74-2.91,7.08-4.87,25.32-20.11,42.85-41.74,55.58Z"/>
      <path class="cls-4" d="M65.13,678.16c2.48,4.75,2.48,9.5,0,14.25,0-4.75,0-9.5,0-14.25Z"/>
      <path class="cls-7" d="M487.45,147.79c47.19,0,94.38,0,141.57.01,3.26,25.45,6.39,50.92,9.82,76.35,2.84,21.04,6.32,42.01,6.11,63.34,0,0-.26-.08-.26-.08-3.01,2.81-6.81,2.57-10.47,2.57-45.36.06-90.73.06-136.09,0-3.66,0-7.44.21-10.63-2.24-2.81-3.34-2.46-7.42-2.46-11.34-.07-39.36-.07-78.71,0-118.07,0-3.66-.32-7.47,2.43-10.54Z"/>
      <path class="cls-8" d="M487.81,287.43c52.29,0,104.58-.02,156.87-.02,0,1.11-.02,2.22-.03,3.33-1.6,1.87.4,4.49-1.34,6.33-3.52,28.8-28.96,55.64-59.55,62.86-41.33,9.74-84.35-16.75-94.26-58.1-.36-1.52-.29-3.15-.42-4.73-1.56-1.63-1.88-3.76-2.39-5.82-.23-1.08-.19-2.14.28-3.16.28-.23.55-.46.83-.69Z"/>
      <path class="cls-6" d="M643.31,297.07c.02-2.2-.74-4.57,1.34-6.33.47,2.59.95,5.18,1.42,7.77-.92-.48-1.84-.96-2.76-1.44Z"/>
      <path class="cls-5" d="M421.49,599.97c-34.13,0-68.27.1-102.4-.1-5.89-.03-8.35.36-6.64,7.63,4.43,18.91,9.08,23.17,28.66,23.17,56.36,0,112.72,0,169.08,0,2.64,0,5.34-.18,7.92.27,6.05,1.04,10.28,4.34,10.83,10.83.57,6.67-2.38,11.41-9.01,12.98-3.97.94-5.31,1.85-4.46,6.65,2.7,15.23-2.84,27.79-15.45,36.51-12.1,8.37-25.38,8.98-38.26,1.89-13.51-7.44-20.46-19.55-18.56-34.87,1.06-8.59-1.29-9.92-8.96-9.54-12.67.62-25.4.31-38.09.1-4.56-.08-5.89,1.08-5.09,5.9,2.64,15.96-3.07,28.8-16.67,37.33-13.34,8.37-27.39,8.02-40.26-.99-13.12-9.18-18.33-22.34-14.76-38.14,1.06-4.72.47-6.63-4.11-8.73-13.25-6.1-21.83-16.48-24.92-30.9-12.07-56.29-24.05-112.61-36.04-168.91-3.02-14.16-9.23-19.38-23.45-19.62-6.34-.11-12.71.04-19.02-.48-7.1-.59-11.28-5.08-11.29-12,0-6.96,4.37-11.71,11.3-12.05,10-.48,20.12-1.35,30.06.73,17.23,3.59,29.04,13.79,34.33,30.53,1.76,5.58,4.42,6.45,9.52,6.44,87.85-.13,175.7-.1,263.55-.09,15.31,0,19.24,4.77,16.21,20.03-8.03,40.41-16.14,80.8-24.28,121.19-2.3,11.43-5.93,14.25-18.11,14.26-33.87.03-67.74.01-101.61.01Z"/>
      <path class="cls-2" d="M643.23,325.56v-6.8c2.59,2.78,3.24,5.45,3.16,8.38-1.05-.53-2.11-1.06-3.16-1.58Z"/>
      <path class="cls-2" d="M166.75,325.56c.19-1.98-.62-4.74,2.26-5.05,1.14-.12.76,2.21.88,3.47-1.05.53-2.1,1.05-3.15,1.58Z"/>
      <path class="cls-10" d="M327.17,325.56c.2-1.98-.62-4.75,2.27-5.05,1.15-.12.76,2.21.88,3.47-1.05.53-2.1,1.05-3.15,1.58Z"/>
      <path class="cls-3" d="M487.45,147.79c.04,43.38.08,86.75.13,130.13,0,3.17.15,6.34.23,9.51,0,0-.54.04-.54.04-3.01,2.91-6.86,2.47-10.51,2.48-46.06.07-92.12.07-138.17.01-2.91,0-5.84,0-8.61-1.12-.98-.47-1.76-1.17-2.33-2.09-1.77-3.72-1.44-7.72-1.44-11.64-.04-38.18-.05-76.36.01-114.54,0-4.4-.76-9.06,2.71-12.77,52.84,0,105.69,0,158.53,0Z"/>
      <path class="cls-7" d="M328.92,147.8c-.05,43.37-.09,86.75-.15,130.12,0,3.17-.16,6.34-.24,9.51-2.98,2.94-6.83,2.53-10.47,2.54-46,.07-92,.07-138,.01-3.41,0-6.92.21-9.93-1.97-1.74-8.17-1.28-16.37-.25-24.57.21-18.4,4.61-36.29,6.72-54.46,2.38-20.47,6-40.79,9.08-61.18,47.75,0,95.5,0,143.25,0Z"/>
      <path class="cls-12" d="M421.12,62.24c8.17-18.87,22.88-25.75,42.96-25.63,68.97.43,137.94.12,206.91.2,22.24.03,37.71,13.36,39.53,33.99,1.28,14.46-5.19,25.43-16.33,34.05-6.79,7.8-16.11,8.56-25.4,8.64-26.16.24-52.33.08-78.5.09-41.5,0-82.99,0-124.49.01-6.1,0-12.14-.29-18.09-1.79-16.62-4.2-29.04-18.58-30.49-35.59-.43-5.06-.18-10.09,3.9-13.97Z"/>
      <path class="cls-7" d="M202.46,60.38c11.98-27.22,43.71-30.6,61.23-12.35,14.24,14.84,14.16,37.24-.46,51.83-1.48,1.48-2.96,2.96-4.44,4.45-12.01,12.09-28.13,10.36-40.88,3.48-13.98-7.54-22.32-24.85-19.55-39.24.59-3.05,1.31-6.16,4.09-8.16Z"/>
      <path class="cls-1" d="M300.13,57.13c2.56-3.31,4.81-6.94,7.75-9.88,15.43-15.39,39.93-13.88,54.64,3.19,13.24,15.36,9.74,40.82-7.27,53.1-1.05.76-1.95,1.72-2.92,2.58-6.08,7.02-14.33,7.63-22.55,6.75-20.44-2.18-35.31-19.74-35.01-40.34.08-5.85,2.11-10.79,5.37-15.42Z"/>
      <path class="cls-3" d="M106.79,57.16c12.41-18.06,27.54-24.5,44.78-18.74,13.33,4.45,21.9,13.8,24.47,27.47,2.66,14.12-1.25,26.58-12.85,35.96-1.01.81-1.9,1.77-2.84,2.66-14.48,13.45-41.83,8.31-52.7-10.41-6.91-11.89-10.58-24.4-.87-36.94Z"/>
      <path class="cls-14" d="M421.12,62.24c-1.67,7.84-2.22,15.61.52,23.4,5.4,15.34,19,24.93,36.69,24.96,71.31.1,142.62.03,213.93.06,7.85,0,15.06-2.18,21.92-5.81-4.39,9.57-16.58,17.27-29.2,17.3-72.66.16-145.32.31-217.98-.11-14.79-.09-26.97-6.75-33.6-21.04-5.79-12.5-4.81-24.55,2.78-35.96.98-1.47,1.37-5.34,4.93-2.79Z"/>
      <path class="cls-14" d="M106.79,57.16c-7.69,24.35,1.62,45.03,23.19,51.39,10.69,3.15,20.72.83,30.38-4.04-3.83,9.41-17.73,18.05-29.51,17.38-21.64-1.23-38.52-18.03-37.07-38.98.71-10.21,4.13-19.47,13.01-25.75Z"/>
      <path class="cls-14" d="M300.13,57.13c-6.65,22.11-1.73,38.5,14.59,48.36,12.39,7.49,24.96,6.74,37.6.63,1.98,1.81-.02,2.72-.93,3.73-13.04,14.46-33.13,16.19-49.94,4.32-13.81-9.75-18.33-30.28-9.94-46.01,2.2-4.12,4.25-8.52,8.61-11.04Z"/>
      <path class="cls-14" d="M202.46,60.38c-5.27,16.49-1.92,30.9,11.53,41.95,14.17,11.64,29.45,10.76,44.8,1.97-9.95,14.79-26.24,21.09-41.56,16.08-17.24-5.64-27.93-20-26.45-37.41.74-8.69,2.03-18.06,11.68-22.59Z"/>
      <path class="cls-7" d="M169.87,263.44c0,7.98.02,15.95.03,23.93-.47.57-.96.58-1.45.03,0,0-.23.08-.23.08,1-7.98-1.63-16.21,1.66-24.03Z"/>
      <path class="cls-8" d="M168.44,287.39c.48.03.97.03,1.45-.02,52.88.02,105.75.04,158.63.07,0,0,.56.05.56.05,1.49,2.54,3.05,5.08.67,7.95-2.42,1.39-2.28,3.88-2.87,6.17-8.95,35.08-40.16,60.04-75.38,60.4-39.27.4-70.38-22.24-80.6-58.73-.56-2.01-.73-4.13-1.08-6.2-1.74-1.84.26-4.48-1.34-6.35-.01-1.11-.03-2.22-.04-3.33Z"/>
      <path class="cls-13" d="M329.75,295.42c-.22-2.65-.45-5.3-.67-7.95,52.73,0,105.46,0,158.18-.01.12,1.04.25,2.09.37,3.13,1.53,2.51-.24,4.34-1.29,6.33-5.59,36.86-39.44,65.06-78.12,65.07-39.36.02-72.65-28.22-78.47-66.58Z"/>
      <path class="cls-6" d="M168.48,290.72c2.09,1.77,1.33,4.14,1.34,6.35-.93.48-1.86.96-2.79,1.43.48-2.6.96-5.19,1.44-7.78Z"/>
      <path class="cls-11" d="M486.35,296.93c.43-2.11.86-4.22,1.29-6.33,2.23,1.78,1.4,4.23,1.44,6.5-.91-.06-1.82-.12-2.73-.17Z"/>
      <path class="cls-12" d="M412.77,468.74c11.91,0,23.82.08,35.73-.05,3.84-.04,5.78.43,4.97,5.27-1.71,10.15-2.94,20.41-3.84,30.67-.37,4.21-1.98,5.25-5.9,5.22-20.91-.14-41.81-.09-62.72-.04-3.11,0-5.65-.01-6.05-4.23-1.01-10.52-2.16-21.04-3.7-31.5-.66-4.52.92-5.47,5-5.41,12.17.18,24.35.06,36.52.06Z"/>
      <path class="cls-12" d="M413,534.15c8.98,0,17.96.19,26.94-.08,4.67-.14,5.86,1.34,5.14,5.99-1.55,10.16-2.61,20.41-3.63,30.64-.34,3.4-1.9,4.43-5.1,4.41-15.85-.08-31.69-.11-47.54.02-3.55.03-5.36-1.12-5.75-4.76-1.08-9.96-2.19-19.93-3.58-29.85-.68-4.83.69-6.67,5.8-6.48,9.23.34,18.48.1,27.73.1Z"/>
      <path class="cls-12" d="M315.21,468.74c8.44,0,16.88.15,25.31-.07,3.88-.1,5.53.98,5.94,5.18,1.02,10.48,2.54,20.91,4.08,31.33.52,3.51-.53,4.67-4.05,4.65-16.88-.11-33.75-.12-50.63,0-3.47.03-4.49-1.75-5.08-4.65-2.05-10.06-4.12-20.11-6.38-30.12-1.11-4.89.36-6.63,5.5-6.41,8.42.36,16.87.1,25.31.1Z"/>
      <path class="cls-12" d="M502.51,509.78c-7.94,0-15.88-.1-23.81.04-3.53.06-5.18-.35-4.47-4.8,1.68-10.43,2.72-20.96,3.85-31.47.33-3.1,1.35-4.85,4.81-4.84,17.46.07,34.92.06,52.39,0,3.03-.01,4.28.71,3.54,4.13-2.4,11.1-4.68,22.23-6.67,33.4-.7,3.91-3.2,3.53-5.83,3.53-7.94.01-15.87,0-23.81,0Z"/>
      <path class="cls-12" d="M326.13,534.15c7.4,0,14.8.11,22.2-.05,3.61-.08,5.79.44,6.23,4.89,1.04,10.5,2.63,20.95,4.12,31.4.48,3.36-.48,4.78-4.1,4.75-14.8-.13-29.6-.09-44.4-.02-3.03.01-4.76-.69-5.4-4.16-1.96-10.63-4.13-21.24-6.63-31.76-1-4.2.46-5.14,4.19-5.08,7.93.11,15.86.03,23.79.03Z"/>
      <path class="cls-12" d="M491.48,575.08c-6.86,0-13.71-.13-20.56.05-3.89.1-5.7-.53-4.89-5.27,1.69-9.85,3-19.8,3.79-29.76.4-4.97,2.47-6.09,6.93-6.03,14.5.19,29,.2,43.5,0,4.57-.06,6.21,1.28,5.18,5.96-2.21,10.02-4.32,20.07-6.1,30.18-.72,4.09-2.79,5.04-6.5,4.94-7.11-.19-14.24-.06-21.36-.06Z"/>
      <path class="cls-9" d="M491.57,667.85c-.1,6.61-5.55,11.94-12.2,11.93-6.98-.01-12.63-5.84-12.28-12.66.33-6.57,5.91-11.63,12.61-11.45,6.81.18,11.96,5.47,11.87,12.19Z"/>
      <path class="cls-9" d="M367.05,667.42c.12,6.76-4.93,12.16-11.57,12.36-7.03.21-12.6-5.22-12.55-12.23.06-6.71,5.27-11.88,12.01-11.91,6.78-.03,11.99,5.03,12.11,11.77Z"/>
    </g>
  </g>
</svg>