<?xml version="1.0" encoding="UTF-8"?>
<svg id="Layer_2" data-name="Layer 2" xmlns="http://www.w3.org/2000/svg" viewBox="0 0 533.65 533.65">
  <defs>
    <style>
      .cls-1 {
        fill: #fee640;
      }

      .cls-1, .cls-2, .cls-3, .cls-4, .cls-5, .cls-6, .cls-7, .cls-8, .cls-9, .cls-10, .cls-11, .cls-12, .cls-13, .cls-14, .cls-15, .cls-16, .cls-17, .cls-18, .cls-19, .cls-20, .cls-21, .cls-22, .cls-23, .cls-24, .cls-25, .cls-26, .cls-27, .cls-28, .cls-29, .cls-30, .cls-31, .cls-32, .cls-33, .cls-34, .cls-35 {
        stroke-width: 0px;
      }

      .cls-2 {
        fill: #e0e3e8;
      }

      .cls-3 {
        fill: #545454;
      }

      .cls-4 {
        fill: #fbbf16;
      }

      .cls-5 {
        fill: #fbac27;
      }

      .cls-6 {
        fill: #565656;
      }

      .cls-7 {
        fill: #7eb2bd;
      }

      .cls-8 {
        fill: #fded7e;
      }

      .cls-9 {
        fill: #434343;
      }

      .cls-10 {
        fill: #402a41;
      }

      .cls-36 {
        letter-spacing: 0em;
      }

      .cls-37 {
        letter-spacing: -.02em;
      }

      .cls-11 {
        fill: #131313;
      }

      .cls-12 {
        fill: #4a304c;
      }

      .cls-13 {
        fill: #feee7f;
      }

      .cls-14 {
        fill: #303030;
      }

      .cls-15 {
        fill: #fe7471;
      }

      .cls-16 {
        fill: #e9333c;
      }

      .cls-17 {
        fill: #535353;
      }

      .cls-18 {
        fill: #feee7e;
      }

      .cls-19 {
        fill: #fed239;
      }

      .cls-20 {
        fill: #5b4847;
      }

      .cls-21 {
        fill: #fe8f7f;
      }

      .cls-22 {
        fill: #e70029;
      }

      .cls-38 {
        fill: #000;
        font-family: Mont-HeavyDEMO, Mont;
        font-size: 32.99px;
        font-weight: 800;
      }

      .cls-23 {
        fill: #f89f9f;
      }

      .cls-24 {
        fill: #c3912c;
      }

      .cls-39 {
        letter-spacing: 0em;
      }

      .cls-25 {
        fill: #febd32;
      }

      .cls-26 {
        fill: #cb002d;
      }

      .cls-27 {
        fill: #422c42;
      }

      .cls-28 {
        fill: #3c253f;
      }

      .cls-29 {
        fill: #fe4741;
      }

      .cls-30 {
        fill: #323130;
      }

      .cls-31 {
        fill: #fff;
      }

      .cls-32 {
        fill: #cbcbca;
      }

      .cls-33 {
        fill: #191919;
      }

      .cls-34 {
        fill: #402a40;
      }

      .cls-35 {
        fill: #4d4d4d;
      }
    </style>
  </defs>
  <g id="Layer_1-2" data-name="Layer 1">
    <g>
      <circle class="cls-7" cx="266.82" cy="266.82" r="266.82"/>
      <circle class="cls-31" cx="110.51" cy="267.66" r="96.94"/>
      <text class="cls-38" transform="translate(75.19 211.09)"><tspan class="cls-39" x="0" y="0">O</tspan><tspan x="27.35" y="0">ld </tspan></text>
      <circle class="cls-31" cx="425.3" cy="267.66" r="96.94"/>
      <text class="cls-38" transform="translate(389.14 206.66)"><tspan class="cls-36" x="0" y="0">N</tspan><tspan class="cls-37" x="24.81" y="0">e</tspan><tspan x="45.43" y="0">w </tspan></text>
      <g>
        <path class="cls-9" d="M144.15,243.57c2.63,7.84,5.26,15.69,7.9,23.53-.03,1.63-1.1,2.81-1.86,4.09-1.84,3.09-3.72,6.16-5.77,9.12-.6.86-1.23,1.62-2.39,1.62-2.08-.03-4.16-.08-5.9,1.34-2.71,2.21-3.91,4.95-2.92,8.44.14.48.31.96.38,1.46.07.54-.12,1.01-.48,1.39-3.77,3.96-7.65,7.78-12.93,9.74-.84.01-1.28-.63-1.79-1.14-2.83-2.81-5.64-5.64-8.47-8.46-1.31-1.3-1.32-1.29-2.66.04-1.16,1.15-2.3,2.31-3.46,3.45-.47.46-.89,1.04-1.66,1.03-5.3-2.25-10.13-5.31-14.83-8.6-.87-.61-1.78-1.18-2.63-1.82-.77-1.4-1.02-3.03-2.18-4.27-1.53-1.62-3.25-2.68-5.54-2.63-.33,0-.67-.05-.97-.2-.12-.5-.18-.95-.65-1.37-2.08-1.89-4-3.95-5.69-6.2-.34-.46-.76-.83-1.22-1.16-1.49-1.74-2.75-3.61-3.25-5.89,2.64-7.84,5.27-15.68,7.91-23.52.72,2.42,2.21,4.17,4.36,5.52,1.6,1,3.34,1.67,5.06,2.26,3.01,1.04,6.17,1.63,9.33,2.15,1.16.19,2.29.58,3.48.64.6.22,1.22.21,1.85.11.49,0,.95.14,1.42.26.79.27,1.59.17,2.39,0,.79-.02,1.55.18,2.32.3.62.2,1.27.17,1.91.17,2.28,0,4.57,0,6.85,0,.64,0,1.29.04,1.92-.16.78-.13,1.55-.33,2.35-.31.82.16,1.63.26,2.44-.04,3.71-.56,7.42-1.06,11.09-1.88,3.92-.87,7.61-2.24,11.05-4.32,1.8-1.09,2.51-2.91,3.28-4.7Z"/>
        <path class="cls-14" d="M103.18,345.46c-12.17-3.52-21.93-10.87-30.81-19.55-11.22-10.96-20.33-23.56-28.41-36.94-2.03-3.36-.66-6.9,3.1-8.21,3.01-1.04,6.03-2.05,9.06-3.02,2.57-.82,4.78-2.15,6.45-4.31.69.27,1,.91,1.33,1.48,1.69,2.87,3.54,5.63,5.38,8.4.41.61.81,1.23.73,2.03-.08.56-.29,1.08-.45,1.61-1.86,5.99,2.83,11.22,8.97,9.99.38-.08.76-.18,1.16-.1,1.99,1.71,3.7,3.72,5.71,5.43,2.07,1.76,4.23,3.33,6.53,4.75.56.35,1.27.54,1.37,1.35,0,.75.51,1.22.99,1.7,4.37,4.37,8.76,8.72,13.1,13.13.93.95,1.54.95,2.47,0,4.33-4.41,8.72-8.76,13.1-13.13.53-.53,1.02-1.05,1.02-1.86.16-.51.57-.65,1.04-.71,1.86.17,3.58.89,5.37,1.36,7.61,1.97,15.31,3.48,23.09,4.6.7.1,1.5.03,1.87.87-3.65,4.81-7.82,9.15-12.22,13.26-7.41,6.95-15.46,13-25.12,16.56-1.31.48-2.64.88-3.96,1.32-3.62,1.72-7.23,1.72-10.85,0Z"/>
        <path class="cls-9" d="M155.33,314.32c-2.58-.45-5.16-.93-7.75-1.35-7.31-1.16-14.52-2.79-21.62-4.88-.37-.11-.77-.16-1.15-.24-.05-.58.43-.75.79-.98,4.21-2.66,7.98-5.82,11.22-9.6.19-.22.42-.37.71-.44,1.18-.12,2.26.53,3.48.36,5.36-.72,8.24-5.21,6.61-10.4-.15-.48-.34-.95-.41-1.45-.08-.79.31-1.41.71-2.02,1.91-2.85,3.8-5.71,5.54-8.65.3-.51.54-1.16,1.33-1.11,1.42,1.91,3.29,3.16,5.54,3.9,3.03.99,6.04,2.02,9.07,3.02,4.7,1.56,5.98,4.95,3.44,9.14-5.07,8.37-10.65,16.39-16.83,23.98-.21.26-.46.47-.69.71Z"/>
        <path class="cls-33" d="M95.44,254.46c-2.32-.04-4.51-.81-6.77-1.17-1.85-.29-3.66-.75-5.45-1.27-3.45-.99-6.63-2.56-9.16-5.16-.81-.83-1.01-2.1-.99-3.3.23-1.8,1.51-2.84,2.86-3.77,3.93-2.7,8.45-3.94,13.04-4.81,14-2.66,28-2.59,41.92.59,3.57.81,7.05,1.95,10.13,4.02,1.45.97,2.87,2.04,3.13,3.97-.09,3.96-3.15,5.37-6.04,6.7-5.66,2.61-11.7,3.79-17.89,4.25-.5.04-.99.18-1.48.28-.78.22-1.55.23-2.33,0-.8.11-1.6.22-2.4.34-.59.28-1.21.09-1.82.15-2.38,0-4.77,0-7.15,0-.61-.06-1.24.14-1.83-.15-.8-.11-1.6-.23-2.4-.34-.78.23-1.56.23-2.33,0-.46-.11-.93-.22-1.39-.34-.55.22-1.1.22-1.65,0Z"/>
        <path class="cls-2" d="M104.42,364.76c3.33.58,6.37-.04,9.6-.32,0-2.73-.01-5.47-.02-8.2-.13-.1-.25-.25-.42-.27-3.32-.42-6.65-.42-9.97,0-.17.02-.28.17-.42.27,0,2.81-.01,5.63,0,8.44.41,0,.81.01,1.22.08Z"/>
        <path class="cls-32" d="M114.01,356.23c-3.6,0-7.2,0-10.8,0,0-3.59-.02-7.18-.03-10.77,1.03-.19,1.96.25,2.9.51,2.21.6,4.35.2,6.48-.35.49-.13.96-.25,1.46-.16,0,3.59-.02,7.18-.03,10.77Z"/>
        <path class="cls-24" d="M69.82,285.22c-.54-1.62-1.75-2.83-2.61-4.25-1.52-2.53-3.09-5.02-4.64-7.53,1.17-1.99,1.72-4.24,2.59-6.35,1.13,1.88,2.02,3.9,3.38,5.64,1.77,1.95,3,4.28,4.48,6.42.61.88,1.24,1.71,2.14,2.3.04.17.03.41-.1.45-2.1.56-3.56,2.12-5.25,3.33Z"/>
        <path class="cls-24" d="M154.8,273.56c-2.51,3.86-5.13,7.65-7.39,11.66-1.45-.7-2.24-2.32-3.89-2.78-.53-.15-1.3-.07-1.44-.89.87.09,1.29-.47,1.72-1.1,2.94-4.33,5.7-8.78,8.24-13.36.97,2.14,1.24,4.57,2.76,6.47Z"/>
        <path class="cls-4" d="M124.15,308.56c.59.43.21.74-.11,1.07-4.9,4.89-9.8,9.78-14.67,14.69-.57.57-.94.57-1.51,0-4.88-4.91-9.78-9.8-14.67-14.7-.33-.33-.71-.64-.12-1.07.31-1.52,1.64-2.26,2.57-3.3.4-.45.84-.86,1.27-1.29,1.3-1.25,2.54-2.56,3.84-3.81.43-.42.79-.99,1.52-.95,1.29-1.25,2.58-2.5,3.86-3.77q2.5-2.49,5.05.06c2.51,2.51,5.01,5.02,7.52,7.51.43.43.79.97,1.42,1.16,1.69,1.15,3.27,2.4,4.05,4.4Z"/>
        <path class="cls-4" d="M69.82,285.22c1.21-2.04,3.1-3.09,5.33-3.66.18-.24.41-.28.68-.14,4.25-.27,7.93,2,9.04,7.19.96,1.7.03,3.18-.53,4.7-.75,1.34-1.6,2.58-2.98,3.36-.49.28-.94.63-1.56.46-5.4,1.22-9.45-.72-10.82-5.26-.7-2.32-.4-4.55.85-6.65Z"/>
        <path class="cls-4" d="M142.08,281.56c2.22.59,4.11,1.64,5.32,3.67,2.93,5.67,0,11.54-6.17,12.39-1.33.18-2.55-.28-3.82-.49-2.06-.29-3.59-1.73-4.07-3.8-3.14-5.99,1.91-13.03,8.74-11.77Z"/>
        <path class="cls-14" d="M83.86,293.33c.79-1.48,1-3.07,1-4.72,1.3.44,2.26,1.42,3.36,2.17,4.05,2.79,8.24,5.33,12.67,7.5.49.24,1.06.39,1.37.92-1.66,1.71-3.17,3.58-5.15,4.96-2.6-.58-4.68-2.17-6.72-3.72-2.1-1.6-4.03-3.41-5.82-5.36-.45-.49-1.03-.93-.71-1.74Z"/>
        <path class="cls-24" d="M133.35,293.32c.86,1.8,2.37,2.9,4.07,3.8-3.56,4.34-7.82,7.84-12.61,10.73-.42.04-.66.26-.65.7-1.35-1.47-2.7-2.93-4.05-4.4,4.69-2.3,8.67-5.53,12.2-9.35.41-.45.97-.8,1.04-1.48Z"/>
        <path class="cls-30" d="M75.82,281.42c-.23.05-.45.09-.68.14-.67.05-1.15-.21-1.52-.79-1.73-2.66-3.61-5.22-5.08-8.05,1.32.38,1.75,1.68,2.52,2.58,1.45,1.71,3.05,3.26,4.6,4.87.35.36,1.01.71.17,1.24Z"/>
        <path class="cls-6" d="M104.89,255.14c2.48,0,4.95,0,7.43,0,.11.07.15.14.11.21-.04.07-.07.11-.11.11-2.48,0-4.96,0-7.44,0-.11-.07-.15-.14-.11-.21.04-.07.08-.1.11-.1Z"/>
        <path class="cls-17" d="M98.48,254.8c.78,0,1.56,0,2.33,0-.78.51-1.56.5-2.33,0Z"/>
        <path class="cls-3" d="M116.41,254.79c.78,0,1.55,0,2.33,0-.78.48-1.55.49-2.33,0Z"/>
        <path class="cls-3" d="M95.44,254.46c.55,0,1.1,0,1.65,0-.55.48-1.1.47-1.65,0Z"/>
        <path class="cls-35" d="M104.89,255.14c0,.11,0,.21,0,.32-.57-.08-1.2.22-1.68-.32.56,0,1.12,0,1.68,0Z"/>
        <path class="cls-35" d="M112.33,255.45c0-.11,0-.21,0-.32.56,0,1.12,0,1.68,0-.48.54-1.11.24-1.68.32Z"/>
        <path class="cls-24" d="M83.86,293.33c.09.68.64,1.03,1.05,1.48,3.53,3.81,7.52,7.03,12.2,9.35-1.35,1.47-2.7,2.94-4.04,4.4-.04-.82-.81-.86-1.3-1.15-4.63-2.69-8.55-6.2-11.98-10.28,1.71-.89,3.21-2,4.07-3.8Z"/>
        <path class="cls-11" d="M108.78,252.38c-8.66.26-16.94-.63-25.01-3.05-2.36-.71-4.68-1.56-6.66-3.15-1.8-1.45-1.79-2.84.17-4.12,2.23-1.46,4.66-2.45,7.22-3.16,5.9-1.65,11.93-2.34,18.04-2.81,5.13-.39,10.23-.22,15.3.18,6.36.5,12.68,1.47,18.65,3.97,1.36.57,2.67,1.2,3.8,2.14,1.58,1.31,1.45,2.56-.2,3.8-3.09,2.34-6.74,3.3-10.39,4.17-6.96,1.66-14.03,2.32-20.93,2.04Z"/>
      </g>
      <path class="cls-31" d="M378.6,101.91c3.06-12.12,6.11-23.87,8.95-35.65,1.18-4.88,3.61-8.98,9.66-11.07,5.6-1.93,11.06-1.42,15.9,1.54,5.07,3.1,7.06,7.29,5.84,12.24-3.29,13.37-6.71,26.72-10.08,40.07-2.37,9.37-4.75,18.73-7.11,28.1-2.01,7.98-9.62,12.12-19.72,10.56-28.77-4.45-57.53-8.94-86.29-13.46-9.27-1.46-14.8-7.67-13.09-14.53,1.78-7.13,10-11.21,19.6-9.7,16.19,2.55,32.38,5.11,48.58,7.65.87.14,1.76.15,3.21.26-2.83-3.61-6.24-6.36-9.67-9.05-29.78-23.38-65.81-34.95-107.69-32.25-51.59,3.32-89.45,23.92-113.27,60.23-.98,1.49-1.79,3.05-2.82,4.52-4.24,6.09-13.08,8.42-20.79,5.53-7.47-2.8-10.87-10.02-7.42-16.27,3.35-6.09,7.28-11.96,11.85-17.53,22.43-27.39,53.26-46.49,92.93-55.73,53.51-12.47,103.37-5.52,148.89,19.99,11.52,6.46,21.57,14.19,30.52,22.8.55.53,1.16,1.02,2.02,1.77Z"/>
      <path class="cls-31" d="M378.6,433.41c3.06,12.12,6.11,23.87,8.95,35.65,1.18,4.88,3.61,8.98,9.66,11.07,5.6,1.93,11.06,1.42,15.9-1.54,5.07-3.1,7.06-7.29,5.84-12.24-3.29-13.37-6.71-26.72-10.08-40.07-2.37-9.37-4.75-18.73-7.11-28.1-2.01-7.98-9.62-12.12-19.72-10.56-28.77,4.45-57.53,8.94-86.29,13.46-9.27,1.46-14.8,7.67-13.09,14.53,1.78,7.13,10,11.21,19.6,9.7,16.19-2.55,32.38-5.11,48.58-7.65.87-.14,1.76-.15,3.21-.26-2.83,3.61-6.24,6.36-9.67,9.05-29.78,23.38-65.81,34.95-107.69,32.25-51.59-3.32-89.45-23.92-113.27-60.23-.98-1.49-1.79-3.05-2.82-4.52-4.24-6.09-13.08-8.42-20.79-5.53-7.47,2.8-10.87,10.02-7.42,16.27,3.35,6.09,7.28,11.96,11.85,17.53,22.43,27.39,53.26,46.49,92.93,55.73,53.51,12.47,103.37,5.52,148.89-19.99,11.52-6.46,21.57-14.19,30.52-22.8.55-.53,1.16-1.02,2.02-1.77Z"/>
      <g>
        <path class="cls-12" d="M394.01,222.05c4.6-2.67,9.59-4.36,14.69-5.75,4.14-1.13,8.34-1.92,12.64-2.17.21-.01.39-.06.47-.29h12.2c1.96.6,4.02.55,6.02.91,7.6,1.37,14.95,3.48,21.74,7.28.55.69.47,1.55.58,2.33,1.93,13.3.55,26.15-5.51,38.28-3.43,6.88-8.12,12.75-14.82,16.79-11.46,6.92-24.17,4.58-33.3-3.82-9.07-8.34-13.51-18.99-15.35-30.89-1.03-6.66-.97-13.35-.02-20.03.13-.9.24-1.81.65-2.65Z"/>
        <path class="cls-28" d="M394.01,222.05c.13,2.21-.54,4.35-.68,6.54-.25,4-.27,7.98.01,11.98.26,3.74.89,7.41,1.87,11.02,2.14,7.88,5.59,15.05,11.18,21.13,4.32,4.7,9.37,8.14,15.62,9.65,7.02,1.7,13.59.42,19.69-3.26,7.51-4.53,12.39-11.28,15.93-19.17,2.44-5.45,4.01-11.15,4.65-17.04.69-6.34.8-12.72-.48-19.05-.12-.59-.03-1.21-.05-1.82,3.52,1.6,6.72,3.74,9.88,5.95.34.57.62,1.15.73,1.81,1.48,8.58,3.08,17.14,4.59,25.72.06.35.11.7.07,1.06-.06.52-.39.91-.69,1.32-2.21,2.99-1.75,5.6,1.33,7.73.12.09.24.19.34.3.46,1.56-.18,3.01-.54,4.45-1.58,6.3-4.55,11.92-8.67,16.93-6.13,7.44-13.89,12.51-22.97,15.64-4.41,1.44-8.92,2.45-13.54,2.73-7.24.44-14.38-.2-21.34-2.45-7.86-2.54-14.84-6.57-20.69-12.39-6.73-6.69-11.12-14.67-12.63-24.12-.02-.1,0-.2,0-.3.11-.62.66-.84,1.09-1.17,2.32-1.8,2.72-4.51,1.03-6.93-.37-.53-.88-.98-.99-1.67.23-3.25,1.05-6.4,1.59-9.6.94-5.5,1.95-10.99,2.92-16.48.16-.91.34-1.79.87-2.57,3.15-2.19,6.34-4.33,9.84-5.93Z"/>
        <path class="cls-28" d="M477.38,232.69c5.54,4.64,10.07,10.16,13.88,16.27,24.36,39.06,8.02,90.57-34.39,108.48-4.83,2.04-9.83,3.49-14.96,4.54-.09-.04-.21-.07-.26-.14-1.48-2.34-.33-7.93,1.95-9.48.93-.63,1.34-.47,1.47.68.15,1.31.04,2.63.06,3.94,0,.51-.01,1.01.12,1.51.13.49.42.79.96.8.54.01.84-.29.96-.79.13-.5.1-1,.11-1.51.04-2.93-.08-5.87.07-8.8.2-.9.26-1.82.55-2.7.48-1.34.83-2.72,1.11-4.11.17-.46.42-.87.81-1.19,2.12-1.04,4.37-1.75,6.5-2.78.42-.2.94-.44,1.37.07.49,2.04.13,4.12.23,6.17.03.65-.02,1.31.04,1.97.06.61.13,1.26.85,1.46.73.2,1.12-.27,1.4-.86.44-1.39.16-2.82.21-4.22.06-1.97-.04-3.95.05-5.92.02-.17.07-.33.13-.48,1.34-1.41,3.3-1.88,4.74-3.15,7.84-4.99,14.35-11.28,19.01-19.37,3.8-6.59,6.07-13.68,6.97-21.26.72-6.09-1.38-11.03-5.41-15.37-.22-.29-.36-.62-.39-.97-.25-3.08-1.26-5.92-2.7-8.63-.13-.29-.22-.59-.21-.92.08-.54.46-.88.8-1.27,2.36-2.68,1.86-6.01-1.16-7.85-.35-.21-.72-.39-.94-.76-.77-1.85-.9-3.85-1.25-5.79-.94-5.24-1.89-10.48-2.8-15.73-.11-.62-.45-1.28.12-1.87Z"/>
        <path class="cls-28" d="M413.45,361.87c-19.64-4.17-35.41-14.32-46.9-30.8-10.06-14.41-14.41-30.52-13.1-48.06,1.44-19.2,9.33-35.4,23.14-48.75.58-.56,1.23-1.06,1.85-1.58.51.47.27,1.05.18,1.57-1.16,6.64-2.39,13.26-3.54,19.9-.11.65-.25,1.3-.54,1.89-.21.37-.55.6-.92.75-2.91,1.18-3.61,5.78-1.18,7.91.3.26.57.57.74.94.08.23.08.47.03.7-1.52,2.77-2.65,5.68-2.95,8.86-.04.4-.19.79-.37,1.15-2.86,3.03-4.87,6.48-5.46,10.67-.51,3.65.26,7.19,1.03,10.7,2.42,11.06,7.89,20.38,16.23,28.02,3.69,3.38,7.78,6.22,12.12,8.72.6.35,1.29.63,1.5,1.41.27,2.78.06,5.57.13,8.35.02.66-.04,1.32.21,1.95.21.56.56.98,1.23.92.62-.06.83-.55.92-1.06.18-1,.05-2.02.1-3.03.08-1.81-.21-3.64.2-5.45.54-.78,1.16-.3,1.73-.08,1.95.77,3.87,1.63,5.83,2.37.68.4.95,1.07,1.18,1.77.31,1.3.65,2.59,1.1,3.86.28.87.34,1.79.54,2.68.15,2.68.04,5.36.07,8.04,0,.51-.02,1.01.02,1.52.06.71.07,1.55,1.05,1.54.97,0,1.01-.85,1.05-1.56.08-1.26.01-2.53.04-3.79.01-.65-.07-1.33.38-1.89,1.89.34,2.74,1.78,3.49,3.33.16,1.71.1,3.43.05,5.14-.02.72-.13,1.47-1.16,1.37Z"/>
        <path class="cls-18" d="M445.06,334.43c1.11-.05,2.22-.12,3.32.13.53.12,1.02.19,1.19-.5.06-1.43-.27-2.76-1.05-3.97-.55-.36-.85.09-1.15.39-.92.91-2.1,1.41-3.2,2.02-.79.44-1.59.4-2.26-.22-1.1-1.02-1.76-2.35-2.23-3.74-.27-.79.16-1.48.83-1.97.78-.57,1.62-1.05,2.46-1.51,2.18-1.16,2.21-1.37.38-3.16-.25-.25-.5-.51-.79-.71-.94-.64-1.34-.54-1.58.56-.27,1.23-.99,2.22-1.61,3.25-.61,1.02-1.57,1.59-2.7.91-1.45-.87-3.46-1.22-3.67-3.43-.03-.3.15-.58.29-.86.55-1.15,1.13-2.26,2.03-3.19.29-.3.82-.54.44-1.12-1.44-.74-2.88-1.54-4.6-1-.05,1.46.46,2.87.27,4.35-.21,1.64-.87,2.35-2.51,2.49-.5.04-1.01.03-1.52.02-2.3-.05-2.91-.73-3.07-3.01-.1-1.33.45-2.58.29-3.89-1.72-.45-3.16.27-4.6,1.06-.31.87.55,1.07.9,1.56,2.64,3.75,2.8,4.74-1.34,6.83-1.51.77-2.37.5-3.31-.94-.8-1.23-1.31-2.59-1.76-3.97-1.79.18-2.6,1.55-3.41,2.88-.17.28-.02.59.3.76,1.36.44,2.56,1.21,3.73,2,1.14.77,1.44,1.71.71,2.86-.91,1.43-1.2,3.66-3.71,3.34-.25-.03-.47-.17-.69-.3-.84-.46-1.68-.93-2.46-1.49-1.61-1.15-1.85-1.07-2.4.9-.14.49-.29.97-.3,1.48-.02.59.05,1.14.79,1.24,1.31-.1,2.63-.11,3.94-.09,1.02.02,1.75.46,2.05,1.47,1.22,4.16-.5,6.15-4.73,5.48-.4-.06-.79-.18-1.2-.18-.25,0-.51.01-.61.31.11,1.45.57,2.8,1.08,4.14.75-.03,1.07-.71,1.63-1.04,3.31-1.96,4.36-3.15,6.63,1.78.61,1.32.41,2.04-.75,2.89-.98.73-2.13,1.18-3.14,1.86-.26.23-.69.36-.53.86.92,1.01,1.83,2.01,2.75,3.02.14.1.27.09.4,0,.3-.39.19-.89.35-1.31,1.75-4.49,2.82-5.13,6.37-2.73,1.76,1.19,1.92,1.92.94,3.79-.7,1.35-1.93,2.36-2.35,3.86,0,1.42-.22,2.85.12,4.26.22.56.28,1.13.28,1.7.21-.07.44-.1.66-.05.23.05.45.09.68.13.56.07,1.12.08,1.69.09,0-.53.06-1.06.27-1.57.3-.56.18-1.17.14-1.74-.06-.91.18-1.64.92-2.19-.17-1.4-.38-2.8-.26-4.23.14-1.64.76-2.26,2.39-2.32.76-.02,1.52-.03,2.28,0,1.62.06,2.25.69,2.38,2.33.12,1.42-.11,2.82-.26,4.23.73.52.97,1.23.92,2.11-.03.59-.17,1.22.13,1.8.18.42.25.84.27,1.27.27,0,.54-.01.81-.03.2-.02.41-.04.61-.06.09,0,.17-.02.26-.03.01,0,.01,0,.02,0,0,0,.01,0,.02,0,.44-.06.88-.15,1.32-.22.03-.41.1-.81.26-1.21.34-1.42.11-2.85.11-4.28-.41-1.46-1.6-2.44-2.29-3.74-1.05-1.97-.93-2.71.93-3.9,3.3-2.1,4.22-1.84,5.94,1.67.77,1.57.55,2.51-.89,3.53-.63.45-1.3.83-1.41,1.68.02,1.5-.4,3.03.33,4.48.13.41.07.89.04,1.35.12-.04.23-.07.36-.07.24,0,.47-.02.7-.04.69-.12,1.36-.31,2.04-.48-.01-.38-.01-.77.24-1.11-.41-1.44.03-2.94-.22-4.37-.46-2.6.94-4.1,2.96-5.52,0,2.1,0,4.06,0,6.02,0,1.06.42,1.8,1.57,1.81,1.15.02,1.61-.72,1.6-1.77-.01-3.39-.04-6.78-.06-10.18-.91.01-1.05.84-1.42,1.39-1.18,1.77-1.92,1.98-3.78,1-3.49-1.85-3.71-2.72-1.53-5.97,1.09-1.62,1.97-1.76,3.73-.89,1.23.61,2.14,1.69,3.47,2.1.55-1.39,1.02-2.8,1.1-4.31-1.22-.38-2.36.3-3.58.21-2.37-.17-3.07-.8-3.09-3.12,0-.5-.01-1.01,0-1.51.05-1.7.67-2.36,2.39-2.44Z"/>
        <path class="cls-25" d="M374.15,256.19c.94-5.05,1.89-10.11,2.82-15.16.51-2.78.98-5.56,1.47-8.34,1.71-1.81,3.74-3.23,5.73-4.7-1.64,9.22-3.27,18.43-4.91,27.65-.07.4-.13.8-.2,1.2-1.63-.26-3.27-.49-4.91-.64Z"/>
        <path class="cls-19" d="M477.38,232.69c1.31,7.4,2.62,14.79,3.94,22.19.08.45.23.88.35,1.32-1.65.14-3.28.38-4.91.64-1.69-9.47-3.39-18.93-5.08-28.4-.03-.15-.02-.3-.03-.45,2.04,1.41,3.96,2.96,5.73,4.71Z"/>
        <path class="cls-13" d="M426.32,364.61c1.06,0,2.12.03,3.18-.01,0-.46,0-.91.01-1.37.58-1.15.57-2.29-.03-3.42-1.06-.52-2.11-.53-3.16.02-.55,1.13-.59,2.27,0,3.4,0,.46,0,.92.01,1.38Z"/>
        <path class="cls-13" d="M414.13,364.02s.08.02.12.04c.03.02.07.03.1.05.07.02.14.05.22.07.17.05.35.08.53.12.02,0,.05,0,.07,0,.1,0,.19.02.29.02.2,0,.39.01.59,0,.39-.01.79-.05,1.18-.09,0-.01,0-.03,0-.04.08-.54-.13-1.12.23-1.62.41-1.61.16-3.23.12-4.85-.57-1.45-1.98-1.93-3.12-2.71-.1,0-.19,0-.29,0-.03,1.86-.04,3.73-.08,5.59-.01.51.24,1.18-.65,1.26,1.11.43.67,1.39.69,2.15Z"/>
        <path class="cls-10" d="M417.47,362.58c-.44-1.7-.08-3.43-.21-5.14,1.13-.14,2.15.03,2.96.92-.11,1.51.23,3.04-.21,4.53-.85-.1-1.69-.2-2.54-.3Z"/>
        <path class="cls-34" d="M435.81,362.88c-.44-1.49-.1-3.02-.21-4.53.81-.88,1.83-1.06,2.96-.91-.01,1.63-.02,3.26-.04,4.89-.83.53-1.83.23-2.71.55Z"/>
        <path class="cls-27" d="M426.31,359.95c0,1.09,0,2.19,0,3.28-.91-.02-1.81-.03-2.72-.05-.45-1.06-.14-2.17-.2-3.26-.06-.99.74-.51,1.18-.64.73-.16,1.28.14,1.74.67Z"/>
        <path class="cls-27" d="M429.51,363.23c0-1.09,0-2.19,0-3.28.46-.53,1.02-.83,1.74-.67.84-.12,1.36.07,1.2,1.09-.14.93.21,1.9-.22,2.81-.9.02-1.81.03-2.72.05Z"/>
        <path class="cls-25" d="M372.99,266.15c-.03-.14-.07-.29-.1-.43.08-.06.18-.16.25-.14,1.53.59,3.19.29,4.74.71.91,4.8,2.31,9.44,4.72,13.71,6.89,12.17,17.36,19.76,30.68,23.46,10.29,2.86,20.62,2.62,30.87-.44.58-.17,1.17-.29,1.75-.43.03.04.1.08.09.11-.15,1.75.62,3.1,1.81,4.29-.25.67-.88.81-1.45.98-4.98,1.46-10.03,2.41-15.25,2.69-11.02.6-21.4-1.6-31.15-6.69-7.97-4.16-14.54-9.97-19.6-17.43-.43-.63-.83-1.28-1.41-1.78-2.76-5.44-5.24-10.99-6.14-17.1-.08-.52.08-1,.19-1.5Z"/>
        <path class="cls-19" d="M447.81,306.89c-1.91-.81-2.32-1.74-1.91-4.3,6.53-2.42,12.54-5.72,17.72-10.43,7.48-6.8,12.36-15.09,14.18-25.09.06-.34.02-.7.03-1.05,1.65.28,3.3-.32,4.95-.03l.25.58c-.02,2.2-.62,4.31-1.21,6.4-1.09,3.82-2.81,7.38-4.55,10.94-.33.4-.71.75-.97,1.2-5.08,8.03-11.87,14.22-20.29,18.61-2.16,1.13-4.29,2.32-6.64,3.05-.52.16-1.01.54-1.58.13Z"/>
        <path class="cls-1" d="M482.78,265.98c-1.65.29-3.29,1.17-4.95.03-3.85-1.79-4.32-5.78-1.08-9.19,1.55-.91,3.17-1.23,4.91-.64,3.85,1.38,4.91,5.91,2.05,8.81-.32.32-.62.65-.93.98Z"/>
        <path class="cls-19" d="M377.87,266.29c-1.74.52-3.39.21-4.99-.57-4.2-3.18-2.22-8.76,1.27-9.52,1.74-.58,3.37-.27,4.91.64,3.26,3.39,2.85,6.65-1.19,9.46Z"/>
        <path class="cls-1" d="M486.14,276.37c4.39,4.15,6.23,9.21,5.57,15.22-1.5,13.68-7.31,25.18-17.4,34.51-2.72,2.52-5.65,4.78-8.84,6.68-2.43.28-5.08-1.42-6.19-3.97-.8-1.83-.82-3.73-.52-5.66.08-.24.22-.44.39-.62,3.86-2.79,7.73-5.55,11.09-8.99,7.36-7.53,12.13-16.42,14.32-26.72.64-2.99.85-6.02,1.2-9.04.06-.5-.04-1.03.38-1.43Z"/>
        <path class="cls-18" d="M486.14,276.37c-.75,20.2-9.88,35.54-26.83,46.36-.74.45-1.45.26-2.17-.06-3.32-1.48-5.44-5.29-5.15-9.25.21-.78.93-1.04,1.51-1.41,7.79-4.97,14.25-11.25,18.93-19.27,1.41-2.41,2.6-4.94,3.72-7.5.32-.37.33-.96.81-1.23,1.3-3.49,3.13-6.75,4.26-10.31.75-2.34.89-4.83,1.81-7.13,1.57,2.62,2.5,5.45,2.84,8.48.05.45.17.88.26,1.32Z"/>
        <path class="cls-19" d="M459,323.02c.11,1.75-.2,3.52.47,5.25,1.08,2.78,3.27,3.97,5.98,4.51-1.42,1.12-3,1.96-4.62,2.73-.72-.4-.94-1.72-2.12-1.27-1.09.42-.76,1.49-.89,2.33-.05.3-.1.59-.38.77-2.54,1-4.97,2.26-7.59,3.03-.5-.48-.44-1.11-.44-1.71,0-1.56-.1-3.12-.13-4.68-.06-1.38-.64-2.64-.96-3.96-.93-.69-.78-1.49.1-1.91,3.37-1.62,6.7-3.29,9.99-5.07.18-.1.38-.12.59-.04Z"/>
        <path class="cls-1" d="M449.29,333.99c1.01,2.06.42,4.26.57,6.39-.18.3-.36.6-.53.9-1.69.63-3.4.87-5.17.39-.15-.04-.3-.05-.44-.12-2.66-1.33-1.29-3.75-1.39-5.68-.07-1.39,1.26-1.94,2.61-1.89,1.38.06,2.81-.31,4.15.35,0,0,.14-.23.21-.35Z"/>
        <path class="cls-19" d="M447.76,347.97c-.6.56-.91,1.32-1.34,2-.97,1.55-2.11,1.8-3.71.89-.09-.05-.18-.1-.27-.14-4.54-2.16-3.8-3.34-1.14-7.36.69-1.03,1.9-1.17,2.99-.54,1.39.8,2.9,1.45,3.92,2.78-.21.78-.08,1.63-.47,2.37Z"/>
        <path class="cls-8" d="M457.46,337.36c0-.45.04-.91.02-1.36-.04-1.08.08-2.1,1.4-2.29,1.33-.19,1.72.77,1.96,1.82,0,0,.01-.01.01-.01-.38,1.79-.1,3.59-.17,5.39-.07,1.86.09,3.72-.08,5.57-.16,1.09-.88,1.42-1.84,1.26-.96-.16-1.27-.88-1.27-1.78,0-2.87-.02-5.73-.03-8.6Z"/>
        <path class="cls-19" d="M460.61,346.47c-.02-3.33-.04-6.67-.06-10,0-.35-.02-.72.31-.96-.03,3.11-.05,6.23-.1,9.34,0,.54.14,1.11-.15,1.62Z"/>
        <path class="cls-19" d="M372.99,266.15c.54,4.34,1.71,8.52,3.51,12.49.9,1.98,1.77,3.97,2.64,5.96.72.68,1.06,1.6,1.43,2.47,2.85,6.62,7,12.31,12.08,17.37.47.47,1.03.83,1.51,1.27.44.4,1,.75.88,1.49-1.11.92-2.57,1.11-3.77,1.92-1.99,1.34-2.7,3.24-2.8,5.45-.05,1.22.52,2.21,1.51,3,5.01,4.03,10.46,7.32,16.34,9.93.93.41,1.53.26,1.99-.64.25-.5.58-.95.87-1.43.52-.86,1.23-1.31,2.26-1.17,1.9.24,3.31,1.43,4.73,2.53.57.44.7,1.35.39,1.98-.66,1.35-1.22,2.8-2.36,3.85-.58.53-1.29.87-2.07.49-1.58-.76-3.19-1.48-4.54-3.04-.39,1.48-1.42,2.68-.7,4.26-.37,1.51-.55,3.04-.52,4.61,0,.49.06,1.18-.77,1.22-2.52-.65-4.77-1.99-7.23-2.82-.46-.37-.37-.91-.41-1.4-.05-.72-.07-1.46-.93-1.72-.8-.24-1.19.34-1.58.88-.12.17-.26.31-.45.4-4.87-2.57-9.41-5.63-13.43-9.42-1.41-3.04-.42-6.46,2.38-8.27.73-.47,1.5-.87,2.34-1.09.85-.22.83-.59.26-1.12-.22-.21-.43-.44-.65-.65-9.18-8.76-14.42-19.51-16.18-32.01-.23-1.6-.49-3.21-.44-4.85.02-.62.05-1.22.39-1.76.48-3.6,1.27-7.1,3.33-10.18Z"/>
        <path class="cls-25" d="M369.65,276.33c.08,10.71,3.19,20.51,8.98,29.47,2.32,3.59,5.21,6.71,8.31,9.64,1.19,1.12,1.15,1.14-.35,1.56-3.51.99-6.02,3.66-5.09,8.16.06.29.03.61.04.91-6.33-5.5-10.9-12.25-13.97-20-2.2-5.54-3.7-11.29-3.65-17.27.04-4.92,2.03-9.14,5.72-12.47Z"/>
        <path class="cls-5" d="M405.58,340.15c.75-.95.32-2.06.33-3.08.01-1.06.13-2,.96-2.74,1.67-.68,3.41-.39,5.1-.24.84.08,1.53.85,1.58,1.82.07,1.27.06,2.54,0,3.81-.05,1.03-.69,1.62-1.67,1.92-1.82.56-3.59.08-5.38-.13-.25-.49-.37-1.07-.92-1.35Z"/>
        <path class="cls-5" d="M407.59,345.65c1.01-1.42,2.63-2.01,4.03-2.89.09-.05.18-.1.27-.13,1.61-.54,2.58.23,4.17,3.31.87,1.69.75,2.68-.59,3.55-1.1.71-2.28,1.28-3.43,1.91-1.37.61-2.16-.19-2.9-1.17-.53-.7-.73-1.53-1.07-2.31-.42-.71-.25-1.53-.48-2.28Z"/>
        <path class="cls-8" d="M394.98,335.5c.23-1.06.64-1.98,1.96-1.79,1.31.19,1.43,1.21,1.39,2.28-.02.45,0,.9.02,1.35,0,2.78-.03,5.57-.02,8.35,0,1.15-.3,2.08-1.63,2.08-1.34,0-1.62-.98-1.63-2.1-.03-3.39-.06-6.78-.09-10.17Z"/>
        <path class="cls-18" d="M408.06,347.93c.39.57.81,1.12,1.15,1.73.62,1.13,1.44,1.88,2.83,1.75-.2.2-.41.4-.61.6-.58,1.51-.13,3.07-.26,4.61-.05.55,0,1.12-.02,1.67-.04,1.01-.54,1.64-1.59,1.64-1.06,0-1.57-.65-1.57-1.66,0-3.45.04-6.89.06-10.34Z"/>
        <path class="cls-28" d="M395.01,307.14c-2.91-2.73-5.77-5.51-8.2-8.7-3.22-4.25-5.79-8.86-7.68-13.84.68-.04.76.59,1.02.97,8.73,12.96,20.97,20.61,36.14,23.67,10.17,2.05,20.24,1.41,30.14-1.77.48-.15.97-.25,1.37-.59,7.59-2.5,14.22-6.61,20.05-12.05,3.17-2.96,5.84-6.34,8.23-9.95.29-.07.44,0,.32.33-3.11,8.41-8.27,15.38-14.94,21.29-2.85,2.53-6,4.65-9.18,6.73-1.21,1.38-2.94,1.97-4.49,2.79-2.1,1.12-4.29,2.06-6.5,2.96-1.06.43-2.07.5-3.03-.21-.74-.55-1.73-.6-2.44-1.2-1.48-.6-3-1.04-4.59-1.22-1.21.25-2.35-.33-3.57-.3-1.06.02-2.04.62-3.11.3-1.59.18-3.11.62-4.58,1.22-1.4.6-2.64,1.59-4.21,1.8-3.38-.95-6.45-2.61-9.53-4.23-3.59-1.88-6.94-4.14-10.11-6.67-.47-.37-1.04-.66-1.13-1.35Z"/>
        <path class="cls-1" d="M395.01,307.14c6.23,5.14,13.19,9.03,20.69,11.98-.02.86-.67,1.28-1.22,1.78-1.31.85-2.74,1.6-3.04,3.37-1.44.3-2.13,1.4-2.68,2.61-.62,1.36-1.36,1.59-2.8.92-5.61-2.62-10.9-5.71-15.76-9.57-2.72-2.16-2.69-6.84.18-8.92,1.41-1.02,2.92-1.79,4.63-2.15Z"/>
        <path class="cls-1" d="M435.83,317.59c.79-.06,1.56.12,2.14.6,1.29,1.04,2.5.8,3.9.19,3.57-1.52,6.96-3.38,10.41-5.13.06,3.89,1.21,7.17,4.96,9.05.66.33,1.34.45,2.06.43-.1.1-.2.19-.31.29-3.11,2.03-6.46,3.6-9.83,5.12-1.03.46-1.4.89-.84,1.9-1.03,1.39-2.6,2.04-4.03,2.87-1.22.71-2.46.31-3.37-1.04-.57-.84-1.08-1.72-1.5-2.64-.51-1.14-.36-2.2.79-2.91,1.36-.84,2.62-1.89,4.42-2.21-.84-1.36-1.8-2.38-3.26-3.18.12,2.03-1.1,3.3-1.96,4.69-.65,1.06-1.77,1.35-2.93.71-1.02-.56-2.04-1.14-2.96-1.84-.98-.75-1.34-1.72-.65-2.93.83-1.44,1.4-3.06,2.95-3.96Z"/>
        <path class="cls-15" d="M434.36,326.32c4.01,2.18,6.25,5.52,6.68,10.07.45,1.26-.18,1.64-1.32,1.67-1.62.04-3.23-.07-4.84.08-.18.02-.35,0-.52-.05-1.15-.91-1.59-2.3-2.29-3.5-.71-1.23-1.58-1.78-3.02-1.75-1.48.03-3.01.35-4.46-.29-.11-.14-.13-.3-.04-.46,1.44-.69,2.97-.33,4.46-.32,1.33.01,2.12-.48,2.8-1.59.81-1.31,1.24-2.89,2.56-3.85Z"/>
        <path class="cls-29" d="M434.32,337.95c.1,0,.21-.02.31-.02,1.9-.29,3.82-.11,5.73-.11,1.33,0,.69,1.02.71,1.67-.6,4.46-2.83,7.81-6.77,10-1.36-1.87-2.68-3.76-3.3-6.04.85-1.99,1.63-4.01,3.31-5.5Z"/>
        <path class="cls-29" d="M434.36,326.32c-.98,1.74-1.99,3.47-2.93,5.23-.34.63-.85.59-1.4.59-1.81,0-3.62.02-5.43.03-.64-.1-.87-.64-1.15-1.11-.88-1.47-1.72-2.97-2.59-4.44,4.45-2.68,8.95-2.88,13.51-.3Z"/>
        <path class="cls-26" d="M421.22,349.22c-3.86-2.1-5.9-5.41-6.46-9.71-.21-1.79-.09-1.96,1.62-1.98,1.56-.02,3.11-.09,4.67.06.6.12.98.54,1.25,1.03.87,1.54,1.94,2.98,2.5,4.69-.63,2.31-1.63,4.4-3.57,5.92Z"/>
        <path class="cls-22" d="M421.22,349.22c1.33-1.84,2.59-3.71,3.36-5.86,2.22-.62,4.44-.69,6.66.03.43,1.62,1.52,2.89,2.27,4.33.3.57.71,1.09.78,1.76-4.41,2.29-8.77,2.37-13.08-.27Z"/>
        <path class="cls-22" d="M420.85,326.62c1.53.92,1.75,2.74,2.77,4.02.37.47.65,1.02.97,1.53-.01.1-.01.2,0,.3-.74,2.07-1.32,4.26-3.58,5.32-1.72,0-3.44-.06-5.15.02-1.2.05-1.41-.46-1.11-1.46.42-4.26,2.53-7.45,6.1-9.73Z"/>
        <path class="cls-1" d="M424.57,316.37c2.23-.96,4.45-.96,6.68,0,.84,1.5.6,3.14.61,4.75,0,.15-.03.3-.07.45-.49,1.81-2.15,2.43-5.42,2.03-1.52-.19-2.37-1.12-2.4-2.78-.03-1.51-.2-3.05.61-4.45Z"/>
        <path class="cls-19" d="M420.22,358.35c-.99-.31-1.97-.61-2.96-.92-.82-.93-2.21-1.21-2.79-2.41-.26-2.12,1.03-3.65,2.13-5.18.61-.85,1.71-.75,2.68-.48.19.05.37.17.54.27,4.32,2.44,4.54,4.35.93,8.02-.22.22-.46.39-.53.7Z"/>
        <path class="cls-19" d="M438.56,357.44c-.99.31-1.97.61-2.96.92-1.09-1.26-1.96-2.66-2.74-4.12-.7-1.29-.37-2.33.79-3.15.37-.26.76-.5,1.16-.72,3.39-1.94,5.72-.83,6.51,3.07.28,1.36-.25,2.36-1.42,3.05-.47.28-1.05.41-1.34.95Z"/>
        <path class="cls-19" d="M414.47,320.9c.04-.85.88-1.14,1.22-1.78,1.06-.06,1.77-.88,2.69-1.24.51-.2,1.04-.37,1.6-.29,1.68,1.05,2.37,2.81,3.19,4.48.04.09.09.19.1.28.09,1.58-.97,2.37-2.17,2.97-1.4.69-2.88,2.34-4.43.55-1.19-1.37-2.39-2.91-2.19-4.97Z"/>
        <path class="cls-19" d="M431.25,359.28c-.53.35-1.1.62-1.74.67-1.07,0-2.14,0-3.2,0-.65-.05-1.21-.31-1.74-.67-1.01-1.7-.7-3.56-.46-5.34.14-1.04.96-1.75,2.2-1.69,1.06.05,2.13.05,3.2,0,1.24-.05,2.06.66,2.2,1.69.24,1.78.56,3.64-.46,5.34Z"/>
        <path class="cls-16" d="M414.75,336.35c-.07,1.06.45,1.35,1.47,1.31,1.76-.08,3.53-.01,5.3-.01.06.1.06.2-.02.29-1.71,0-3.42.1-5.12-.03-1.29-.09-1.72.42-1.62,1.6-.37-1.05-.37-2.1-.01-3.16Z"/>
        <path class="cls-21" d="M441.07,339.49c.11-1.2-.36-1.67-1.63-1.57-1.6.12-3.21.02-4.81.01,1.66-.62,3.39-.21,5.08-.26.95-.03,1.45-.26,1.33-1.28.42,1.03.43,2.06.04,3.1Z"/>
        <path class="cls-20" d="M476.41,285.22c-.11-.11-.21-.22-.32-.33.16-.42.25-.91.87-.88-.18.4-.37.81-.55,1.21Z"/>
        <path class="cls-18" d="M480.98,262.64c-1.66.01-2.71-.9-2.75-2.38-.04-1.45,1.19-2.76,2.63-2.81,1.55-.05,2.56,1.02,2.56,2.73,0,1.53-.91,2.45-2.44,2.46Z"/>
        <path class="cls-1" d="M376.72,262.63c-1.55,0-2.46-.88-2.48-2.4-.02-1.75.94-2.81,2.5-2.78,1.44.03,2.7,1.32,2.69,2.76-.01,1.5-1.04,2.41-2.7,2.42Z"/>
        <path class="cls-23" d="M421.5,337.94c.03-.1.03-.19.02-.29,1.03-1.73,2.05-3.45,3.08-5.18,1.82,0,3.63,0,5.45-.04.78-.02,1.32.19,1.72.91.86,1.53,1.87,2.98,2.55,4.6-1.02,1.81-2.04,3.63-3.07,5.44-2.22-.01-4.44-.02-6.66-.03-1.03-1.81-2.06-3.61-3.08-5.42Z"/>
      </g>
    </g>
  </g>
</svg>