<?xml version="1.0" encoding="UTF-8"?>
<svg id="Layer_2" data-name="Layer 2" xmlns="http://www.w3.org/2000/svg" viewBox="0 0 377.49 419.83">
  <defs>
    <style>
      .cls-1 {
        fill: #b4b581;
      }

      .cls-1, .cls-2, .cls-3, .cls-4, .cls-5, .cls-6, .cls-7, .cls-8 {
        stroke-width: 0px;
      }

      .cls-2 {
        fill: #000;
      }

      .cls-3 {
        fill: #f9d0a1;
      }

      .cls-4 {
        fill: #161616;
      }

      .cls-5 {
        fill: #f8d0a1;
      }

      .cls-6 {
        fill: none;
      }

      .cls-7 {
        fill: #f8cfa1;
      }

      .cls-8 {
        fill: #7291ca;
      }
    </style>
  </defs>
  <g id="Layer_1-2" data-name="Layer 1">
    <g>
      <path class="cls-6" d="M264.15,0c11.79,4.88,14.31,9.53,12.37,22.85-.41,2.83-1.93,6.26-.86,8.35,1.11,2.16,5.12,1.74,7.84,2.52,9.57,2.71,17.28,8.57,24.89,14.57,2.06,1.62,3.1,2.17,4.6-.77,2.03-3.98,5.82-6.08,10.29-6.53,13.45-1.35,26.9-2.69,40.37-3.85,6.71-.58,12.78,4.71,13.64,11.51.17,1.35.16,2.73.16,4.09,0,35.93-.02,71.86.04,107.79,0,4.24-.64,8.14-3.59,11.39-3.07,3.39-6.87,4.78-11.41,4.21-12.05-1.5-24.12-2.9-36.16-4.54-11.07-1.51-14.41-4.94-15.81-15.86-6.22,3.51-12.39,6.95-18.91,9.68-2.97,1.24-.5,2.39.16,3.19,5.58,6.72,11.2,13.42,16.07,20.69,21.84,32.56,25.52,67.1,11.12,103.55-.55,1.39-1.31,2.7-1.99,4.03-.68,1.31-1.39,2.61-2.3,4.32,5.3-.31,10.24-.92,15.13.38,2.66.71,5.18,1.65,7.49,3.14,8.8,5.68,10.05,15.35,2.98,23.03-2.24,2.44-4.92,4.31-7.74,5.99-15.92,9.49-31.76,19.13-47.79,28.43-7.8,4.52-16.57,6.91-25.03,9.9-9.76,3.45-19.76,6.22-29.42,9.91-14.68,5.61-30.05,4.91-45.26,5.65-21.01,1.02-42.04,1.77-63.06,2.51-2.18.08-2.86,1.11-3.85,2.73-7.63,12.52-17.94,21.96-32.25,26.16-7.94,2.33-12.93-.32-16.03-7.87-11-26.83-21.95-53.68-32.86-80.55-2.82-6.96-1.69-12.17,4.55-16,13.94-8.54,28.95-10.71,44.67-5.55,1.7.56,2.6.45,3.9-.62,4.75-3.9,9.52-7.77,14.43-11.46,12.37-9.28,25.96-15.47,41.98-15.92-.99-4.75-2.13-9.3-2.88-13.91-4.01-24.68,1.58-47.33,14.38-68.54,6.92-11.47,14.6-22.39,22.73-33.01,1.49-1.94,2.49-3.24.25-5.72-3.23-3.57-4.31-8.17-3.06-13.01.47-1.81.09-2.82-1.55-4.01-7.84-5.69-9.9-14.54-5.46-23.17.95-1.85,1.32-2.95-.17-4.9-6.91-9.02-5.24-20.96,3.67-28,1.19-.94,2.16-1.36,1.32-3.45-5.73-14.32,1.55-27.39,17.27-30.59-2.04-3.5-3.99-6.86-5.97-10.21-3.54-5.99-7.14-11.93-10.62-17.95-5.03-8.7-1.35-15.91,8.72-17.26,8.86-1.19,17.41.64,25.85,2.92,4.46,1.21,8.76,2.96,13.16,4.4,1.05.34,2.03,1.32,3.29,0,7.57-7.97,17.19-12.12,27.66-14.64h9.02Z"/>
      <path class="cls-6" d="M158.82,163.87c-.2,43.89-35.85,79.48-79.51,79.39C35.32,243.16-.22,207.36,0,163.35c.22-44.15,35.81-79.29,80.04-79.02,43.61.26,78.99,35.98,78.78,79.54Z"/>
      <path class="cls-1" d="M202.5,321.93c7.69-3.41,13.17-8.08,14.93-15.96,2.39-10.67-4.85-20-17-21.43-11.92-1.41-23.89-2.43-35.87-3.24-3.2-.22-4.49-1.38-5.33-4.21-6.72-22.67-4.77-44.41,6.39-65.36,7.8-14.64,17.57-27.91,27.53-41.09,1.13-1.49,2.28-1.84,4.14-1.69,19.03,1.49,37.99,3.99,57.12,4.18,6.58.06,13.08-.64,19.5-2.02,1.44-.31,2.5-.45,3.61.83,12.97,14.99,26.25,29.95,32.11,49.37,7.7,25.51,7.28,50.65-6.91,74.24-5.53,9.19-12.7,16.52-23.46,19.85-6.35,1.97-12.67,4.43-18.51,7.58-11.24,6.04-23.12,5.19-35.12,4.55-7.86-.42-15.29-2.3-23.13-5.6Z"/>
      <path class="cls-3" d="M310.88,102.9c0,11.47-.02,22.94.02,34.4,0,1.72-.19,3-1.9,4.07-13.96,8.75-28.48,16.11-45.13,18.1-11.74,1.41-23.44.27-35.14-.71-8.7-.73-17.4-1.46-26.11-2.1-3.75-.28-7.29-1.08-10.29-3.44-1.19-.94-2.22-2.12-1.71-3.85.44-1.51,1.71-1.96,3.09-2.33,4.85-1.29,6.95-3.74,6.41-7.38-.52-3.53-3.05-5.25-7.83-5.53-2.17-.13-4.37-.34-6.46-.91-2.54-.69-4.56-2.23-4.02-5.26.53-2.96,1.87-5.48,5.31-5.87,1.48-.17,2.98.02,4.41-.64,2.83-1.3,4.11-3.48,3.88-6.53-.23-3.13-2.11-4.98-5-5.72-1.29-.33-2.71-.17-4.07-.22-4.23-.16-6.61-2.31-6.73-6.08-.12-3.88,2.36-6.64,6.53-6.86,3.68-.19,7.37-.15,11.05-.02,1.96.07,2.76-.56,2.54-2.54-.12-1.08,0-2.18-.02-3.27-.05-2.18.47-4.64-.38-6.45-.91-1.95-3.7-.77-5.62-1.4-5.04-1.65-7.44-4.41-6.98-8.67.54-4.96,3.85-7.92,9.16-7.98,13.37-.17,26.76.73,40.09-.92,9.25-1.14,18.29-2.97,26.43-7.86,4.06-2.44,7.58-5.5,9.44-9.91.99-2.34,2.37-2.21,4.19-1.76,6.56,1.61,12.57,4.36,17.99,8.46,4.79,3.62,9.67,7.1,14.65,10.45,1.7,1.14,2.22,2.37,2.21,4.34-.09,11.47-.04,22.93-.04,34.4Z"/>
      <path class="cls-3" d="M162.77,379.94c-16.18.63-32.36,1.21-48.53,1.95-2.56.12-3.93-.32-4.99-2.97-7.32-18.32-14.85-36.56-22.32-54.83-.61-1.49-1.58-2.83.33-4.31,9.69-7.53,18.8-15.85,29.77-21.6,9.74-5.11,20.16-7.46,31.11-7.65,17.58-.3,35,1.66,52.41,3.79,2.93.36,6.01,1.12,6.67,4.35.72,3.54-1.86,5.78-4.6,7.54-3.26,2.09-6.9,2.77-10.73,2.67-13.79-.33-27.58-.66-41.36-.93-5.45-.11-8.41,1.96-8.99,6.06-.59,4.15,1.69,6.95,6.93,8.34,21.53,5.74,42.93,12.03,64.64,16.97,14.92,3.4,30.42,4.28,45.57,1.64,7.64-1.33,14.81-5.46,22.14-8.43,14.55-5.88,29.09-11.8,43.6-17.78,5.4-2.22,10.93-3.22,16.68-2.06,1.99.4,4.6.87,5.13,3.09.59,2.44-1.96,3.53-3.65,4.56-10.47,6.4-21.36,12.17-31.48,19.07-28.24,19.23-60.71,27.8-92.73,37.52-8.35,2.53-17.29,1.3-25.95,1.75-9.86.51-19.77.12-29.65.12,0,.38,0,.76,0,1.14Z"/>
      <path class="cls-8" d="M364.44,106.75c0,17.62-.03,35.24.03,52.85,0,2.35-.06,3.81-3.24,3.37-10.94-1.51-21.92-2.82-32.9-4.03-3.21-.35-4.49-1.29-4.47-4.96.18-31.96.13-63.92,0-95.87-.01-3.18.67-4.54,4.14-4.79,11.16-.8,22.31-1.83,33.43-3.06,3.51-.39,3,1.61,3,3.64,0,17.62,0,35.24,0,52.85Z"/>
      <path class="cls-8" d="M100.39,394.69c.28,1.25-.42,1.86-1.14,2.4-7.39,5.59-14.39,11.74-22.77,15.95-2.99,1.5-4.32.8-5.57-2.29-11.17-27.74-22.44-55.44-33.85-83.08-1.16-2.81-.35-3.82,1.99-4.84,8.78-3.82,18.26-4.42,27.51-6.09,1.81-.33,2.31.8,2.85,2.12,10.16,24.92,20.34,49.83,30.52,74.75.17.41.34.82.45,1.08Z"/>
      <path class="cls-1" d="M189.36,19.84c11.74.3,22.63,3.52,33.14,8.2,7.85,3.5,7.98,3.13,13.38-3.4,6.28-7.59,14.86-11.26,24.77-11.56,2.55-.08,3.94,1.21,3.55,3.78-1.16,7.81-2.21,15.66-3.76,23.4-.72,3.58-4.02,5.38-7.14,6.87-7.26,3.47-15.1,4.62-22.99,5.2-6.39.47-12.82.33-19.23.46-1.5.03-2.84.05-3.82-1.62-5.83-10.01-11.79-19.94-17.68-29.92-.19-.32-.13-.78-.22-1.41Z"/>
      <path class="cls-3" d="M79.25,97.35c36.72-.06,66.55,29.58,66.63,66.23.09,36.53-29.84,66.56-66.39,66.62-36.65.06-66.43-29.66-66.51-66.38-.08-36.78,29.46-66.41,66.27-66.48Z"/>
      <path class="cls-2" d="M119.65,129.94c-.17,2.15-1.13,3.86-2.65,5.37-22.03,22.01-44.04,44.05-66.09,66.04-3.33,3.32-6.93,3.49-9.78.74-2.74-2.64-2.65-6.63.5-9.79,22.08-22.15,44.22-44.24,66.32-66.38,2.28-2.28,4.87-3,7.82-1.8,2.52,1.03,3.58,3.22,3.87,5.83Z"/>
      <path class="cls-2" d="M54.11,117.97c11.94.07,21.55,9.7,21.52,21.58-.03,12.16-9.7,21.91-21.71,21.91-12.15,0-21.91-10.01-21.76-22.31.14-11.78,9.96-21.25,21.96-21.18Z"/>
      <path class="cls-2" d="M126.5,187.69c-.06,12.22-9.81,21.95-21.86,21.83-12.02-.12-21.73-10.08-21.62-22.17.11-11.77,10.08-21.47,21.96-21.37,11.98.1,21.58,9.78,21.52,21.71Z"/>
      <path class="cls-5" d="M62.58,139.72c-.05,4.96-3.99,8.78-8.94,8.66-4.7-.12-8.42-3.99-8.42-8.77,0-4.92,3.98-8.74,8.95-8.6,4.85.14,8.46,3.87,8.41,8.71Z"/>
      <path class="cls-7" d="M113.46,187.61c.03,4.95-3.9,8.95-8.75,8.92-4.65-.04-8.53-3.95-8.62-8.69-.09-4.82,4.04-9,8.8-8.9,4.73.1,8.54,3.95,8.57,8.67Z"/>
    </g>
    <path class="cls-4" d="M266.08,197.39c1.14.65,1.43,1.68,1.4,2.92-.04,1.73,0,3.46-.01,5.19,0,2-.74,2.73-2.75,2.74-4.45,0-8.9,0-13.34,0-.33,0-.65,0-.96,0-.1.3.1.43.21.59,1.68,2.39,2.86,5,3.48,7.85.15.7.44.93,1.19.92,3.19-.05,6.39-.03,9.58-.02,2.03,0,2.69.66,2.7,2.66,0,1.88.01,3.76,0,5.64-.02,1.84-.71,2.52-2.56,2.52-3.16,0-6.33.02-9.49-.01-.69,0-1,.09-1.16.9-1.92,9.68-7.85,15.88-16.9,19.35-2.95,1.13-6.02,1.75-9.25,2.19,1.5,1.65,2.92,3.2,4.33,4.77,7.71,8.56,15.08,17.41,22.4,26.3.99,1.2,1.96,2.41,2.96,3.59.61.72.89,1.46.47,2.37-.43.93-1.15,1.26-2.16,1.25-3.94-.02-7.88-.05-11.82.01-1.2.02-2-.4-2.75-1.29-5.05-6-10.13-11.98-15.23-17.95-5.28-6.17-10.69-12.22-16.24-18.15-.79-.84-1.16-1.73-1.13-2.88.05-2.3,0-4.6.02-6.89,0-1.88.79-2.64,2.66-2.66,3.58-.05,7.16.16,10.74-.18,4.29-.4,8.41-1.33,11.94-3.99,2.05-1.54,3.49-3.54,4.32-5.99.23-.67.09-.78-.57-.78-8.72.02-17.43.01-26.15.01-.36,0-.72,0-1.07-.03-1.01-.09-1.73-.75-1.79-1.77-.13-2.38-.13-4.77,0-7.16.06-1.09.73-1.7,1.83-1.82.35-.04.71-.05,1.07-.05,8.33,0,16.66,0,24.98,0,.29,0,.58,0,1,0-1.07-2.07-2.56-3.54-4.47-4.61-3.5-1.96-7.34-2.55-11.26-2.65-3.49-.09-6.98-.03-10.48-.04-1.92,0-2.73-.79-2.74-2.69,0-2.54.02-5.07-.01-7.61-.02-1.2.39-2.07,1.51-2.57h55.53Z"/>
  </g>
</svg>