<?xml version="1.0" encoding="UTF-8"?>
<svg id="Layer_2" data-name="Layer 2" xmlns="http://www.w3.org/2000/svg" viewBox="0 0 619.16 626.82">
  <defs>
    <style>
      .cls-1 {
        fill: #656666;
      }

      .cls-1, .cls-2, .cls-3, .cls-4, .cls-5, .cls-6, .cls-7, .cls-8, .cls-9, .cls-10, .cls-11, .cls-12, .cls-13, .cls-14, .cls-15, .cls-16, .cls-17, .cls-18, .cls-19, .cls-20 {
        stroke-width: 0px;
      }

      .cls-2 {
        fill: #000;
      }

      .cls-3 {
        fill: #f9f9f9;
      }

      .cls-4 {
        fill: #737474;
      }

      .cls-5 {
        fill: #777879;
      }

      .cls-6 {
        fill: #808081;
      }

      .cls-7 {
        fill: silver;
      }

      .cls-8 {
        fill: #e6e6e6;
      }

      .cls-9 {
        fill: #555758;
      }

      .cls-10 {
        fill: #ddd;
      }

      .cls-11 {
        fill: #7a7b7b;
      }

      .cls-12 {
        fill: #303132;
      }

      .cls-13 {
        fill: #f6f6f6;
      }

      .cls-14 {
        fill: #ededed;
      }

      .cls-15 {
        fill: #272627;
      }

      .cls-16 {
        fill: #757576;
      }

      .cls-17 {
        fill: #fff;
      }

      .cls-18 {
        fill: #b8b9b9;
      }

      .cls-19 {
        fill: #6d6d6d;
      }

      .cls-20 {
        fill: #fefefe;
      }
    </style>
  </defs>
  <g id="Layer_1-2" data-name="Layer 1">
    <g>
      <g>
        <path class="cls-2" d="M0,64.24S1.41,16.94,64.94,0h259.76s54.35,12.71,58.59,64.24c4.24,51.53,3.53,381.88,3.53,381.88v142.59s-9.88,38.12-59.29,38.12H57.88s-49.41-14.82-56.82-56.82L0,64.24Z"/>
        <path class="cls-17" d="M27.53,335.29V87.01c0-14.69,4.84-29.08,14.22-40.38,6.41-7.73,15.04-16.4,26.02-16.4h50.12s7.06,28.35,26.82,28.35h93.92c5.99,0,11.92-1.62,16.9-4.96,6-4.01,12-11.1,12-23.4h52.01c3.23,0,6.39.83,9.2,2.42,9.17,5.18,28.44,18.7,28.44,40.76v477.18s-2.47,45.88-32.82,45.88H64.59s-35.29-6.35-35.29-38.12-1.76-223.06-1.76-223.06Z"/>
      </g>
      <g>
        <g>
          <path class="cls-14" d="M484.99,508.63c-3.24,5.25-9.02,7.03-13.95,9.78-29.62,16.52-61.61,25.26-95.38,26.16-27.76.74-54.89-3.6-80.93-14.11-11.91-4.81-23.54-9.93-34.36-16.86-2.25-1.44-4.56-2.72-5.48-5.46,1.55-3.85,5.47-3.44,8.46-4.5,38.86-13.7,61.71-41.13,67.33-81.56,3.51-25.23-3.88-48.52-19.39-69.06-32.72-43.32-95.91-50.39-137.92-15.47-3.21,2.67-5.99,6.38-10.73,6.78-1.72-50.66,13.07-95.85,44.6-135.63,23.49-29.63,53.07-50.88,88.1-64.79,1.08-.43,2.32-.45,3.49-.66.01,4.03-2.96,6.49-5.14,9.22-24.4,30.59-29.92,64.63-14.34,100.09,15.67,35.65,44.3,55.66,83.9,57.42,40.05,1.78,69.97-16.51,89.06-50.61,20.1-35.9,14.05-78.39-13.12-109.36-2.16-2.46-5.36-4.31-5.21-8.25,8.11-.46,14.84,3.86,21.63,7.03,54.19,25.35,91.47,66.24,111.06,122.84,8.63,24.92,11.87,50.7,10.69,77.03-3.98.11-5.8-3.13-8.1-5.42-21.52-21.47-47.87-30.36-77.58-27.43-39.94,3.94-71.52,31.24-81.88,67.43-10.67,37.28-2.34,70.43,25.32,97.94,11.95,11.89,26.77,19.47,43.13,23.82,2.55.68,5.28.96,6.75,3.61Z"/>
          <path class="cls-16" d="M433.97,141.77c14.43,14.3,24.72,30.94,29.07,50.98,6.98,32.13-.17,60.96-21.78,85.48-30.53,34.66-77.56,43.76-117.66,23.8-48.39-24.09-67.94-82.78-44.08-131.24,5.06-10.28,12.37-18.71,19.3-27.53,16.58-13.97,34.87-23.81,56.94-26.44,25.32-3.02,47.79,3.73,68.63,17.46,3.38,2.22,6.4,4.98,9.58,7.49Z"/>
          <path class="cls-4" d="M162.63,344.35c15.35-14.19,32.47-25.2,53.43-28.99,26.97-4.87,52.13.11,74.62,15.69,24.78,17.17,39.15,41.35,41.81,71.2,2.93,32.97-8.51,61-33.45,83.34-12.8,11.46-28.11,17.66-44.16,22.56-17.74,2.7-35.31,2.44-52.28-4.04-35.93-13.72-58.1-39.13-64.52-77.37-4.89-29.09,2.84-54.89,21.31-77.68,1.2-1.47,2.16-3.14,3.23-4.71Z"/>
          <path class="cls-4" d="M484.99,508.63c-20.74-4.8-39.38-13.56-54.15-29.27-19.07-20.29-28.56-44.34-26.81-72.28,2.7-43.21,25.24-72.85,65.11-87.8,35.29-13.24,75.94-4.38,103,24.48,1.63,1.74,3.47,3.29,5.21,4.93,14.45,18.17,22.9,39.04,22.76,62.04-.24,40.63-23.22,76.44-62.41,92.1-16.99,6.78-34.63,8.49-52.71,5.82Z"/>
          <path class="cls-14" d="M529.21,530.73c4.3-1.74,9.12-2.45,8.57-8.46-.06-.67,1.12-1.65,2.2-1.21.53.22,1.26,1.04,1.19,1.47-1.07,6.46,3.89,6.36,9.83,7.19-5.33,2.35-11.29,2.23-9.9,8.86.06.28-1.17,1.23-1.47,1.1-.8-.33-2.04-1.14-2-1.68.43-5.86-3.83-6.44-8.41-7.27Z"/>
          <path class="cls-14" d="M127.96,257.08c.34.61,1.06,1.29.96,1.81-1.04,5.25,7.16,2.89,6.03,6.71-.8,2.7-6.95,1.65-6.4,6.72-.95-.35-1.72-.59-1.71-.64,1.34-5.68-8.79-3.07-6.27-7.75,1.17-2.16,7.51-1.26,7.39-6.85Z"/>
          <path class="cls-14" d="M547.47,204.74c-1.92-3.43-1.76-7.85-7.05-7.04-.47.07-1.54-1.2-1.64-1.95-.19-1.31,1.13-1.43,2-1.26,4.73.88,4.77-3.31,6.88-8.31.36,6.91,3.69,8.65,9.21,9.82-4.89,2.26-10,2.57-9.4,8.75Z"/>
          <path class="cls-14" d="M252.42,141.74c2.71-3.3,6.81-3.68,5.96-8.89,4.37,2.38,4.61,7.09,9.38,6.93-2.07,3.79-6.78,4.02-6.63,8.63-4.02-1.62-3.55-7.16-8.71-6.67Z"/>
          <path class="cls-14" d="M338.13,577.21c-5.85-4.73-2.62,10.18-9.28,3.81-5.45-5.21-.11-7.44,1.79-11.43,2.58,2.61,3.49,6.21,7.48,7.62Z"/>
          <path class="cls-14" d="M151.83,530.31c-3.68,1.07-5.56,3.15-6.22,7.53-2.55-3.22-2.55-7.58-7.7-6.8,2.9-2.49,6.69-2.8,5.57-8.88,3,4.32,4.33,7.51,8.35,8.15Z"/>
          <path class="cls-14" d="M614.53,319.91c1.83,1.6,4.79,2.03,4.63,4.47-.17,2.58-2.78,4.2-5.05,3.93-1.76-.21-4.85-1.57-4.28-3.9.44-1.77,3.05-3.02,4.7-4.51Z"/>
          <path class="cls-11" d="M255.93,216.6c-.64,7.24-6.3,10.28-9.56,14.5-15.45,20.05-24.56,42.45-27.65,67.46-.23,1.85.66,5.41-2.23,5.01-2.92-.4-1.03-3.34-.84-5.37,2.69-28.61,14.61-53.18,32.74-75.04,1.38-1.66,2.96-3.17,4.52-4.66.62-.59,1.47-.95,3.01-1.89Z"/>
          <path class="cls-11" d="M477.06,222.11c22.56,14.84,44.52,65.23,40.22,83.18-2.55-9.77-4.61-19.71-7.79-29.28-3.4-10.2-8.57-19.68-14.17-28.9-5.38-8.87-12.73-16.28-18.27-25Z"/>
          <path class="cls-6" d="M405.36,474.97c-4.06,5.67-10.38,4.92-15.5,5.74-17.81,2.86-35.69,2.58-53.42-1.17-1.62-.34-3.21-.85-4.82-1.27-1.37-.37-3.16-.59-2.54-2.59.67-2.19,2.25-.78,3.51-.52,23.47,4.87,46.88,5.15,70.23-.81.58-.15,1.32.3,2.55.62Z"/>
          <path class="cls-20" d="M360.59,119.93c38.62-1.92,68.54,13.68,88.2,46.53,18.96,31.68,18.78,64.85-.47,96.33-20.44,33.44-51.06,48.8-90.62,44.98-42.14-10.11-71.39-47.31-71.48-90.84-.02-10.82-.44-21.64,3.06-32.15,11.63-34.97,36.48-55.37,71.31-64.84Z"/>
          <path class="cls-10" d="M360.59,119.93c-12.78,5.99-26.03,10.98-37.27,19.98-21.98,17.61-34.94,39.4-35.22,68.37-.23,24.34,5.08,46.52,20.23,66.01,11.28,14.52,26.18,23.78,42.88,30.63,2.18.89,4.75.94,6.48,2.86-16.6-.36-31.31-6.51-44.43-16-20.69-14.97-34.53-34.74-38.95-60.37-4.83-28.04,1.16-53.33,18.95-75.78,17.25-21.77,39.69-33.56,67.31-35.69Z"/>
          <path class="cls-12" d="M234.7,316.61c31.44.58,57.1,12.97,76.14,38.06,13.64,17.97,20.21,38.51,19.27,61.08-1.95,47.16-40.35,86.15-84.42,90.05-6.09.54-12.12,3.05-18.2.04-69.27-14.87-91.14-95.25-61.81-143.54,13.91-22.9,34.65-37.54,60.51-44.83,2.8-.79,5.78.46,8.5-.87Z"/>
          <path class="cls-9" d="M234.7,316.61c-20.94,5.01-39.01,14.97-54.36,30.21-19.42,19.28-26.8,42.88-24.96,69.39,1.8,25.94,10.79,49.05,31.1,66.59,9.32,8.05,19.58,14.59,31.19,18.95,3.31,1.24,7.1,1.42,9.82,4.09-32.33-1.63-55.84-17.95-73.39-44.09-10.47-15.61-15.02-33.18-14.68-51.67.41-22.46,8.14-42.49,22.93-59.72,19.06-22.2,43.13-33.4,72.34-33.75Z"/>
          <path class="cls-20" d="M503.13,507.19c-57.21-1.13-97.03-43.87-97.03-95.55,0-53.6,43.92-98.1,101.13-95.08,49.3,2.6,90.63,42.37,90.14,95.63-.48,52.87-41.15,93.12-94.25,95Z"/>
          <path class="cls-1" d="M397.98,247.24c-7.71,0-15.43.12-23.14-.05-3.14-.07-4.27,1.01-4.17,4.15.18,5.53.07,11.07.04,16.61,0,1.64.37,3.45-1.23,4.66-3.88,2.91-17.15-.37-19.42-4.78-4.49-8.72-14.69-13.97-24.4-12.21-3.28.59-5.02-.93-6.45-3.29-2.95-4.89-5.44-10.1-8.76-14.72-4.01-5.58-5.81-10.04.26-15.86,4.15-3.98,2.79-17.93-1.53-22.17-3.72-3.65-3.51-6.56-.79-10.45,2.72-3.9,5.07-8.07,7.4-12.22,3.19-5.7,5.66-10.02,14.53-8.45,6.98,1.24,14.47-3.87,18.57-10.75,3.72-6.24,13.1-10.08,19.56-7.2,1.49.66,2.23,1.74,2.25,3.34.02,1.93.03,3.85.03,5.78q0,10.6,10.1,11.12c1.8,2.78,1.12,4.46-2.23,4.76-2.12.19-4.25,0-6.38,0-3.39,10.51-.6,21.3-1.43,31.93-.12,1.48.78,2.24,2.22,2.03,2.9-.42,6.33,1.43,8.54-2.09,1.64-2.63,3.95-4.95,5.15-7.75,4.23-9.9,11.92-11.98,21.56-10.19,1.3,1.45,1.29,2.85-.15,4.2-12.87-2.95-15.91,7.41-22.03,16.1h35.26c1.22,1.3,1.22,2.59,0,3.89h-20.68c3.92,12.79,4.94,13.69,14.85,13.65,1.67,1.69,1.6,3.4.05,5.13-8.05,1.76-14.04-.45-16.44-8.92-2.35-8.32-7.69-10.38-16.03-9.83-12.32.82-12.36.21-12.36,12.38q0,16.72,16.46,16.72c3.6,0,7.2,0,10.8,0,.94,1.49,1.02,2.99,0,4.48Z"/>
          <path class="cls-18" d="M372.22,175.5c2.72-1.85,9.12,2.91,8.61-4.77,3.73-2.88,7.37-7.01,12.4-2.55,2.25,2,3.25,5.23,1.35,7.85-3.67,5.06-7.9,3.34-12.63.89-2.75-1.43-6.46-1.01-9.74-1.43Z"/>
          <path class="cls-18" d="M415.54,232.41c-.02-1.71-.03-3.42-.05-5.13,3.64-3.06,7.26-6.9,12.1-1.99,2.71,2.75,2.76,6,.1,8.81-4.72,4.99-8.45,1.4-12.15-1.69Z"/>
          <path class="cls-18" d="M408.1,193.64c.05-1.4.1-2.8.15-4.2,2.84-3.41,5.91-6.47,10.62-3.22,2.15,1.48,4.25,3.84,3.54,6.47-.64,2.38-2.81,4.49-5.49,5.15-3.95.97-6.88-.7-8.82-4.19Z"/>
          <path class="cls-18" d="M397.98,247.24c-.44-1.49-.75-2.99,0-4.48,1.13-2.35,3.3-3.42,5.56-4.13,2.85-.89,5.32.18,6.77,2.67,1.53,2.61,1.55,5.34-.49,7.93-2.15,2.74-5.09,2.75-7.79,1.83-1.6-.55-2.71-2.5-4.05-3.82Z"/>
          <path class="cls-18" d="M421.33,213.63c0-1.3,0-2.59,0-3.89,1.08-.93,2.2-1.81,3.23-2.79,3.37-3.22,6.77-2.12,9.49.55,2.5,2.45,2.5,5.92,0,8.37-2.72,2.66-6.12,3.76-9.49.55-1.03-.98-2.15-1.86-3.23-2.79Z"/>
          <path class="cls-20" d="M284.22,403.35c-.11,31.82-18.87,53.96-49.19,55.93-3.5.23-7.65.07-10.53-1.59-11.18-6.46-22.01-2.97-32.79.4-6.47,2.02-7.04.09-4.78-5.31.91-2.17.97-4.68,1.8-6.89,2.48-6.67,2.88-12.73.03-19.91-7.58-19.11-2.18-39.87,13.47-53.37,16.13-13.9,34.65-16.91,53.99-7.79,18.87,8.9,27.6,24.86,28,38.54Z"/>
          <path class="cls-20" d="M366.04,247.17c.06,4.81.29,9.62.12,14.41-.08,2.29,1.59,5.93-2.61,6.25-3.58.28-7.47,1.38-9.81-3.48-4.79-9.91-13.89-13.62-24.13-14.19-4.32-.24-6.99-1.14-8.77-5.09-1.27-2.8-2.97-5.43-4.75-7.95-3.3-4.66-4.07-8.07-.71-14.2,3.88-7.05,4.18-16.52-.87-24.26-2.39-3.66-2.97-6.45-.04-9.86,1.54-1.8,3.02-3.82,3.9-5.99,2.7-6.72,6.65-9.3,14.65-9.96,8.08-.66,17.01-4.41,20.72-13.69,1.96-4.89,6.01-3.83,9.69-3.52,4.27.35,2.68,3.84,2.75,6.14.15,4.8-.06,9.61-.12,14.42-3.63,3.06-8.51,2.92-12.59,5.03-14.81,7.65-21.08,18.49-19.7,35.16,1,12.11,11.46,23.76,25.03,27.97,2.48.77,5.35.55,7.26,2.8Z"/>
          <path class="cls-20" d="M366.04,180.7c0,20.66,0,41.32,0,61.98-9.5,3.13-16.43-2.33-22.26-8.03-17.77-17.36-9.76-47.43,14.08-54.29,2.69-.78,5.55-2.04,8.18.34Z"/>
          <path class="cls-18" d="M366.04,180.7c-19.67,2.09-29.39,15.91-29.91,30.28-.51,14.26,9.69,29.73,29.91,31.71,0,1.5,0,2.99,0,4.49-19.43-.36-34.77-16.2-34.67-35.78.1-18.98,15.72-34.83,34.67-35.19,0,1.5,0,2.99,0,4.49Z"/>
          <path class="cls-3" d="M387.61,174.62c-.19-.32-.73-.83-.73-1.33.02-1.21.99-1.36,1.95-1.22.57.09,1.46.1,1.12,1.11-.31.91-.89,1.59-2.34,1.44Z"/>
          <path class="cls-3" d="M414.22,190.81c.22-.24.6-1,1.07-1.07,1.24-.17,1.56.93,1.61,1.84.05.92-.22,2-1.55,1.76-1.17-.21-1.22-1.21-1.12-2.53Z"/>
          <path class="cls-13" d="M406.54,245.52c-.37,1.23-1.17,1.51-2.18,1.39-1.15-.14-1.64-.98-1.42-1.92.09-.38,1.16-.74,1.78-.74.83,0,1.95.02,1.82,1.27Z"/>
          <path class="cls-3" d="M428.44,213.6c-1.21-.28-1.29-1.16-1.16-2.15.15-1.13.94-1.71,1.92-1.5.37.08.73,1.17.74,1.8.01.91-.17,1.92-1.5,1.85Z"/>
          <path class="cls-12" d="M235.75,449.54c-5.09-.09-9.24.36-13.05-1.59-6.76-3.47-13.5-5.25-21.01-1.82-3.39,1.55-3.75-1.45-2.76-3.54,3.05-6.42,1.15-11.73-1.41-18.08-10.97-27.11,8.89-55.76,37.91-55.63,19.89.09,36.52,14.9,39.64,33.99,3.15,19.26-8.01,37.83-26.92,44.78-4.34,1.59-8.81,2.27-12.4,1.89Z"/>
          <path class="cls-20" d="M209.9,398.88c-.09-4.91,1.36-8.56,4.62-10.85,3.42-2.4,6.96-3.2,8.94,2.25,1.71,4.73,5.84,9.15.7,14.19-1.66,1.63-.3,3.05.54,4.45,2.92,4.89,7.35,8.17,12.14,10.94,2.12,1.23,4.5,1.18,6.71-.58,4.67-3.7,12.24-2.78,15.88,1.68,1.23,1.51,1.25,2.82.41,4.57-2.26,4.72-5.75,7.64-11.06,7.81-14.35.46-36.24-17.59-38.57-31.71-.2-1.18-.26-2.38-.3-2.76Z"/>
        </g>
        <g>
          <path class="cls-7" d="M539.2,366.52c0,3.89.01,7.77.02,11.66-.58.53-1.3.38-1.97.38-7.94.01-15.87,0-23.81,0-.49,0-.97-.01-1.46.01-1.99.11-3.39,1.52-3.46,3.52-.06,1.94.02,3.89-.04,5.83.05,2.57.05,5.14,0,7.71.05,1.96.02,3.92.02,5.89,0,.48,0,.97-.28,1.39-.58.49-1.16.15-1.71-.03-5.38-1.75-10.58-1.33-15.48,1.48-5.5,3.15-8.8,7.93-9.55,14.27-.87,7.4,1.9,13.34,7.77,17.78,7.21,5.46,17.84,4.58,24.29-1.75,3.99-3.92,5.84-8.64,5.93-14.15.02-1.12-.53-2.23-.04-3.36.42-.5,1.01-.47,1.57-.48,5.58-.02,11.16-.02,16.74,0,.52,0,1.06-.04,1.48.39,0,12.96-.01,25.91-.02,38.87-.66.56-1.46.38-2.21.38-14.5.01-28.99,0-43.49,0-9.96,0-19.92,0-29.88,0-.71,0-1.47.16-2.09-.39-.01-.36-.04-.73-.04-1.09,0-29.08,0-58.16,0-87.24,0-.36.02-.73.04-1.09.66-.56,1.46-.38,2.21-.38,14.45-.01,28.91,0,43.36,0,10,0,20,0,30,0,.71,0,1.47-.16,2.09.39Z"/>
          <path class="cls-8" d="M539.22,417.07c-6.18,0-12.35-.01-18.53,0-.43,0-1.02-.27-1.2.45-.56-.1-.45-.61-.55-.96-1.49-5.67-4.75-9.92-9.99-12.62-.41-.21-.96-.3-1.04-.9.45-.78.18-1.64.21-2.46.05-1.64.04-3.28.05-4.92.7-.58,1.55-.38,2.34-.38,18.71-.01,37.42,0,56.13,0,1.98,0,3.97,0,5.95,0,.56,0,1.15-.05,1.62.36,0,5.83.03,11.66.01,17.49,0,2.37-1.67,3.92-4.15,3.92-10.28,0-20.56,0-30.85,0Z"/>
          <path class="cls-19" d="M539.2,366.52c-25.89,0-51.78,0-77.67,0-.01-2.67-.06-5.34-.02-8.01.03-1.98,1.69-3.55,3.69-3.64.32-.01.65,0,.97,0,22.8,0,45.6.04,68.39-.05,2.86-.01,4.93,1.79,4.71,4.78-.17,2.3-.06,4.61-.07,6.92Z"/>
          <path class="cls-19" d="M461.52,455.94c25.89,0,51.78,0,77.67,0,.01,2.67.06,5.34.02,8.01-.03,1.92-1.66,3.51-3.57,3.63-.36.02-.73,0-1.09,0-22.8,0-45.59-.03-68.39.05-2.74,0-4.94-1.68-4.71-4.78.17-2.3.06-4.61.07-6.92Z"/>
          <path class="cls-8" d="M508.17,387.91c-.01-2.06-.06-4.13-.03-6.19.03-1.93,1.82-3.53,3.88-3.53,9.06,0,18.13,0,27.19,0,10.2,0,20.4,0,30.6,0,2.94,0,4.4,1.46,4.4,4.4,0,1.78-.01,3.56-.02,5.34-.47.42-1.06.36-1.62.36-20.94,0-41.87,0-62.81,0-.56,0-1.15.06-1.61-.39Z"/>
          <path class="cls-15" d="M508.17,387.91c21.77,0,43.54,0,65.31,0,.24,0,.48.02.73.03,0,2.57,0,5.15,0,7.72-3.76,0-7.53.03-11.29.03-18.25,0-36.5,0-54.74,0,0-2.59,0-5.18,0-7.76Z"/>
          <path class="cls-5" d="M507.91,403.05c6.26,2.91,10.13,7.72,11.58,14.47,1.03,7.08-.93,13.18-6.31,17.93-5.41,4.77-11.77,6.13-18.65,3.95-7.02-2.23-11.5-7.12-13.08-14.31-2.41-10.97,4.79-21.46,15.77-23.3,3.68-.62,7.24-.1,10.69,1.27Z"/>
          <path class="cls-5" d="M498.42,417.01c-.03,2.27.25,1.96-1.32,1.98-1.65.02-2.53-.65-2.56-1.89-.02-1.27.92-1.87,2.59-2.02,1.82-.16,1.19,1.08,1.29,1.93Z"/>
          <path class="cls-5" d="M502.3,424.82c.07-.96-.46-2.15,1.34-1.97,1.63.17,2.53.7,2.55,1.93.02,1.26-.93,1.88-2.59,2.02-1.97.17-1.08-1.24-1.29-1.99Z"/>
        </g>
        <path class="cls-17" d="M505.73,410.16c.22.12.28.32.27.56,0,.33,0,.67,0,1,0,.39-.14.53-.53.53-.86,0-1.71,0-2.57,0-.06,0-.13,0-.19,0-.02.06.02.08.04.11.32.46.55.96.67,1.51.03.13.09.18.23.18.62,0,1.23,0,1.85,0,.39,0,.52.13.52.51,0,.36,0,.72,0,1.09,0,.35-.14.49-.49.49-.61,0-1.22,0-1.83,0-.13,0-.19.02-.22.17-.37,1.86-1.51,3.06-3.26,3.73-.57.22-1.16.34-1.78.42.29.32.56.62.83.92,1.49,1.65,2.9,3.35,4.31,5.07.19.23.38.46.57.69.12.14.17.28.09.46-.08.18-.22.24-.42.24-.76,0-1.52,0-2.28,0-.23,0-.39-.08-.53-.25-.97-1.16-1.95-2.31-2.93-3.46-1.02-1.19-2.06-2.35-3.13-3.5-.15-.16-.22-.33-.22-.55.01-.44,0-.89,0-1.33,0-.36.15-.51.51-.51.69,0,1.38.03,2.07-.03.83-.08,1.62-.26,2.3-.77.4-.3.67-.68.83-1.15.04-.13.02-.15-.11-.15-1.68,0-3.36,0-5.04,0-.07,0-.14,0-.21,0-.2-.02-.33-.15-.35-.34-.03-.46-.02-.92,0-1.38.01-.21.14-.33.35-.35.07,0,.14,0,.21,0,1.6,0,3.21,0,4.81,0,.06,0,.11,0,.19,0-.21-.4-.49-.68-.86-.89-.67-.38-1.41-.49-2.17-.51-.67-.02-1.35,0-2.02,0-.37,0-.53-.15-.53-.52,0-.49,0-.98,0-1.47,0-.23.08-.4.29-.5h10.7Z"/>
      </g>
    </g>
  </g>
</svg>