<?xml version="1.0" encoding="UTF-8"?>
<svg id="Layer_2" data-name="Layer 2" xmlns="http://www.w3.org/2000/svg" viewBox="0 0 801.9 785.75">
  <defs>
    <style>
      .cls-1 {
        fill: #545259;
      }

      .cls-1, .cls-2, .cls-3, .cls-4, .cls-5, .cls-6, .cls-7, .cls-8, .cls-9, .cls-10, .cls-11, .cls-12, .cls-13, .cls-14 {
        stroke-width: 0px;
      }

      .cls-2 {
        fill: #000;
      }

      .cls-3 {
        fill: none;
      }

      .cls-4 {
        fill: #fedb00;
      }

      .cls-5 {
        fill: #b6bbcd;
      }

      .cls-6 {
        fill: #010101;
      }

      .cls-7 {
        fill: #662e57;
      }

      .cls-8 {
        fill: #858dae;
      }

      .cls-9 {
        fill: #feb244;
      }

      .cls-10 {
        fill: #fe9351;
      }

      .cls-11 {
        fill: #fecd62;
      }

      .cls-12 {
        fill: #febf00;
      }

      .cls-13 {
        fill: #8c8b8c;
      }

      .cls-14 {
        fill: #590f38;
      }
    </style>
  </defs>
  <g id="Layer_1-2" data-name="Layer 1">
    <g>
      <path class="cls-14" d="M469.44,366.62c5.36,3.49,10.7,6.99,16.08,10.44.86.55.82,1.36.87,2.1.2,2.83.44,5.67.31,8.52-.33,7.05-1.21,14.02-3.06,20.86-4.15,15.36-12.16,28.37-23.98,38.98-8.65,7.77-18.59,13.48-29.34,17.82-.15.06-.35.03-.52.05-.34-.43-.43-.94-.43-1.47-.01-8.05-.04-16.1.01-24.15,0-.24.04-.47.09-.7.3-.97,1.13-1.01,1.94-1.12,5.68-.73,10.51-5.5,10.43-12.12-.06-5-2.74-8.54-7.13-10.82-.53-.27-1.43-.33-1.42-.99.01-.75.96-.79,1.54-1.03,6.34-2.63,12.34-5.86,17.6-10.32,9.2-7.8,14.87-17.56,16.34-29.64.2-1.61.22-3.21.25-4.82,0-.55-.13-1.16.41-1.58Z"/>
      <path class="cls-7" d="M429.85,438.56c-.01,8.94-.02,17.88-.03,26.82-4.48-1.56-8.67-3.73-12.84-5.96-4.26-2.28-8.18-5.09-12.15-7.82-4.73-3.96-9.29-8.08-13.22-12.87-8.9-10.86-14.49-23.21-17.01-37-1.18-6.46-1.63-12.96-1.39-19.52.05-1.28.21-2.55.28-3.82.03-.59.29-.96.76-1.27,5.33-3.44,10.65-6.9,15.98-10.35.55.48.39,1.14.4,1.73.15,11.05,3.75,20.78,11.07,29.11,5.29,6.02,11.8,10.34,18.99,13.72,1.46.69,2.95,1.31,4.43,1.95.43.19.96.38.99.92.03.53-.53.59-.89.77-5.31,2.64-7.59,6.51-7.25,12.36.3,5.22,5.19,10.2,10.41,10.62.47.04.95-.02,1.38.24.13.1.16.23.09.38Z"/>
      <path class="cls-14" d="M465.36,363.82c-3.91-2.52-7.81-5.05-11.73-7.55-.03.01-.06.03-.09.05-7.44,2.92-16.27,3.23-24.17,3.7,0,16.24,0,32.48,0,48.72,0,.71-.04,1.42.15,2.12.33.88.97.58,1.54.37,8.93-3.34,17.22-7.71,23.74-14.87,4.31-4.73,7.46-10.12,9.34-16.26,1.02-3.33,1.66-6.72,1.86-10.18.11-2.04.46-4.16-.63-6.1Z"/>
      <path class="cls-12" d="M429.84,411.23c9.25-3.16,17.7-7.65,24.45-14.89,5.93-6.36,9.58-13.85,10.88-22.48.5-3.35.67-6.68.19-10.04.09-1.15.57-2.01,1.84-2.05,1.36-.04,1.78.86,2,2.05.17.93.1,1.87.23,2.79.16,7.75-1.49,15.09-5.08,21.98-4.47,8.57-11.22,14.92-19.43,19.82-3.66,2.19-7.51,3.98-11.67,5.59,2.22.88,4.16,1.91,5.66,3.61,3.3,3.73,4.19,7.98,2.54,12.64-1.54,4.36-4.8,6.9-9.23,7.98-.77.19-1.61.04-2.38.32-.01-.07-.02-.14-.03-.21-.68-1.13-.32-2.37-.4-3.56.04-.16.13-.28.27-.36,2.06-.35,4.08-.8,5.68-2.32,2.38-2.26,3.21-5.03,2.4-8.15-.83-3.19-2.97-5.19-6.22-5.95-.5-.12-1.04-.09-1.51-.36-.2-.14-.35-.32-.44-.55-.3-1.89-.16-3.79-.14-5.68.08-.18.21-.24.4-.19Z"/>
      <path class="cls-7" d="M429.3,360.01c-4.1.24-8.22.4-12.32.32-4.41-.09-8.8-.71-13.2-.98-.59-.04-1.04-.28-1.4-.59-2.69,1.74-5.37,3.48-8.06,5.22-.49.34-.5.91-.56,1.4-.25,2.45-.2,4.9.07,7.36,1.34,12.07,7.14,21.56,16.62,28.95,5.4,4.21,11.52,7.05,17.87,9.48.39.15.8.32,1.23.13.09-.03.19-.06.28-.08,0-17.08,0-34.16-.02-51.24-.17.01-.35.02-.53.03Z"/>
      <path class="cls-4" d="M394.32,363.99c-1.5,14.45,3.53,26.29,14.36,35.76,5.49,4.8,11.89,8.05,18.65,10.65.75.29,1.49.61,2.23.92.6,1.96.13,3.97.28,5.94-.31.51-.85.54-1.35.64-3.45.67-6.14,3.13-6.72,6.29-.67,3.64.48,6.61,3.5,8.79.9.65,1.96.91,3.01,1.19.44.12.96.03,1.28.49.56,1.2.18,2.46.27,3.69-5.72.12-10.92-3.97-12.09-9.84-1.01-5.05.82-11.3,8.26-14.32-.3-.51-.87-.53-1.32-.72-7.94-3.21-15.27-7.41-21.32-13.56-8.73-8.86-13.1-19.55-13.07-32.01,0-.38-.02-.76-.04-1.14.11-.93.23-1.86.32-2.8.12-1.2.58-2.17,1.92-2.17,1.35,0,1.82.96,1.84,2.18Z"/>
      <path class="cls-9" d="M429.55,434.66c-3.72-.17-6.38-2.02-7.74-5.41-1.36-3.39-.67-6.61,1.83-9.27,1.26-1.34,2.9-2.25,4.82-2.46.46-.05.92-.17,1.38-.26.1.09.2.17.3.26.16.46.17.93.17,1.4-.01,4.55,0,9.1-.01,13.65,0,.7.08,1.44-.44,2.03-.1.02-.2.04-.3.06Z"/>
      <path class="cls-10" d="M429.84,434.6c0-5.25,0-10.5,0-15.75,0-.45-.15-.96.29-1.33,4.36-.16,8.63,4.07,8.29,9.17-.28,4.25-4.08,7.95-8.58,7.92Z"/>
    </g>
    <g>
      <path class="cls-14" d="M314.05,366.62c5.36,3.49,10.7,6.99,16.08,10.44.86.55.82,1.36.87,2.1.2,2.83.44,5.67.31,8.52-.33,7.05-1.21,14.02-3.06,20.86-4.15,15.36-12.16,28.37-23.98,38.98-8.65,7.77-18.59,13.48-29.34,17.82-.15.06-.35.03-.52.05-.34-.43-.43-.94-.43-1.47-.01-8.05-.04-16.1.01-24.15,0-.24.04-.47.09-.7.3-.97,1.13-1.01,1.94-1.12,5.68-.73,10.51-5.5,10.43-12.12-.06-5-2.74-8.54-7.13-10.82-.53-.27-1.43-.33-1.42-.99.01-.75.96-.79,1.54-1.03,6.34-2.63,12.34-5.86,17.6-10.32,9.2-7.8,14.87-17.56,16.34-29.64.2-1.61.22-3.21.25-4.82,0-.55-.13-1.16.41-1.58Z"/>
      <path class="cls-7" d="M274.45,438.56c-.01,8.94-.02,17.88-.03,26.82-4.48-1.56-8.67-3.73-12.84-5.96-4.26-2.28-8.18-5.09-12.15-7.82-4.73-3.96-9.29-8.08-13.22-12.87-8.9-10.86-14.49-23.21-17.01-37-1.18-6.46-1.63-12.96-1.39-19.52.05-1.28.21-2.55.28-3.82.03-.59.29-.96.76-1.27,5.33-3.44,10.65-6.9,15.98-10.35.55.48.39,1.14.4,1.73.15,11.05,3.75,20.78,11.07,29.11,5.29,6.02,11.8,10.34,18.99,13.72,1.46.69,2.95,1.31,4.43,1.95.43.19.96.38.99.92.03.53-.53.59-.89.77-5.31,2.64-7.59,6.51-7.25,12.36.3,5.22,5.19,10.2,10.41,10.62.47.04.95-.02,1.38.24.13.1.16.23.09.38Z"/>
      <path class="cls-14" d="M297.51,341.26c-.01,4.53-.02,9.07-.04,13.6,0,.55.08.98.61,1.31,3.97,2.54,7.93,5.1,11.89,7.65,1.1,1.94.75,4.06.63,6.1-.19,3.46-.84,6.85-1.86,10.18-1.88,6.13-5.03,11.53-9.34,16.26-6.53,7.16-14.81,11.54-23.74,14.87-.57.21-1.21.51-1.54-.37-.19-.7-.15-1.41-.15-2.12,0-21.6,0-43.19,0-64.79q0-2.82,2.76-2.82c6.39,0,12.79,0,19.18,0,.51,0,1.04-.16,1.52.16l.08-.03Z"/>
      <path class="cls-12" d="M274.45,411.23c9.25-3.16,17.7-7.65,24.45-14.89,5.93-6.36,9.58-13.85,10.88-22.48.5-3.35.67-6.68.19-10.04.09-1.15.57-2.01,1.84-2.05,1.36-.04,1.78.86,2,2.05.17.93.1,1.87.23,2.79.16,7.75-1.49,15.09-5.08,21.98-4.47,8.57-11.22,14.92-19.43,19.82-3.66,2.19-7.51,3.98-11.67,5.59,2.22.88,4.16,1.91,5.66,3.61,3.3,3.73,4.19,7.98,2.54,12.64-1.54,4.36-4.8,6.9-9.23,7.98-.77.19-1.61.04-2.38.32-.01-.07-.02-.14-.03-.21-.68-1.13-.32-2.37-.4-3.56.04-.16.13-.28.27-.36,2.06-.35,4.08-.8,5.68-2.32,2.38-2.26,3.21-5.03,2.4-8.15-.83-3.19-2.97-5.19-6.22-5.95-.5-.12-1.04-.09-1.51-.36-.2-.14-.35-.32-.44-.55-.3-1.89-.16-3.79-.14-5.68.08-.18.21-.24.4-.19Z"/>
      <path class="cls-7" d="M274.45,411.23c-.09.03-.19.06-.28.08-.44.19-.84.02-1.23-.13-6.34-2.43-12.46-5.27-17.87-9.48-9.48-7.39-15.28-16.88-16.62-28.95-.27-2.46-.33-4.9-.07-7.36.05-.49.06-1.06.56-1.4,3.93-2.55,7.85-5.13,11.8-7.65.7-.45.88-.97.88-1.75-.03-4.03.01-8.06-.04-12.09-.01-1.05.19-1.48,1.38-1.48,14.41.02,28.81-.02,43.22-.03.42,0,.96-.28,1.26.29-7.25,0-14.5,0-21.75-.05-1.19,0-1.26.54-1.26,1.47.02,22.84.02,45.68.02,68.52Z"/>
      <path class="cls-4" d="M238.93,363.99c-1.5,14.45,3.53,26.29,14.36,35.76,5.49,4.8,11.89,8.05,18.65,10.65.75.29,1.49.61,2.23.92.6,1.96.13,3.97.28,5.94-.31.51-.85.54-1.35.64-3.45.67-6.14,3.13-6.72,6.29-.67,3.64.48,6.61,3.5,8.79.9.65,1.96.91,3.01,1.19.44.12.96.03,1.28.49.56,1.2.18,2.46.27,3.69-5.72.12-10.92-3.97-12.09-9.84-1.01-5.05.82-11.3,8.26-14.32-.3-.51-.87-.53-1.32-.72-7.94-3.21-15.27-7.41-21.32-13.56-8.73-8.86-13.1-19.55-13.07-32.01,0-.38-.02-.76-.04-1.14.11-.93.23-1.86.32-2.8.12-1.2.58-2.17,1.92-2.17,1.35,0,1.82.96,1.84,2.18Z"/>
      <path class="cls-9" d="M274.16,434.66c-3.72-.17-6.38-2.02-7.74-5.41-1.36-3.39-.67-6.61,1.83-9.27,1.26-1.34,2.9-2.25,4.82-2.46.46-.05.92-.17,1.38-.26.1.09.2.17.3.26.16.46.17.93.17,1.4-.01,4.55,0,9.1-.01,13.65,0,.7.08,1.44-.44,2.03-.1.02-.2.04-.3.06Z"/>
      <path class="cls-10" d="M274.45,434.6c0-5.25,0-10.5,0-15.75,0-.45-.15-.96.29-1.33,4.36-.16,8.63,4.07,8.29,9.17-.28,4.25-4.08,7.95-8.58,7.92Z"/>
    </g>
    <g>
      <path class="cls-3" d="M573.9,454.1c.18-.05.36-.1.56-.11-.1-.12-.18-.23-.27-.35-.11.16-.18.31-.28.46Z"/>
      <path class="cls-2" d="M72.13,244.21c-3.92,0-1.63.11-6.14-.04-9.39-.32-17.81-.45-27.67-.45-6.24,0-7.14-1.9-7.11-7.47.23-42.02.15-84.04.11-126.06,0-11.37-6.01-18.6-15.39-18.79C6.28,91.22.01,98.64.01,110.44c-.01,218.72-.01,437.44,0,656.16,0,13.3,5.72,19.06,19.1,19.1,27.15.08,54.29.06,81.44,0,13.7-.03,19.59-5.86,19.67-19.43.08-13.83.41-27.68-.15-41.49-.27-6.54,2.09-7.51,7.9-7.5,105.45.16,210.91.21,316.36-.08,7.32-.02,8.54,2.22,8.3,8.73-.49,13.29-.17,26.62-.14,39.93.03,14.52,5.29,19.82,19.84,19.85,25.58.05,51.16.01,76.74.01,19.07,0,23.45-4.37,23.45-23.44,0-99.7,0-199.41.05-299.11,0-2.72-.83-5.71,1.33-9.08.1-.15.17-.31.28-.46.1.12.18.23.27.35,1.4,1.77,2.38,3.2,3.58,4.39,32.66,32.67,64.85,65.84,98.16,97.83,41.28,39.64,108.58,20.3,123.4-34.73.57-2.1-.2-4.86,2.3-6.3v-21.93c-3.67-15.1-8.6-29.56-19.65-41.19-8.03-8.46-13.68-9.49-23.94-3.8-7.26,9.06-7.2,15.62.22,24.26,16.74,19.51,16.11,45.38-1.51,61.8-17.31,16.12-43.85,14.9-61.85-3.05-37.12-37.01-74.07-74.2-111.32-111.08-4.23-4.19-4.1-6.25.05-10.29,17.39-16.91,34.54-34.06,51.44-51.46,3.99-4.11,6.21-3.67,9.61.28,3.73,4.34,8.02,8.19,12.1,12.23,9.27,9.19,14.44,9.79,25.49,3.01h0c6.19-10.68,5.54-16.21-3.12-24.94-9.01-9.08-18.12-18.05-27.11-27.15-4.57-4.62-9.89-6.77-16.29-5.17-4.78,1.2-8.13,4.69-11.13,8.28-2.76,3.3-4.58,3.52-7.72.17-7.85-8.37-15.96-16.53-24.38-24.33-3.8-3.52-3.71-6.01-1.29-10.45,22.31-40.81,30.25-84.4,20.95-129.98-16.3-79.92-64.42-133.08-143.01-153.25-79.59-20.42-148.41,3.13-201,66.74-39,47.17-50.59,102.36-38.66,162.33,1.18,5.93.25,7.79-6.08,7.47-10.42-.52-20.9-.54-31.31,0-6.64.35-3.45-.17-10.77-.17M420.32,31.66c90.56-.33,164.06,73.02,164.2,163.89.14,90.45-72.97,164.09-163.07,164.27-90.87.18-164.52-72.94-164.7-163.53-.19-90.82,72.82-164.3,163.57-164.63ZM59.92,619.71c-7.8-.48-15.66-.35-23.47-.03-4.24.17-5.2-1.38-5.19-5.36.13-37.31.25-74.63-.08-111.94-.06-6.43,3.32-5.62,7.28-5.62,82.72.03,165.45.02,248.17.02s164.4.08,246.6-.15c6.57-.02,8.16,1.81,8.1,8.22-.32,35.75-.33,71.5.01,107.24.06,6.46-1.99,7.97-7.94,7.61M171.41,465.54c-11.97-.27-23.95-.09-35.93-.09-11.98,0-23.96-.19-35.93.1M287.36,465.52c-12.25-.18-24.51-.07-36.77-.07-12,0-24-.18-35.99.09M466.63,619.68c-14.84-.18-29.68-.23-44.52.02M308.86,619.65c-15.63-.12-31.25-.14-46.88,0M149.14,619.66c-15.1-.17-30.21-.19-45.31.01M88.98,749.7c.1,3.93-1.57,4.79-5.11,4.76-15.87-.13-31.75-.15-47.62.01-3.58.04-5.1-.8-5-4.72.25-9.1.3-18.22-.02-27.32-.15-4.28,1.38-5.27,5.36-5.12,7.8.29,15.61.08,23.42.08s15.62.15,23.42-.06c3.78-.1,5.71.63,5.57,5.05-.3,9.1-.24,18.22-.02,27.32ZM535.6,754.47c-7.81-.21-15.64-.06-23.46-.06-7.82,0-15.64-.16-23.46.07-3.7.11-5.05-1-4.95-4.82.23-9.12.21-18.24,0-27.36-.08-3.59.79-5.04,4.73-4.98,15.9.21,31.8.18,47.7.02,3.61-.04,5.16.87,5.07,4.76-.21,9.12-.26,18.25.01,27.36.13,4.43-1.9,5.12-5.66,5.02ZM541.28,679.76c.37,5.28-1.53,6.47-6.57,6.43-28.43-.24-56.86-.11-85.3-.11h-163.55c-82.17,0-164.34-.07-246.5.15-6.2.02-8.83-.94-8.18-7.84.71-7.5.33-15.12.09-22.67-.12-3.66.86-5.39,4.73-4.83,1.28.18,2.6.03,3.91.03,164.07,0,328.15.06,492.22-.2,7.78-.01,9.93,2.12,9.18,9.51-.65,6.45-.49,13.05-.03,19.54ZM56.81,465.57c-6.49-.47-13.06-.44-19.56,0-4.84.32-6.08-1.15-6.04-6,.24-29.49.12-58.98.12-88.48s.12-59.51-.11-89.26c-.04-5.09.68-7.11,6.56-7.09,66.04.24,132.08.2,198.11.04,4.6-.01,6.72,1.54,8.73,5.62,37.55,76.24,115.52,118.89,199.88,109.16,25.34-2.92,49.29-10.76,71.51-23.43,3.64-2.08,5.92-2.46,9.13,1,7.98,8.61,16.34,16.89,24.88,24.93,3.39,3.19,3.23,5.29-.22,7.89-7.15,5.38-9.03,12.75-8.74,21.4.41,12.25-.2,24.54.24,36.79.2,5.73-1.18,7.52-7.24,7.46-33.93-.32-67.86-.16-101.8-.16s-67.87-.11-101.8.12M576.8,372.49c-1.73,1.61-3.12-1.07-4.3-2.23-7.41-7.3-14.62-14.81-22.16-21.97-2.85-2.71-2.53-4.25.19-6.77,5.71-5.3,11.1-10.94,16.56-16.5,1.51-1.54,2.65-3.23,4.95-.88,8.21,8.34,16.53,16.57,24.78,24.86.52.52.85,1.24,1.19,1.75-.08.44-.04.76-.18.9-6.97,6.99-13.83,14.1-21.04,20.83Z"/>
      <path class="cls-8" d="M657.04,370.96c-4.07-4.04-8.37-7.89-12.1-12.23-3.39-3.95-5.61-4.39-9.61-.28-16.89,17.4-34.05,34.55-51.44,51.46-4.15,4.04-4.28,6.1-.05,10.29,37.25,36.88,74.2,74.06,111.32,111.08,18,17.95,44.54,19.17,61.85,3.05,17.62-16.41,18.25-42.29,1.51-61.8-7.42-8.64-7.48-15.19-.22-24.26-10.73-6.72-18.19-16.88-27.02-25.6-6.36,4.59-12.98,6.58-20.13,1.77-5.55-3.73-7.26-9.09-6.62-15.57.39-3.92,2.95-6.47,5.08-9.34h0c-10.79-6.64-18.17-16.91-27.08-25.55,0,0,0,0,0,0-11.05,6.78-16.23,6.17-25.49-3.01Z"/>
      <path class="cls-6" d="M711.16,424.44c7.15,4.81,13.77,2.82,20.13-1.77,5.39-9.09,5.26-16.3-.39-22.03-5.66-5.73-12.51-6.09-21.28-1.11,0,0,0,0,0,0-2.13,2.87-4.69,5.42-5.08,9.34-.64,6.48,1.07,11.84,6.62,15.57Z"/>
      <path class="cls-5" d="M597.84,351.66c.14-.14.1-.46.18-.9-.34-.51-.66-1.23-1.19-1.75-8.26-8.29-16.58-16.52-24.78-24.86-2.31-2.35-3.44-.66-4.95.88-5.46,5.56-10.85,11.21-16.56,16.5-2.72,2.52-3.04,4.06-.19,6.77,7.54,7.16,14.75,14.67,22.16,21.97,1.17,1.15,2.57,3.84,4.3,2.23,7.21-6.73,14.07-13.84,21.04-20.83Z"/>
      <path class="cls-2" d="M419.17,325.69c72.73.43,131.29-57.23,131.63-129.59.33-71.44-57.85-130.08-129.34-130.34-72.23-.27-130.35,57.41-130.61,129.63-.26,71.42,57.31,129.88,128.32,130.31ZM420.03,97.08c54.64-.36,99.26,43.74,99.51,98.35.25,54.12-43.97,98.75-98.08,98.98-54.99.24-99.01-43.38-99.25-98.34-.24-54.54,43.34-98.64,97.82-98.99Z"/>
      <path class="cls-11" d="M421.46,294.41c54.11-.23,98.33-44.86,98.08-98.98-.25-54.61-44.87-98.71-99.51-98.35-54.48.36-98.06,44.46-97.82,98.99.24,54.96,44.27,98.57,99.25,98.34ZM360.62,187.92c6.72-6.68,15.62-6.2,23.48,1.38,4.12,3.98,8.37,7.87,12.09,12.21,3.47,4.03,5.79,4.25,9.73.17,14.66-15.16,29.65-30.02,44.71-44.79,7.42-7.28,17.25-7.22,23.5-.39,2.78,3.03,4.06,6.6,3.89,10.97.23,4.84-2.35,8.66-5.76,12.07-19.52,19.52-38.98,39.11-58.6,58.54-8.44,8.36-16.56,8.23-25.2-.19-8.95-8.73-17.79-17.57-26.53-26.52-7.73-7.92-8.11-16.69-1.32-23.45Z"/>
      <path class="cls-2" d="M388.47,237.88c8.64,8.43,16.76,8.55,25.2.19,19.62-19.43,39.08-39.01,58.6-58.54,3.41-3.41,5.99-7.22,5.76-12.07.17-4.37-1.11-7.94-3.89-10.97-6.25-6.83-16.09-6.89-23.5.39-15.06,14.77-30.04,29.63-44.71,44.79-3.94,4.07-6.26,3.86-9.73-.17-3.73-4.33-7.97-8.23-12.09-12.21-7.86-7.58-16.76-8.06-23.48-1.38-6.8,6.76-6.42,15.52,1.32,23.45,8.73,8.95,17.58,17.78,26.53,26.52Z"/>
    </g>
    <g>
      <path class="cls-14" d="M163.79,143.98c5.36,3.49,10.7,6.99,16.08,10.44.86.55.82,1.36.87,2.1.2,2.83.44,5.67.31,8.52-.33,7.05-1.21,14.02-3.06,20.86-4.15,15.36-12.16,28.37-23.98,38.98-8.65,7.77-18.59,13.48-29.34,17.82-.15.06-.35.03-.52.05-.34-.43-.43-.94-.43-1.47-.01-8.05-.04-16.1.01-24.15,0-.24.04-.47.09-.7.3-.97,1.13-1.01,1.94-1.12,5.68-.73,10.51-5.5,10.43-12.12-.06-5-2.74-8.54-7.13-10.82-.53-.27-1.43-.33-1.42-.99.01-.75.96-.79,1.54-1.03,6.34-2.63,12.34-5.86,17.6-10.32,9.2-7.8,14.87-17.56,16.34-29.64.2-1.61.22-3.21.25-4.82,0-.55-.13-1.16.41-1.58Z"/>
      <path class="cls-7" d="M124.2,215.92c-.01,8.94-.02,17.88-.03,26.82-4.48-1.56-8.67-3.73-12.84-5.96-4.26-2.28-8.18-5.09-12.15-7.82-4.73-3.96-9.29-8.08-13.22-12.87-8.9-10.86-14.49-23.21-17.01-37-1.18-6.46-1.63-12.96-1.39-19.52.05-1.28.21-2.55.28-3.82.03-.59.29-.96.76-1.27,5.33-3.44,10.65-6.9,15.98-10.35.55.48.39,1.14.4,1.73.15,11.05,3.75,20.78,11.07,29.11,5.29,6.02,11.8,10.34,18.99,13.72,1.46.69,2.95,1.31,4.43,1.95.43.19.96.38.99.92.03.53-.53.59-.89.77-5.31,2.64-7.59,6.51-7.25,12.36.3,5.22,5.19,10.2,10.41,10.62.47.04.95-.02,1.38.24.13.1.16.23.09.38Z"/>
      <path class="cls-14" d="M147.26,118.61c-.01,4.53-.02,9.07-.04,13.6,0,.55.08.98.61,1.31,3.97,2.54,7.93,5.1,11.89,7.65,1.1,1.94.75,4.06.63,6.1-.19,3.46-.84,6.85-1.86,10.18-1.88,6.13-5.03,11.53-9.34,16.26-6.53,7.16-14.81,11.54-23.74,14.87-.57.21-1.21.51-1.54-.37-.19-.7-.15-1.41-.15-2.12,0-21.6,0-43.19,0-64.79q0-2.82,2.76-2.82c6.39,0,12.79,0,19.18,0,.51,0,1.04-.16,1.52.16l.08-.03Z"/>
      <path class="cls-12" d="M124.19,188.58c9.25-3.16,17.7-7.65,24.45-14.89,5.93-6.36,9.58-13.85,10.88-22.48.5-3.35.67-6.68.19-10.04.09-1.15.57-2.01,1.84-2.05,1.36-.04,1.78.86,2,2.05.17.93.1,1.87.23,2.79.16,7.75-1.49,15.09-5.08,21.98-4.47,8.57-11.22,14.92-19.43,19.82-3.66,2.19-7.51,3.98-11.67,5.59,2.22.88,4.16,1.91,5.66,3.61,3.3,3.73,4.19,7.98,2.54,12.64-1.54,4.36-4.8,6.9-9.23,7.98-.77.19-1.61.04-2.38.32-.01-.07-.02-.14-.03-.21-.68-1.13-.32-2.37-.4-3.56.04-.16.13-.28.27-.36,2.06-.35,4.08-.8,5.68-2.32,2.38-2.26,3.21-5.03,2.4-8.15-.83-3.19-2.97-5.19-6.22-5.95-.5-.12-1.04-.09-1.51-.36-.2-.14-.35-.32-.44-.55-.3-1.89-.16-3.79-.14-5.68.08-.18.21-.24.4-.19Z"/>
      <path class="cls-7" d="M124.19,188.58c-.09.03-.19.06-.28.08-.44.19-.84.02-1.23-.13-6.34-2.43-12.46-5.27-17.87-9.48-9.48-7.39-15.28-16.88-16.62-28.95-.27-2.46-.33-4.9-.07-7.36.05-.49.06-1.06.56-1.4,3.93-2.55,7.85-5.13,11.8-7.65.7-.45.88-.97.88-1.75-.03-4.03.01-8.06-.04-12.09-.01-1.05.19-1.48,1.38-1.48,14.41.02,28.81-.02,43.22-.03.42,0,.96-.28,1.26.29-7.25,0-14.5,0-21.75-.05-1.19,0-1.26.54-1.26,1.47.02,22.84.02,45.68.02,68.52Z"/>
      <path class="cls-4" d="M88.67,141.34c-1.5,14.45,3.53,26.29,14.36,35.76,5.49,4.8,11.89,8.05,18.65,10.65.75.29,1.49.61,2.23.92.6,1.96.13,3.97.28,5.94-.31.51-.85.54-1.35.64-3.45.67-6.14,3.13-6.72,6.29-.67,3.64.48,6.61,3.5,8.79.9.65,1.96.91,3.01,1.19.44.12.96.03,1.28.49.56,1.2.18,2.46.27,3.69-5.72.12-10.92-3.97-12.09-9.84-1.01-5.05.82-11.3,8.26-14.32-.3-.51-.87-.53-1.32-.72-7.94-3.21-15.27-7.41-21.32-13.56-8.73-8.86-13.1-19.55-13.07-32.01,0-.38-.02-.76-.04-1.14.11-.93.23-1.86.32-2.8.12-1.2.58-2.17,1.92-2.17,1.35,0,1.82.96,1.84,2.18Z"/>
      <path class="cls-9" d="M123.9,212.01c-3.72-.17-6.38-2.02-7.74-5.41-1.36-3.39-.67-6.61,1.83-9.27,1.26-1.34,2.9-2.25,4.82-2.46.46-.05.92-.17,1.38-.26.1.09.2.17.3.26.16.46.17.93.17,1.4-.01,4.55,0,9.1-.01,13.65,0,.7.08,1.44-.44,2.03-.1.02-.2.04-.3.06Z"/>
      <path class="cls-10" d="M124.19,211.95c0-5.25,0-10.5,0-15.75,0-.45-.15-.96.29-1.33,4.36-.16,8.63,4.07,8.29,9.17-.28,4.25-4.08,7.95-8.58,7.92Z"/>
    </g>
    <g>
      <path class="cls-14" d="M163.79,366.62c5.36,3.49,10.7,6.99,16.08,10.44.86.55.82,1.36.87,2.1.2,2.83.44,5.67.31,8.52-.33,7.05-1.21,14.02-3.06,20.86-4.15,15.36-12.16,28.37-23.98,38.98-8.65,7.77-18.59,13.48-29.34,17.82-.15.06-.35.03-.52.05-.34-.43-.43-.94-.43-1.47-.01-8.05-.04-16.1.01-24.15,0-.24.04-.47.09-.7.3-.97,1.13-1.01,1.94-1.12,5.68-.73,10.51-5.5,10.43-12.12-.06-5-2.74-8.54-7.13-10.82-.53-.27-1.43-.33-1.42-.99.01-.75.96-.79,1.54-1.03,6.34-2.63,12.34-5.86,17.6-10.32,9.2-7.8,14.87-17.56,16.34-29.64.2-1.61.22-3.21.25-4.82,0-.55-.13-1.16.41-1.58Z"/>
      <path class="cls-7" d="M124.2,438.56c-.01,8.94-.02,17.88-.03,26.82-4.48-1.56-8.67-3.73-12.84-5.96-4.26-2.28-8.18-5.09-12.15-7.82-4.73-3.96-9.29-8.08-13.22-12.87-8.9-10.86-14.49-23.21-17.01-37-1.18-6.46-1.63-12.96-1.39-19.52.05-1.28.21-2.55.28-3.82.03-.59.29-.96.76-1.27,5.33-3.44,10.65-6.9,15.98-10.35.55.48.39,1.14.4,1.73.15,11.05,3.75,20.78,11.07,29.11,5.29,6.02,11.8,10.34,18.99,13.72,1.46.69,2.95,1.31,4.43,1.95.43.19.96.38.99.92.03.53-.53.59-.89.77-5.31,2.64-7.59,6.51-7.25,12.36.3,5.22,5.19,10.2,10.41,10.62.47.04.95-.02,1.38.24.13.1.16.23.09.38Z"/>
      <path class="cls-14" d="M147.26,341.26c-.01,4.53-.02,9.07-.04,13.6,0,.55.08.98.61,1.31,3.97,2.54,7.93,5.1,11.89,7.65,1.1,1.94.75,4.06.63,6.1-.19,3.46-.84,6.85-1.86,10.18-1.88,6.13-5.03,11.53-9.34,16.26-6.53,7.16-14.81,11.54-23.74,14.87-.57.21-1.21.51-1.54-.37-.19-.7-.15-1.41-.15-2.12,0-21.6,0-43.19,0-64.79q0-2.82,2.76-2.82c6.39,0,12.79,0,19.18,0,.51,0,1.04-.16,1.52.16l.08-.03Z"/>
      <path class="cls-12" d="M124.19,411.23c9.25-3.16,17.7-7.65,24.45-14.89,5.93-6.36,9.58-13.85,10.88-22.48.5-3.35.67-6.68.19-10.04.09-1.15.57-2.01,1.84-2.05,1.36-.04,1.78.86,2,2.05.17.93.1,1.87.23,2.79.16,7.75-1.49,15.09-5.08,21.98-4.47,8.57-11.22,14.92-19.43,19.82-3.66,2.19-7.51,3.98-11.67,5.59,2.22.88,4.16,1.91,5.66,3.61,3.3,3.73,4.19,7.98,2.54,12.64-1.54,4.36-4.8,6.9-9.23,7.98-.77.19-1.61.04-2.38.32-.01-.07-.02-.14-.03-.21-.68-1.13-.32-2.37-.4-3.56.04-.16.13-.28.27-.36,2.06-.35,4.08-.8,5.68-2.32,2.38-2.26,3.21-5.03,2.4-8.15-.83-3.19-2.97-5.19-6.22-5.95-.5-.12-1.04-.09-1.51-.36-.2-.14-.35-.32-.44-.55-.3-1.89-.16-3.79-.14-5.68.08-.18.21-.24.4-.19Z"/>
      <path class="cls-7" d="M124.19,411.23c-.09.03-.19.06-.28.08-.44.19-.84.02-1.23-.13-6.34-2.43-12.46-5.27-17.87-9.48-9.48-7.39-15.28-16.88-16.62-28.95-.27-2.46-.33-4.9-.07-7.36.05-.49.06-1.06.56-1.4,3.93-2.55,7.85-5.13,11.8-7.65.7-.45.88-.97.88-1.75-.03-4.03.01-8.06-.04-12.09-.01-1.05.19-1.48,1.38-1.48,14.41.02,28.81-.02,43.22-.03.42,0,.96-.28,1.26.29-7.25,0-14.5,0-21.75-.05-1.19,0-1.26.54-1.26,1.47.02,22.84.02,45.68.02,68.52Z"/>
      <path class="cls-4" d="M88.67,363.99c-1.5,14.45,3.53,26.29,14.36,35.76,5.49,4.8,11.89,8.05,18.65,10.65.75.29,1.49.61,2.23.92.6,1.96.13,3.97.28,5.94-.31.51-.85.54-1.35.64-3.45.67-6.14,3.13-6.72,6.29-.67,3.64.48,6.61,3.5,8.79.9.65,1.96.91,3.01,1.19.44.12.96.03,1.28.49.56,1.2.18,2.46.27,3.69-5.72.12-10.92-3.97-12.09-9.84-1.01-5.05.82-11.3,8.26-14.32-.3-.51-.87-.53-1.32-.72-7.94-3.21-15.27-7.41-21.32-13.56-8.73-8.86-13.1-19.55-13.07-32.01,0-.38-.02-.76-.04-1.14.11-.93.23-1.86.32-2.8.12-1.2.58-2.17,1.92-2.17,1.35,0,1.82.96,1.84,2.18Z"/>
      <path class="cls-9" d="M123.9,434.66c-3.72-.17-6.38-2.02-7.74-5.41-1.36-3.39-.67-6.61,1.83-9.27,1.26-1.34,2.9-2.25,4.82-2.46.46-.05.92-.17,1.38-.26.1.09.2.17.3.26.16.46.17.93.17,1.4-.01,4.55,0,9.1-.01,13.65,0,.7.08,1.44-.44,2.03-.1.02-.2.04-.3.06Z"/>
      <path class="cls-10" d="M124.19,434.6c0-5.25,0-10.5,0-15.75,0-.45-.15-.96.29-1.33,4.36-.16,8.63,4.07,8.29,9.17-.28,4.25-4.08,7.95-8.58,7.92Z"/>
    </g>
    <g>
      <path class="cls-14" d="M473.3,528.6c4.93,3.21,9.85,6.44,14.8,9.61.79.51.76,1.25.8,1.94.18,2.61.41,5.22.29,7.84-.3,6.49-1.11,12.91-2.81,19.2-3.82,14.14-11.19,26.12-22.08,35.89-7.96,7.15-17.11,12.41-27.01,16.4-.14.06-.32.03-.48.04-.32-.4-.39-.87-.39-1.36-.01-7.41-.04-14.82.01-22.24,0-.22.04-.43.09-.64.27-.89,1.04-.93,1.78-1.03,5.23-.67,9.67-5.07,9.61-11.15-.05-4.6-2.52-7.86-6.56-9.97-.49-.25-1.32-.31-1.31-.91.01-.69.88-.73,1.41-.95,5.84-2.42,11.36-5.4,16.2-9.5,8.47-7.18,13.69-16.17,15.04-27.29.18-1.48.2-2.96.23-4.44,0-.51-.12-1.07.38-1.45Z"/>
      <path class="cls-7" d="M436.84,594.84c-.01,8.23-.02,16.46-.03,24.7-4.12-1.44-7.98-3.44-11.82-5.49-3.92-2.1-7.53-4.68-11.18-7.2-4.35-3.64-8.55-7.44-12.17-11.85-8.19-10-13.34-21.37-15.66-34.07-1.09-5.95-1.5-11.94-1.28-17.97.04-1.18.2-2.35.26-3.52.03-.54.27-.88.7-1.17,4.91-3.17,9.81-6.35,14.71-9.53.51.44.36,1.05.37,1.59.13,10.18,3.46,19.13,10.2,26.8,4.87,5.54,10.86,9.52,17.48,12.63,1.34.63,2.71,1.2,4.08,1.79.4.17.88.35.91.84.02.49-.49.55-.82.71-4.89,2.43-6.99,6-6.68,11.38.28,4.8,4.78,9.39,9.58,9.77.43.03.88-.02,1.27.22.12.1.15.21.08.35Z"/>
      <path class="cls-14" d="M458.07,505.25c0,4.17-.01,8.35-.04,12.52,0,.51.08.9.56,1.21,3.66,2.34,7.3,4.69,10.95,7.05,1.01,1.78.69,3.74.58,5.61-.18,3.18-.77,6.31-1.71,9.37-1.73,5.65-4.63,10.62-8.6,14.97-6.01,6.59-13.64,10.62-21.86,13.69-.52.2-1.11.47-1.42-.34-.18-.64-.13-1.3-.13-1.95,0-19.88,0-39.76,0-59.65q0-2.59,2.54-2.59c5.89,0,11.77,0,17.66,0,.47,0,.96-.15,1.4.14l.07-.03Z"/>
      <path class="cls-1" d="M436.84,569.67c8.51-2.91,16.3-7.04,22.51-13.71,5.46-5.86,8.82-12.75,10.01-20.69.46-3.08.62-6.15.17-9.24.08-1.06.53-1.85,1.7-1.88,1.25-.04,1.64.8,1.85,1.89.16.86.09,1.72.21,2.57.15,7.14-1.37,13.9-4.68,20.24-4.12,7.89-10.33,13.73-17.89,18.25-3.37,2.01-6.91,3.67-10.74,5.14,2.05.81,3.83,1.76,5.22,3.33,3.04,3.43,3.85,7.35,2.34,11.64-1.42,4.01-4.42,6.36-8.5,7.35-.71.17-1.48.04-2.19.29-.01-.06-.02-.13-.02-.19-.62-1.04-.3-2.18-.37-3.28.03-.15.12-.26.25-.33,1.9-.32,3.76-.74,5.23-2.13,2.19-2.08,2.95-4.63,2.21-7.5-.76-2.94-2.74-4.78-5.73-5.48-.46-.11-.96-.09-1.39-.33-.19-.13-.32-.3-.41-.51-.28-1.74-.15-3.49-.13-5.23.07-.17.19-.22.36-.17Z"/>
      <path class="cls-7" d="M436.84,569.67c-.09.03-.17.05-.26.08-.4.17-.77.02-1.14-.12-5.84-2.24-11.47-4.86-16.45-8.73-8.73-6.8-14.07-15.54-15.3-26.65-.25-2.26-.3-4.52-.07-6.77.05-.45.06-.98.51-1.29,3.62-2.35,7.23-4.72,10.87-7.04.65-.41.81-.89.81-1.61-.03-3.71.01-7.42-.03-11.13-.01-.97.17-1.36,1.27-1.36,13.26.02,26.53-.02,39.79-.03.39,0,.88-.26,1.16.27-6.67,0-13.35,0-20.02-.05-1.1,0-1.16.49-1.16,1.35.02,21.03.02,42.06.02,63.08Z"/>
      <path class="cls-13" d="M404.14,526.18c-1.39,13.3,3.25,24.2,13.22,32.93,5.05,4.42,10.95,7.42,17.17,9.8.69.26,1.37.56,2.05.85.55,1.8.12,3.65.25,5.47-.29.47-.78.5-1.25.59-3.18.62-5.65,2.88-6.19,5.79-.62,3.35.44,6.08,3.22,8.1.83.6,1.8.84,2.77,1.1.41.11.89.03,1.18.45.52,1.1.17,2.27.25,3.4-5.26.11-10.05-3.66-11.13-9.06-.93-4.65.76-10.4,7.61-13.18-.28-.47-.8-.49-1.22-.66-7.31-2.96-14.05-6.82-19.63-12.48-8.04-8.16-12.06-18-12.04-29.47,0-.35-.02-.7-.03-1.05.1-.86.21-1.72.29-2.58.11-1.1.53-2,1.77-2,1.25,0,1.67.88,1.7,2.01Z"/>
      <path class="cls-9" d="M436.57,591.24c-3.43-.16-5.87-1.86-7.13-4.98-1.25-3.12-.62-6.09,1.68-8.54,1.16-1.23,2.67-2.07,4.44-2.26.43-.05.85-.16,1.27-.24.09.08.18.16.27.24.14.42.15.85.15,1.29-.01,4.19,0,8.38-.01,12.56,0,.65.07,1.32-.41,1.87-.09.02-.18.04-.27.05Z"/>
      <path class="cls-10" d="M436.84,591.19c0-4.84,0-9.67,0-14.51,0-.42-.14-.88.27-1.22,4.01-.15,7.94,3.75,7.63,8.44-.26,3.91-3.75,7.32-7.9,7.29Z"/>
    </g>
    <g>
      <path class="cls-14" d="M158.46,528.6c4.93,3.21,9.85,6.44,14.8,9.61.79.51.76,1.25.8,1.94.18,2.61.41,5.22.29,7.84-.3,6.49-1.11,12.91-2.81,19.2-3.82,14.14-11.19,26.12-22.08,35.89-7.96,7.15-17.11,12.41-27.01,16.4-.14.06-.32.03-.48.04-.32-.4-.39-.87-.39-1.36-.01-7.41-.04-14.82.01-22.24,0-.22.04-.43.09-.64.27-.89,1.04-.93,1.78-1.03,5.23-.67,9.67-5.07,9.61-11.15-.05-4.6-2.52-7.86-6.56-9.97-.49-.25-1.32-.31-1.31-.91.01-.69.88-.73,1.41-.95,5.84-2.42,11.36-5.4,16.2-9.5,8.47-7.18,13.69-16.17,15.04-27.29.18-1.48.2-2.96.23-4.44,0-.51-.12-1.07.38-1.45Z"/>
      <path class="cls-7" d="M122,594.84c-.01,8.23-.02,16.46-.03,24.7-4.12-1.44-7.98-3.44-11.82-5.49-3.92-2.1-7.53-4.68-11.18-7.2-4.35-3.64-8.55-7.44-12.17-11.85-8.19-10-13.34-21.37-15.66-34.07-1.09-5.95-1.5-11.94-1.28-17.97.04-1.18.2-2.35.26-3.52.03-.54.27-.88.7-1.17,4.91-3.17,9.81-6.35,14.71-9.53.51.44.36,1.05.37,1.59.13,10.18,3.46,19.13,10.2,26.8,4.87,5.54,10.86,9.52,17.48,12.63,1.34.63,2.71,1.2,4.08,1.79.4.17.88.35.91.84.02.49-.49.55-.82.71-4.89,2.43-6.99,6-6.68,11.38.28,4.8,4.78,9.39,9.58,9.77.43.03.88-.02,1.27.22.12.1.15.21.08.35Z"/>
      <path class="cls-14" d="M143.23,505.25c0,4.17-.01,8.35-.04,12.52,0,.51.08.9.56,1.21,3.66,2.34,7.3,4.69,10.95,7.05,1.01,1.78.69,3.74.58,5.61-.18,3.18-.77,6.31-1.71,9.37-1.73,5.65-4.63,10.62-8.6,14.97-6.01,6.59-13.64,10.62-21.86,13.69-.52.2-1.11.47-1.42-.34-.18-.64-.13-1.3-.13-1.95,0-19.88,0-39.76,0-59.65q0-2.59,2.54-2.59c5.89,0,11.77,0,17.66,0,.47,0,.96-.15,1.4.14l.07-.03Z"/>
      <path class="cls-1" d="M122,569.67c8.51-2.91,16.3-7.04,22.51-13.71,5.46-5.86,8.82-12.75,10.01-20.69.46-3.08.62-6.15.17-9.24.08-1.06.53-1.85,1.7-1.88,1.25-.04,1.64.8,1.85,1.89.16.86.09,1.72.21,2.57.15,7.14-1.37,13.9-4.68,20.24-4.12,7.89-10.33,13.73-17.89,18.25-3.37,2.01-6.91,3.67-10.74,5.14,2.05.81,3.83,1.76,5.22,3.33,3.04,3.43,3.85,7.35,2.34,11.64-1.42,4.01-4.42,6.36-8.5,7.35-.71.17-1.48.04-2.19.29-.01-.06-.02-.13-.02-.19-.62-1.04-.3-2.18-.37-3.28.03-.15.12-.26.25-.33,1.9-.32,3.76-.74,5.23-2.13,2.19-2.08,2.95-4.63,2.21-7.5-.76-2.94-2.74-4.78-5.73-5.48-.46-.11-.96-.09-1.39-.33-.19-.13-.32-.3-.41-.51-.28-1.74-.15-3.49-.13-5.23.07-.17.19-.22.36-.17Z"/>
      <path class="cls-7" d="M122,569.67c-.09.03-.17.05-.26.08-.4.17-.77.02-1.14-.12-5.84-2.24-11.47-4.86-16.45-8.73-8.73-6.8-14.07-15.54-15.3-26.65-.25-2.26-.3-4.52-.07-6.77.05-.45.06-.98.51-1.29,3.62-2.35,7.23-4.72,10.87-7.04.65-.41.81-.89.81-1.61-.03-3.71.01-7.42-.03-11.13-.01-.97.17-1.36,1.27-1.36,13.26.02,26.53-.02,39.79-.03.39,0,.88-.26,1.16.27-6.67,0-13.35,0-20.02-.05-1.1,0-1.16.49-1.16,1.35.02,21.03.02,42.06.02,63.08Z"/>
      <path class="cls-13" d="M89.3,526.18c-1.39,13.3,3.25,24.2,13.22,32.93,5.05,4.42,10.95,7.42,17.17,9.8.69.26,1.37.56,2.05.85.55,1.8.12,3.65.25,5.47-.29.47-.78.5-1.25.59-3.18.62-5.65,2.88-6.19,5.79-.62,3.35.44,6.08,3.22,8.1.83.6,1.8.84,2.77,1.1.41.11.89.03,1.18.45.52,1.1.17,2.27.25,3.4-5.26.11-10.05-3.66-11.13-9.06-.93-4.65.76-10.4,7.61-13.18-.28-.47-.8-.49-1.22-.66-7.31-2.96-14.05-6.82-19.63-12.48-8.04-8.16-12.06-18-12.04-29.47,0-.35-.02-.7-.03-1.05.1-.86.21-1.72.29-2.58.11-1.1.53-2,1.77-2,1.25,0,1.67.88,1.7,2.01Z"/>
      <path class="cls-9" d="M121.73,591.24c-3.43-.16-5.87-1.86-7.13-4.98-1.25-3.12-.62-6.09,1.68-8.54,1.16-1.23,2.67-2.07,4.44-2.26.43-.05.85-.16,1.27-.24.09.08.18.16.27.24.14.42.15.85.15,1.29-.01,4.19,0,8.38-.01,12.56,0,.65.07,1.32-.41,1.87-.09.02-.18.04-.27.05Z"/>
      <path class="cls-10" d="M122,591.19c0-4.84,0-9.67,0-14.51,0-.42-.14-.88.27-1.22,4.01-.15,7.94,3.75,7.63,8.44-.26,3.91-3.75,7.32-7.9,7.29Z"/>
    </g>
    <g>
      <path class="cls-14" d="M319.41,528.6c4.93,3.21,9.85,6.44,14.8,9.61.79.51.76,1.25.8,1.94.18,2.61.41,5.22.29,7.84-.3,6.49-1.11,12.91-2.81,19.2-3.82,14.14-11.19,26.12-22.08,35.89-7.96,7.15-17.11,12.41-27.01,16.4-.14.06-.32.03-.48.04-.32-.4-.39-.87-.39-1.36-.01-7.41-.04-14.82.01-22.24,0-.22.04-.43.09-.64.27-.89,1.04-.93,1.78-1.03,5.23-.67,9.67-5.07,9.61-11.15-.05-4.6-2.52-7.86-6.56-9.97-.49-.25-1.32-.31-1.31-.91.01-.69.88-.73,1.41-.95,5.84-2.42,11.36-5.4,16.2-9.5,8.47-7.18,13.69-16.17,15.04-27.29.18-1.48.2-2.96.23-4.44,0-.51-.12-1.07.38-1.45Z"/>
      <path class="cls-7" d="M282.95,594.84c-.01,8.23-.02,16.46-.03,24.7-4.12-1.44-7.98-3.44-11.82-5.49-3.92-2.1-7.53-4.68-11.18-7.2-4.35-3.64-8.55-7.44-12.17-11.85-8.19-10-13.34-21.37-15.66-34.07-1.09-5.95-1.5-11.94-1.28-17.97.04-1.18.2-2.35.26-3.52.03-.54.27-.88.7-1.17,4.91-3.17,9.81-6.35,14.71-9.53.51.44.36,1.05.37,1.59.13,10.18,3.46,19.13,10.2,26.8,4.87,5.54,10.86,9.52,17.48,12.63,1.34.63,2.71,1.2,4.08,1.79.4.17.88.35.91.84.02.49-.49.55-.82.71-4.89,2.43-6.99,6-6.68,11.38.28,4.8,4.78,9.39,9.58,9.77.43.03.88-.02,1.27.22.12.1.15.21.08.35Z"/>
      <path class="cls-14" d="M304.18,505.25c0,4.17-.01,8.35-.04,12.52,0,.51.08.9.56,1.21,3.66,2.34,7.3,4.69,10.95,7.05,1.01,1.78.69,3.74.58,5.61-.18,3.18-.77,6.31-1.71,9.37-1.73,5.65-4.63,10.62-8.6,14.97-6.01,6.59-13.64,10.62-21.86,13.69-.52.2-1.11.47-1.42-.34-.18-.64-.13-1.3-.13-1.95,0-19.88,0-39.76,0-59.65q0-2.59,2.54-2.59c5.89,0,11.77,0,17.66,0,.47,0,.96-.15,1.4.14l.07-.03Z"/>
      <path class="cls-12" d="M282.95,569.67c8.51-2.91,16.3-7.04,22.51-13.71,5.46-5.86,8.82-12.75,10.01-20.69.46-3.08.62-6.15.17-9.24.08-1.06.53-1.85,1.7-1.88,1.25-.04,1.64.8,1.85,1.89.16.86.09,1.72.21,2.57.15,7.14-1.37,13.9-4.68,20.24-4.12,7.89-10.33,13.73-17.89,18.25-3.37,2.01-6.91,3.67-10.74,5.14,2.05.81,3.83,1.76,5.22,3.33,3.04,3.43,3.85,7.35,2.34,11.64-1.42,4.01-4.42,6.36-8.5,7.35-.71.17-1.48.04-2.19.29-.01-.06-.02-.13-.02-.19-.62-1.04-.3-2.18-.37-3.28.03-.15.12-.26.25-.33,1.9-.32,3.76-.74,5.23-2.13,2.19-2.08,2.95-4.63,2.21-7.5-.76-2.94-2.74-4.78-5.73-5.48-.46-.11-.96-.09-1.39-.33-.19-.13-.32-.3-.41-.51-.28-1.74-.15-3.49-.13-5.23.07-.17.19-.22.36-.17Z"/>
      <path class="cls-7" d="M282.95,569.67c-.09.03-.17.05-.26.08-.4.17-.77.02-1.14-.12-5.84-2.24-11.47-4.86-16.45-8.73-8.73-6.8-14.07-15.54-15.3-26.65-.25-2.26-.3-4.52-.07-6.77.05-.45.06-.98.51-1.29,3.62-2.35,7.23-4.72,10.87-7.04.65-.41.81-.89.81-1.61-.03-3.71.01-7.42-.03-11.13-.01-.97.17-1.36,1.27-1.36,13.26.02,26.53-.02,39.79-.03.39,0,.88-.26,1.16.27-6.67,0-13.35,0-20.02-.05-1.1,0-1.16.49-1.16,1.35.02,21.03.02,42.06.02,63.08Z"/>
      <path class="cls-4" d="M250.24,526.18c-1.39,13.3,3.25,24.2,13.22,32.93,5.05,4.42,10.95,7.42,17.17,9.8.69.26,1.37.56,2.05.85.55,1.8.12,3.65.25,5.47-.29.47-.78.5-1.25.59-3.18.62-5.65,2.88-6.19,5.79-.62,3.35.44,6.08,3.22,8.1.83.6,1.8.84,2.77,1.1.41.11.89.03,1.18.45.52,1.1.17,2.27.25,3.4-5.26.11-10.05-3.66-11.13-9.06-.93-4.65.76-10.4,7.61-13.18-.28-.47-.8-.49-1.22-.66-7.31-2.96-14.05-6.82-19.63-12.48-8.04-8.16-12.06-18-12.04-29.47,0-.35-.02-.7-.03-1.05.1-.86.21-1.72.29-2.58.11-1.1.53-2,1.77-2,1.25,0,1.67.88,1.7,2.01Z"/>
      <path class="cls-9" d="M282.68,591.24c-3.43-.16-5.87-1.86-7.13-4.98-1.25-3.12-.62-6.09,1.68-8.54,1.16-1.23,2.67-2.07,4.44-2.26.43-.05.85-.16,1.27-.24.09.08.18.16.27.24.14.42.15.85.15,1.29-.01,4.19,0,8.38-.01,12.56,0,.65.07,1.32-.41,1.87-.09.02-.18.04-.27.05Z"/>
      <path class="cls-10" d="M282.95,591.19c0-4.84,0-9.67,0-14.51,0-.42-.14-.88.27-1.22,4.01-.15,7.94,3.75,7.63,8.44-.26,3.91-3.75,7.32-7.9,7.29Z"/>
    </g>
  </g>
</svg>