<?xml version="1.0" encoding="UTF-8"?>
<svg id="Layer_2" data-name="Layer 2" xmlns="http://www.w3.org/2000/svg" viewBox="0 0 1231.78 1231.03">
  <defs>
    <style>
      .cls-1 {
        fill: #58595b;
      }

      .cls-1, .cls-2, .cls-3, .cls-4, .cls-5, .cls-6, .cls-7, .cls-8, .cls-9, .cls-10, .cls-11 {
        stroke-width: 0px;
      }

      .cls-2 {
        fill: #000;
      }

      .cls-3 {
        fill: #bbbdbf;
      }

      .cls-4 {
        fill: #6d6e70;
      }

      .cls-5 {
        fill: #a6a8ab;
      }

      .cls-6 {
        fill: #e6e7e8;
      }

      .cls-7 {
        fill: #808184;
      }

      .cls-8 {
        fill: #404041;
      }

      .cls-9 {
        fill: #231f20;
      }

      .cls-10 {
        fill: #929497;
      }

      .cls-11 {
        fill: #d0d2d3;
      }
    </style>
  </defs>
  <g id="Layer_1-2" data-name="Layer 1">
    <g>
      <path class="cls-2" d="M775.09,567.46c24.41-8.79,42.44-26.14,59.95-44.47,19.42-20.32,39.85-39.66,59.39-59.88,4.93-5.1,8.28-5.67,14.28-1.8,61.33,39.6,125.95,44.35,194.08,19.32,38.54-14.16,77.13-30.06,119.86-23.94,8.82,1.26,7.67-4.4,7.66-9.82-.05-51.68.1-103.35-.13-155.03-.05-10.99,4.83-25.63-2.19-31.92-6.03-5.4-20.42-1.19-31.07-1.83-7.63-.46-15.83,2.69-22.82-2.43-13.64-10-27.08-20.26-41.14-30.82,23.25-23.23,46-46.04,68.84-68.76,17.09-17,27.21-37.27,28.29-61.48,1.65-36.81-19.01-70.74-51.87-86.02-33.52-15.59-72.68-9.57-99.97,16.7-28.29,27.24-57.37,53.94-82.98,83.58-20.73,24-43.28,33.92-74.86,30.73-51.59-5.2-94.22,14.27-128.96,52.7-17.57,19.43-36.8,37.36-57.33,58.04v-12.48c0-75.65-.15-151.31.21-226.96.04-8.53-1.8-10.94-10.66-10.89-72.77.4-145.53.35-218.3.05-7.51-.03-9.63,1.6-9.6,9.42.32,86.4.3,172.81.02,259.21-.03,7.56,1.66,9.73,9.45,9.58,27.28-.53,54.57,0,81.86-.35,6.46-.08,8.28,1.67,8.25,8.2-.26,54.57-.21,109.14-.06,163.71.02,5.68-.77,8.53-7.59,9.66-31.82,5.24-59.48,19.4-82.46,42-5.3,5.21-8.01,4.07-12.86-.11-52.57-45.36-105.21-90.64-158.19-135.52-6.83-5.78-7-9.32-2.5-16.93,24.4-41.24,31.22-85.49,20.36-132.34-19.8-85.4-104.34-146.01-190.25-136.35C70.38,90.5.72,165.07,0,254.41c-.51,63.61,25.51,114.26,77.77,150.77,14.51,10.14,21.92,22.88,21.35,40.59-.37,11.56-.37,23.16.1,34.72,1.63,40.54,35.73,74.1,76.21,75.31,45.69,1.37,83.21-33.96,81.9-80.48-.93-33.08.87-62.51,34.57-80.34,6.85-3.62,9.95-5.25,16.2.16,53.44,46.24,107.12,92.23,160.97,137.99,5.43,4.62,5.83,7.78,2.83,14.15-17.45,36.96-20.85,75.31-8.08,114.34,2.67,8.15-.19,10.51-6.42,13.73-42.48,21.93-84.9,44.01-127.08,66.5-7.18,3.83-10.47,2.8-15.95-3.33-47.76-53.51-107.13-74.05-177.43-58.48-95.01,21.03-154.26,117.81-132.28,214.34,21.44,94.14,117.66,154.89,211.53,133.56,108.11-24.56,167.16-134.1,128.51-238.69-2.05-5.55-3.4-8.99,3.52-12.53,43.32-22.11,86.44-44.62,129.43-67.35,5.71-3.02,8.3-1.83,11.99,2.9,25.19,32.25,58.07,52.1,98.38,59.27,4.78.85,7.31,1.78,7.27,7.35-.22,29.35-.26,58.71.03,88.05.06,5.96-2.5,6.84-7.37,6.5-4.11-.29-8.36.5-12.38-.17-10.71-1.78-17.19,1.75-18.83,13.01-1.84,12.67-8.31,14.06-18.05,7.09-8.45-6.04-14.61-3.79-21.66,3.72-18.1,19.28-36.69,38.19-56.17,56.06-8.6,7.89-10.35,14.7-3.81,23.73,6.77,9.34,4.25,14.28-6.71,16.41-10.45,2.03-14.94,7.31-14.33,19.36,1.32,25.98,1.03,52.09.11,78.1-.39,11.14,2.08,17.85,13.72,19.69,11.67,1.85,13.57,7.9,6.8,17.22-6.48,8.9-4.21,15.25,3.85,22.73,19.39,17.98,38.12,36.74,56.12,56.1,7.43,7.99,13.74,10.47,22.73,3.93,9.21-6.7,15.26-5,17.15,6.77,1.85,11.54,8.6,14.09,19.76,13.69,26.01-.94,52.13-1.2,78.11.1,12.02.6,17.35-3.82,19.37-14.3,2.12-10.99,7.09-13.46,16.44-6.73,9,6.48,15.83,4.88,23.74-3.78,17.55-19.21,36.07-37.61,55.22-55.24,8.46-7.79,10.66-14.53,3.99-23.73-6.53-9.01-4.94-14.48,6.5-16.36,11.75-1.94,14.81-8.89,14.34-20.61-1.03-25.59-1.05-51.28,0-76.87.49-11.94-2.93-18.62-14.73-20.3-11.1-1.59-12.55-7.08-6.42-15.51,7.08-9.75,4.78-16.7-4.01-24.76-18.26-16.75-36.03-34.18-52.55-52.64-9.26-10.35-17.25-13.33-28.72-4.87-6.32,4.67-11.39,3.91-12.73-4.87-2.2-14.47-10.48-19.76-24.59-17.1-2.79.53-5.81-.23-8.66.14-5.69.74-6.82-1.87-6.79-7.06.21-28.94.18-57.88.03-86.82-.02-4.86,1.05-7.07,6.55-8.01,41.77-7.11,75.46-27.88,100.91-61.68,3.76-4.99,6.48-5.82,12.03-2.86,15.27,8.14,30.73,15.99,46.48,23.15,6.85,3.12,7.54,6.34,5.13,13.06-11.62,32.44-14.47,65.72-10.23,100.02,15.08,121.94,136.52,209.65,256.79,184.98,116.02-23.8,189.55-126.03,175.55-244.07-12.16-102.48-104.06-186.31-207.59-188.38-79.38-1.58-142.25,30.71-188.32,95.31-4.04,5.67-6.7,7.84-13.62,4.04-15.16-8.32-30.73-15.96-46.47-23.14-6.62-3.02-6.73-6.75-4.92-12.66,8.02-26.23,9.08-52.78,2.28-79.44-1.56-6.11-.96-10.05,5.67-12.44ZM217.28,485.04c-4.14,17.98-20.94,31.39-39.49,31.11-18.02-.27-34.24-13.66-38.24-31.14-1.42-6.22-.56-9.07,6.8-8.66,10.67.58,21.4.15,32.1.15s21.43.44,32.1-.15c7.43-.41,8.16,2.53,6.74,8.7ZM158.66,257.49c.4-10.69,9.5-19.29,20.17-19.07,10.68.22,19.44,9.21,19.38,19.87-.05,10.67-8.9,19.57-19.57,19.69-11.14.13-20.4-9.36-19.98-20.49ZM258.95,370.93c-21.44,15.06-36.46,33.27-39.98,59.62-1.56,11.7-10.13,4.84-15.38,6.03-7.02,1.58-5.23-4.47-5.25-8.13-.13-17.77-.06-35.55-.06-53.32,0-9.92.49-19.87-.11-29.75-1.08-17.83-.11-32.01,18.8-43.71,21.98-13.59,26.31-42.88,16.13-66.7-10.22-23.93-34.94-38.61-60.71-36.05-25.54,2.53-46.52,21.59-52.28,47.49-5.31,23.85,5.67,50.28,28.13,62.09,9.16,4.82,10.58,10.32,10.48,19.16-.36,33.06-.07,66.13-.23,99.19-.02,4.21,2.73,10.91-6.15,9.95-6.12-.66-13.72,3.33-15.17-8.26-3.18-25.44-18.5-42.58-38.91-57.47-47.48-34.64-67.03-82.48-55.69-139.95,10.92-55.32,45.75-91.71,100.23-106.82,65.05-18.04,132.74,14.06,161.29,74.71,28.63,60.82,10.17,133.05-45.16,171.92ZM177.82,992.41c-76.21-.31-138.43-62.92-138.28-139.17.15-76.75,63.26-139.17,140.1-138.58,76.18.59,138.11,63.46,137.68,139.77-.43,76.16-63.24,138.29-139.49,137.98ZM1013.09,635.25c97.92.4,177.65,80.86,177.48,179.09-.18,98.48-80.95,178.52-179.74,178.1-97.9-.41-177.62-80.88-177.46-179.12.17-98.54,80.83-178.47,179.72-178.07ZM1149.21,286.99c9.7,8.12,19.78,13.02,32.57,10.91,6.93-1.15,9.04,1.59,8.97,8.69-.36,33.9-.16,67.8-.16,101.7,0,4.42,1.2,9.66-6.32,8.69-18.07-2.33-33.72,6.31-50.2,11.17-29.62,8.72-57.9,21.87-88.74,26.56-35.61,5.42-69.5-.52-100.46-18.26-45.47-26.05-90.12-53.53-134.97-80.66-13.96-8.45-19.12-22.05-14.71-35.88,4.54-14.24,15.89-22.26,32.16-21.87,25.53.61,48.69,8.61,68.88,24.27,20.89,16.21,41.48,32.81,61.99,49.5,4.75,3.86,9.48,5.67,15.69,5.61,29.35-.29,58.71-.37,88.06.04,7.36.1,9.76-1.41,9.77-9.37.04-30.49.39-30.49-30.66-30.49h-20.71c28.02-28.05,54.27-54.11,80.2-80.49,4.41-4.48,6.84-1.77,10.12.71,12.85,9.71,26.18,18.85,38.52,29.18ZM1102.02,57.45c18.67-18.64,41.22-22.68,61.96-11.51,30.49,16.42,35.89,55.34,10.62,80.92-40.64,41.15-81.73,81.86-122.62,122.75-23.96,23.95-48.19,47.64-71.7,72.02-6.92,7.17-10.94,8.66-19.59,1.56-22.58-18.54-43.98-38.95-72.41-51.48,3.02-3.28,4.88-5.45,6.89-7.46,68.93-68.95,137.85-137.91,206.85-206.79ZM725.76,314.7c19.55-20.14,39.62-39.78,59.47-59.63,12.84-12.85,26.26-25.17,38.42-38.64,26.32-29.14,58.68-41.39,100.3-36.66-26.23,26.04-51.18,50.54-75.78,75.4-6.62,6.69-14.06,2.94-21.02,2.92-42.63-.12-75.12,33.04-73.22,74.76.23,5.13,4.75,10.62.54,15.36-6.56,7.39-13.58,14.44-20.96,21.01-4,3.56-6.74-1.08-9.13-3.48-13.97-14.02-13.64-35.59,1.36-51.04ZM705.18,281.25c-2.94,2.17-6.31,3.94-8.77,6.56-29.23,31.12-29.4,74.94.11,105.7,5.3,5.52,6.19,8.54-.05,13.23-16.42,12.35-25.45,30.04-33.17,48.28-5.71,13.5-14.58,3.33-21.92,3.98-8.03.71-6.47-5.53-6.48-10.23-.04-54.07.03-108.14-.11-162.21-.01-5.69.37-8.92,7.72-8.71,20.14.58,40.32.2,60.48.2.72,1.07,1.44,2.13,2.16,3.2ZM654.34,621.81c-2.81,18.37-20.14,33.16-39.13,33.24-20.01.08-37.55-15.55-39.66-35.36-2.18-20.36,12.34-39.82,32.32-43.46,5.37-.98,8.92-.59,11.18,5.87,5.04,14.37,15.41,24.36,29.7,29.52,5.68,2.05,6.36,5.19,5.59,10.19ZM544.37,238.52c-7.02.05-8.9-1.9-8.86-8.89.27-60.33.27-120.67,0-181-.03-7,1.88-8.92,8.88-8.87,47.11.3,94.23.31,141.34,0,7.02-.05,8.96,1.9,8.87,8.89-.37,30.58-.16,61.16-.16,91.74s-.22,59.51.16,89.26c.09,7.01-1.88,8.92-8.88,8.88-47.11-.3-94.23-.31-141.34,0ZM647.83,930.43c3.02,12.75,20.45,18.68,32.15,11.87,11.1-6.46,18.87-5.93,26.88,4.58,5.7,7.49,13.27,13.56,19.94,20.32,1.66,1.69,3.05,3.64,4.4,5.26-1.57,3.37-2.79,5.96-3.98,8.57-9.84,21.52-5.11,33.65,16.95,41.35,7.17,2.5,11.14,5.62,9.95,13.88-.76,5.26-.64,10.78-.05,16.08,1.81,16.19.54,29.33-19.75,33.38-9.37,1.87-15.86,20.65-10.45,28.87,8.9,13.52,5.84,23.1-6.4,31.73-2.66,1.88-5.11,4.33-6.99,6.99-9.11,12.84-19.16,16.61-33.64,6.98-8.18-5.44-27.08,2.87-29.13,12.63-3.28,15.65-11.85,20.77-26.81,18.08-3.6-.65-7.48-.52-11.13-.02-14.17,1.94-23.61-1.08-27.49-17.44-3.06-12.9-20.21-18.68-32.15-11.8-11.11,6.4-19.29,6.14-26.79-4.74-2.54-3.68-5.94-7.03-9.6-9.62-12.94-9.15-16.52-19.2-7.03-33.64,5.4-8.22-2.86-27.09-12.6-29.14-15.61-3.29-20.77-11.84-18.06-26.8.65-3.6.52-7.48.02-11.13-1.94-14.17,1.06-23.64,17.45-27.44,12.7-2.94,18.66-20.42,11.85-32.18-6.41-11.08-6.35-19.33,4.67-26.76,3.03-2.04,5.65-4.91,7.9-7.83,9.92-12.88,20.28-19.81,36.5-8.28,7.24,5.15,26.12-3.91,27.99-13.11,3.18-15.7,11.85-20.76,26.8-18.08,3.6.65,7.48.52,11.13.02,14.17-1.95,23.62,1.09,27.49,17.43ZM673.02,719.3c-46.61,26.13-104.82,17.83-142.53-20.34-37.72-38.17-45.35-96.52-18.68-142.74,26.13-45.29,80.04-69.11,128.55-56.09-5.32,10.81-10.6,21.43-15.76,32.12-2.69,5.58-7.69,3.67-11.96,3.82-43.24,1.54-77.61,37.74-76.92,81.11.69,43.05,36.86,77.97,80.32,77.56,41.66-.4,77.16-34.38,77.97-75.85.18-9.07,3.17-13.24,10.94-16.42,8.66-3.54,16.85-8.24,25.46-12.53,12.69,49.89-11.51,103.65-57.38,129.36ZM672.88,574.1c-5.65,2.82-10.49,1.36-14.6-2.85-3.87-3.96-4.49-8.58-1.96-13.64,14.34-28.69,28.64-57.4,42.69-85.57,20.01,19.97,39.46,39.37,59.53,59.4-28.24,14.06-56.95,28.34-85.65,42.65ZM727.62,442.05c-4.54-4.45-3.48-7.04.48-10.92,15.04-14.69,29.8-29.66,44.66-44.52,2.57-2.57,4.33-5.2,9.11-2.19,27.43,17.28,55.17,34.08,83.8,51.64-22.88,22.81-45.39,45.12-67.7,67.63-3.68,3.71-5.98,2.63-9.09-.5-20.33-20.48-40.65-40.96-61.26-61.14Z"/>
      <path class="cls-7" d="M1010.83,992.44c98.79.42,179.56-79.62,179.74-178.1.18-98.23-79.56-178.69-177.48-179.09-98.88-.4-179.55,79.52-179.72,178.07-.17,98.23,79.56,178.71,177.46,179.12ZM982.27,715.72c8.67-1.44,10.15-4.25,10.06-12.16-.35-29.05-.05-28.71,29.6-28.85,8.3-.04,11.04,2.43,9.92,10.34-2.58,18.21-.63,30.59,22.75,35.32,21.53,4.36,32.31,24.07,36.36,45.89,1.03,5.53-.04,8.54-6.65,8-6.16-.51-12.41-.46-18.58-.02-8.23.59-14.38,0-17.34-10.04-2.06-6.98-9.57-9.84-17.19-9.86-12.81-.03-25.63-.32-38.43.08-12.43.39-20.73,9-20.41,20.26.31,10.78,8.35,18.79,20.25,19.19,12.8.42,25.62-.02,38.43.16,31.48.44,56.83,22.97,60.05,53.19,3.28,30.71-17.39,59.02-48.83,64.51-9.26,1.62-10.75,4.73-10.63,13.01.41,28.09.09,27.6-27.75,28.27-9.97.24-13.39-2.79-11.77-12.24.14-.8.02-1.65.02-2.48-.03-7.44,2.01-15.74-.64-22.08-3-7.16-12.98-3.83-19.54-6.57-21.57-9.01-34.47-24.73-38.87-47.62-1.16-6.02-.13-9.36,7.19-8.62,6.14.62,12.4.37,18.58.06,7.62-.38,13.84-.72,16.49,9.45,1.99,7.64,9.97,10.43,18.04,10.43,12.4,0,24.8.26,37.19-.07,12.67-.34,20.98-8.42,21.02-19.7.04-11.27-8.28-19.32-20.9-19.83-7.01-.28-14.05-.05-21.07-.05,0,.14-.01.29-.02.43-9.47-.49-19.14.07-28.38-1.68-28.83-5.44-48.79-30.13-48.58-58.86.21-28.57,20.44-53.03,49.64-57.88Z"/>
      <path class="cls-5" d="M142.82,124.29c-54.48,15.11-89.31,51.5-100.23,106.82-11.35,57.48,8.2,105.31,55.69,139.95,20.41,14.89,35.73,32.03,38.91,57.47,1.45,11.59,9.04,7.59,15.17,8.26,8.88.96,6.13-5.75,6.15-9.95.16-33.06-.13-66.13.23-99.19.1-8.83-1.32-14.34-10.48-19.16-22.46-11.82-33.44-38.24-28.13-62.09,5.76-25.9,26.74-44.96,52.28-47.49,25.77-2.56,50.49,12.13,60.71,36.05,10.17,23.82,5.85,53.11-16.13,66.7-18.91,11.7-19.88,25.88-18.8,43.71.6,9.88.11,19.83.11,29.75,0,17.77-.07,35.55.06,53.32.03,3.66-1.77,9.72,5.25,8.13,5.25-1.18,13.81,5.67,15.38-6.03,3.52-26.36,18.53-44.56,39.98-59.62,55.34-38.87,73.8-111.1,45.16-171.92-28.55-60.65-96.24-92.76-161.29-74.71Z"/>
      <path class="cls-4" d="M1100.57,257.1c-25.93,26.37-52.18,52.43-80.2,80.49h20.71c31.05,0,30.7,0,30.66,30.49-.01,7.96-2.42,9.48-9.77,9.37-29.35-.41-58.71-.33-88.06-.04-6.21.06-10.94-1.75-15.69-5.61-20.51-16.68-41.1-33.29-61.99-49.5-20.19-15.66-43.35-23.66-68.88-24.27-16.27-.39-27.63,7.62-32.16,21.87-4.4,13.83.75,27.43,14.71,35.88,44.84,27.13,89.5,54.61,134.97,80.66,30.96,17.74,64.85,23.67,100.46,18.26,30.84-4.69,59.12-17.83,88.74-26.56,16.48-4.85,32.14-13.49,50.2-11.17,7.52.97,6.32-4.27,6.32-8.69,0-33.9-.2-67.8.16-101.7.08-7.09-2.04-9.83-8.97-8.69-12.79,2.11-22.88-2.78-32.57-10.91-12.33-10.33-25.66-19.47-38.52-29.18-3.28-2.48-5.71-5.19-10.12-.71Z"/>
      <path class="cls-3" d="M888.28,271.71c28.43,12.53,49.83,32.95,72.41,51.48,8.65,7.1,12.68,5.62,19.59-1.56,23.51-24.38,47.74-48.06,71.7-72.02,40.9-40.89,81.98-81.61,122.62-122.75,25.27-25.58,19.87-64.5-10.62-80.92-20.74-11.17-43.3-7.13-61.96,11.51-69,68.88-137.92,137.85-206.85,206.79-2.01,2.01-3.87,4.18-6.89,7.46Z"/>
      <path class="cls-6" d="M179.64,714.66c-76.84-.59-139.95,61.83-140.1,138.58-.15,76.25,62.07,138.87,138.28,139.17,76.25.31,139.06-61.82,139.49-137.98.43-76.31-61.49-139.18-137.68-139.77ZM250.89,898.48c-32.14,17.55-65.02,33.87-98.28,49.22-34.99,16.14-72.59-8.52-73.34-47.02-.31-15.69-.05-31.39-.05-47.08,0-15.69-.24-31.39.05-47.08.71-38.6,38.21-63.31,73.22-47.18,33.26,15.33,66.13,31.68,98.3,49.18,36.17,19.67,36.25,70.24.1,89.97Z"/>
      <path class="cls-6" d="M685.71,238.52c7,.04,8.97-1.86,8.88-8.88-.38-29.75-.16-59.5-.16-89.26s-.21-61.16.16-91.74c.09-6.99-1.85-8.93-8.87-8.89-47.11.31-94.23.3-141.34,0-7-.05-8.91,1.87-8.88,8.87.27,60.33.27,120.67,0,181-.03,6.99,1.84,8.93,8.86,8.89,47.11-.31,94.23-.3,141.34,0ZM603.55,79.6c14.04,0,28.09.3,42.11-.13,6.51-.2,9.18.94,9.29,8.48.46,31.35.76,31.34-30.89,31.34h-9.91c-9.5,0-19.06-.68-28.47.2-9.15.85-10.64-2.74-10.54-11.02.35-28.86.02-28.86,28.4-28.86ZM605.15,198.67c-32.89,0-32.76.01-29.94-33.47.4-4.73,1.55-6.36,6.38-6.31,22.3.21,44.59.2,66.89,0,4.79-.04,6.94,1.43,6.27,6.29-.06.41-.02.83,0,1.24q1.65,32.25-29.77,32.25h-19.82Z"/>
      <path class="cls-7" d="M620.34,912.99c-3.65.5-7.52.62-11.13-.02-14.95-2.68-23.61,2.38-26.8,18.08-1.87,9.2-20.75,18.26-27.99,13.11-16.22-11.53-26.58-4.6-36.5,8.28-2.25,2.92-4.87,5.79-7.9,7.83-11.02,7.43-11.09,15.68-4.67,26.76,6.81,11.76.85,29.24-11.85,32.18-16.39,3.8-19.39,13.27-17.45,27.44.5,3.65.63,7.53-.02,11.13-2.71,14.96,2.45,23.51,18.06,26.8,9.74,2.05,18,20.92,12.6,29.14-9.49,14.45-5.91,24.49,7.03,33.64,3.66,2.59,7.06,5.94,9.6,9.62,7.5,10.88,15.69,11.14,26.79,4.74,11.95-6.88,29.09-1.1,32.15,11.8,3.88,16.36,13.31,19.38,27.49,17.44,3.65-.5,7.53-.63,11.13.02,14.96,2.69,23.53-2.43,26.81-18.08,2.05-9.76,20.95-18.07,29.13-12.63,14.48,9.63,24.52,5.87,33.64-6.98,1.89-2.66,4.33-5.11,6.99-6.99,12.24-8.63,15.3-18.21,6.4-31.73-5.41-8.22,1.08-27,10.45-28.87,20.29-4.04,21.56-17.19,19.75-33.38-.59-5.3-.71-10.82.05-16.08,1.19-8.25-2.79-11.37-9.95-13.88-22.06-7.71-26.8-19.84-16.95-41.35,1.19-2.61,2.42-5.21,3.98-8.57-1.34-1.62-2.74-3.57-4.4-5.26-6.67-6.77-14.24-12.83-19.94-20.32-8-10.52-15.78-11.05-26.88-4.58-11.7,6.82-29.13.88-32.15-11.87-3.87-16.34-13.32-19.38-27.49-17.43ZM714.24,1052.14c-.07,54.68-44.91,99.23-99.68,99.02-54.13-.2-98.53-44.63-98.7-98.75-.17-54.79,44.35-99.56,99.05-99.62,54.78-.06,99.4,44.57,99.33,99.35Z"/>
      <path class="cls-1" d="M704.94,602.47c-7.77,3.18-10.77,7.36-10.94,16.42-.8,41.47-36.31,75.45-77.97,75.85-43.46.42-79.63-34.51-80.32-77.56-.69-43.37,33.68-79.57,76.92-81.11,4.27-.15,9.26,1.76,11.96-3.82,5.16-10.68,10.44-21.3,15.76-32.12-48.51-13.03-102.42,10.8-128.55,56.09-26.67,46.22-19.03,104.57,18.68,142.74,37.71,38.16,95.92,46.47,142.53,20.34,45.87-25.72,70.07-79.48,57.38-129.36-8.61,4.3-16.8,8.99-25.46,12.53Z"/>
      <path class="cls-3" d="M797.97,503.69c22.31-22.5,44.82-44.81,67.7-67.63-28.63-17.57-56.37-34.36-83.8-51.64-4.78-3.01-6.53-.38-9.11,2.19-14.86,14.86-29.62,29.83-44.66,44.52-3.96,3.87-5.02,6.47-.48,10.92,20.61,20.19,40.94,40.67,61.26,61.14,3.11,3.13,5.41,4.21,9.09.5Z"/>
      <path class="cls-4" d="M733.52,369.22c7.38-6.56,14.4-13.62,20.96-21.01,4.21-4.74-.31-10.23-.54-15.36-1.9-41.73,30.59-74.88,73.22-74.76,6.95.02,14.4,3.77,21.02-2.92,24.59-24.86,49.55-49.36,75.78-75.4-41.62-4.73-73.98,7.52-100.3,36.66-12.16,13.46-25.58,25.79-38.42,38.64-19.85,19.85-39.92,39.49-59.47,59.63-15.01,15.46-15.33,37.02-1.36,51.04,2.39,2.4,5.13,7.04,9.13,3.48Z"/>
      <path class="cls-11" d="M656.32,557.61c-2.53,5.06-1.9,9.69,1.96,13.64,4.11,4.21,8.95,5.66,14.6,2.85,28.7-14.32,57.41-28.6,85.65-42.65-20.07-20.03-39.52-39.43-59.53-59.4-14.05,28.17-28.34,56.88-42.69,85.57Z"/>
      <path class="cls-8" d="M619.04,582.11c-2.27-6.46-5.81-6.85-11.18-5.87-19.98,3.64-34.5,23.1-32.32,43.46,2.12,19.81,19.65,35.45,39.66,35.36,18.99-.08,36.32-14.87,39.13-33.24.77-5,.09-8.13-5.59-10.19-14.29-5.16-24.67-15.15-29.7-29.52Z"/>
      <path class="cls-11" d="M210.54,476.34c-10.67.59-21.4.15-32.1.15s-21.43.43-32.1-.15c-7.36-.4-8.22,2.45-6.8,8.66,4,17.48,20.21,30.87,38.24,31.14,18.55.28,35.35-13.13,39.49-31.11,1.42-6.17.69-9.11-6.74-8.7Z"/>
      <path class="cls-10" d="M198.21,258.29c.05-10.66-8.71-19.64-19.38-19.87-10.67-.22-19.77,8.39-20.17,19.07-.41,11.13,8.84,20.62,19.98,20.49,10.67-.12,19.51-9.03,19.57-19.69Z"/>
      <path class="cls-2" d="M981.21,832.47c9.24,1.74,18.91,1.18,28.38,1.68,0-.14.01-.29.02-.43,7.03,0,14.06-.23,21.07.05,12.62.51,20.94,8.56,20.9,19.83-.04,11.28-8.35,19.35-21.02,19.7-12.39.34-24.79.07-37.19.07-8.07,0-16.05-2.8-18.04-10.43-2.65-10.17-8.87-9.83-16.49-9.45-6.18.31-12.44.56-18.58-.06-7.32-.74-8.35,2.6-7.19,8.62,4.4,22.89,17.3,38.62,38.87,47.62,6.57,2.74,16.54-.58,19.54,6.57,2.66,6.34.61,14.64.64,22.08,0,.83.12,1.67-.02,2.48-1.62,9.45,1.8,12.48,11.77,12.24,27.83-.68,28.15-.18,27.75-28.27-.12-8.28,1.37-11.39,10.63-13.01,31.44-5.49,52.11-33.79,48.83-64.51-3.22-30.22-28.57-52.75-60.05-53.19-12.81-.18-25.63.26-38.43-.16-11.9-.39-19.94-8.4-20.25-19.19-.32-11.27,7.98-19.87,20.41-20.26,12.8-.4,25.62-.11,38.43-.08,7.62.02,15.13,2.88,17.19,9.86,2.96,10.04,9.12,10.63,17.34,10.04,6.17-.44,12.42-.49,18.58.02,6.61.55,7.68-2.47,6.65-8-4.06-21.82-14.84-41.53-36.36-45.89-23.38-4.73-25.33-17.11-22.75-35.32,1.12-7.91-1.62-10.38-9.92-10.34-29.65.14-29.96-.21-29.6,28.85.1,7.92-1.39,10.72-10.06,12.16-29.21,4.85-49.44,29.32-49.64,57.88-.21,28.73,19.75,53.42,48.58,58.86Z"/>
      <path class="cls-2" d="M250.79,808.51c-32.18-17.49-65.04-33.85-98.3-49.18-35.01-16.14-72.5,8.58-73.22,47.18-.29,15.69-.05,31.39-.05,47.08,0,15.69-.25,31.39.05,47.08.75,38.5,38.35,63.16,73.34,47.02,33.26-15.34,66.14-31.67,98.28-49.22,36.14-19.73,36.07-70.3-.1-89.97ZM226.81,866.67c-28.73,14.32-57.35,28.85-86.12,43.08-13.4,6.62-21.56,1.5-21.75-13.44-.19-14.43-.04-28.86-.04-43.29,0-14.02-.12-28.04.03-42.06.16-15.5,7.71-20.55,21.26-13.87,28.79,14.19,57.42,28.71,86.14,43.05,5.67,2.83,11.3,5.73,11.45,13.13.15,7.41-5.21,10.54-10.96,13.41Z"/>
      <path class="cls-2" d="M585.68,119.49c9.42-.88,18.98-.2,28.47-.2h9.91c31.65,0,31.35,0,30.89-31.34-.11-7.54-2.79-8.68-9.29-8.48-14.03.43-28.07.13-42.11.13-28.38,0-28.05,0-28.4,28.86-.1,8.28,1.38,11.88,10.54,11.02Z"/>
      <path class="cls-2" d="M654.74,166.43c-.02-.41-.05-.83,0-1.24.67-4.86-1.47-6.34-6.27-6.29-22.3.2-44.59.21-66.89,0-4.83-.04-5.98,1.58-6.38,6.31-2.82,33.48-2.95,33.47,29.94,33.47h19.82q31.42,0,29.77-32.25Z"/>
      <path class="cls-2" d="M515.86,1052.41c.17,54.12,44.57,98.55,98.7,98.75,54.77.21,99.62-44.34,99.68-99.02.07-54.78-44.55-99.41-99.33-99.35-54.7.06-99.22,44.83-99.05,99.62ZM674.55,1052.48c-.22,32.37-26.99,58.96-59.4,59-32.91.05-59.82-27.06-59.6-60.02.22-32.86,27.58-59.48,60.63-58.98,32.31.49,58.59,27.5,58.38,59.99Z"/>
      <path class="cls-9" d="M226.33,840.13c-28.72-14.34-57.35-28.86-86.14-43.05-13.55-6.68-21.09-1.63-21.26,13.87-.15,14.02-.03,28.04-.03,42.06,0,14.43-.15,28.86.04,43.29.2,14.95,8.36,20.07,21.75,13.44,28.77-14.23,57.4-28.76,86.12-43.08,5.76-2.87,11.12-6,10.96-13.41-.15-7.39-5.79-10.3-11.45-13.13Z"/>
    </g>
  </g>
</svg>