<?xml version="1.0" encoding="UTF-8"?>
<svg id="Layer_2" data-name="Layer 2" xmlns="http://www.w3.org/2000/svg" viewBox="0 0 354.29 444.95">
  <defs>
    <style>
      .cls-1 {
        fill: #b1b2b4;
      }

      .cls-1, .cls-2, .cls-3, .cls-4, .cls-5, .cls-6, .cls-7, .cls-8, .cls-9, .cls-10 {
        stroke-width: 0px;
      }

      .cls-2 {
        fill: #9b9d9f;
      }

      .cls-3 {
        fill: #cacbcd;
      }

      .cls-4 {
        fill: #a6a8ab;
      }

      .cls-5 {
        fill: none;
      }

      .cls-6 {
        fill: #f1f1f2;
      }

      .cls-7 {
        fill: #808184;
      }

      .cls-8 {
        fill: #929497;
      }

      .cls-9 {
        fill: #797a7c;
      }

      .cls-10 {
        fill: #777;
      }
    </style>
  </defs>
  <g id="Layer_1-2" data-name="Layer 1">
    <g>
      <path class="cls-5" d="M220.53,96.29l43.8-49.92c.07-.07.14-.14.21-.21.07-.14.14-.35.28-.49.21-.35.42-.76.49-1.11.07-.21.14-.35.21-.56.07-.56.14-1.11.07-1.67v-.14c-.07-.42-.21-.9-.42-1.32-.07-.07-.14-.21-.21-.28,0-.07,0-.14-.07-.21L242.15,2.5c-.14-.28-.35-.49-.56-.76-.14-.07-.21-.21-.28-.28-.42-.35-.83-.7-1.32-.9-.21-.07-.35-.14-.56-.21-.42-.14-.9-.28-1.39-.28-.07,0-.14-.07-.28-.07h-124.73c-.14,0-.28.14-.42.14-.63.07-1.18.21-1.74.49-.28.07-.42.21-.63.35-.56.35-.97.76-1.32,1.25-.07.14-.28.21-.35.35v.14s-.07.07-.07.14l-19.26,37.82v.14l-.07.07c-.28.56-.35,1.11-.42,1.67v.42c0,.42.07.9.14,1.32.07.14.14.35.14.49.21.49.49.97.76,1.32.07.07.07.14.14.21v.07l43.45,49.99C55.69,116.24,0,186.95,0,267.88c0,97.68,79.54,177.08,177.15,177.08s177.15-79.4,177.15-177.08c0-81.2-55.76-151.91-133.76-171.59ZM195.22,109.64l27.67-61.53h26.35l-54.02,61.53ZM172.84,141.83s.07,0,.14.07c.14.14.28.28.49.42.14.14.28.35.42.42.14.14.35.14.49.21.07.07.14.14.28.21.07,0,.14,0,.28.07.56.21,1.11.35,1.74.35s1.18-.14,1.74-.35c.07-.07.21-.07.28-.07.07-.07.14-.14.28-.21s.28-.07.42-.21c.21-.07.28-.28.49-.42.14-.14.35-.21.49-.42q.07,0,.14-.07l12.17-13.9c70.57,7.79,125.42,68.69,125.42,139.95,0,77.73-63.2,140.93-140.93,140.93s-140.93-63.2-140.93-140.93c0-72.03,53.46-131.68,124.66-139.88l11.96,13.84ZM142.59,48.11h28.99v66.05l-28.99-66.05ZM181.74,114.71V48.11h29.96l-29.96,66.6ZM238.33,15.85l13.21,22.04h-23.85l10.64-22.04ZM229.71,10.22l-8.76,18.15-4.8-18.15h13.56ZM212.95,37.89h-25.17l19.26-22.18,5.91,22.18ZM198.35,10.22l-21.69,24.96-21.27-24.96h42.97ZM146.83,15.92l18.77,21.97h-24.26l5.49-21.97ZM137.8,10.22l-4.87,19.33-11.12-19.33h15.99ZM113.32,15.85l12.65,22.04h-23.85l11.19-22.04ZM104.98,48.11h26.49l27.04,61.67-11.54-13.35c-.07,0-.07-.07-.14-.07l-41.85-48.25ZM177.15,434.8c-92.05,0-166.93-74.88-166.93-166.93,0-78.01,54.79-146,130.64-162.9l12.1,13.9c-73,11.68-126.88,74.04-126.88,148.99,0,83.36,67.79,151.15,151.08,151.15s151.15-67.79,151.15-151.15c0-74.04-55.34-137.66-127.58-149.06l12.24-13.9c76.13,16.69,131.19,84.68,131.19,162.96,0,92.05-74.88,166.93-167,166.93Z"/>
      <path class="cls-10" d="M344.14,267.88c0,92.05-74.88,166.93-167,166.93S10.22,359.93,10.22,267.88c0-78.01,54.79-146,130.64-162.9l12.1,13.9c-73,11.68-126.88,74.04-126.88,148.99,0,83.36,67.79,151.15,151.08,151.15s151.15-67.79,151.15-151.15c0-74.04-55.34-137.66-127.58-149.06l12.24-13.9c76.13,16.69,131.19,84.68,131.19,162.96Z"/>
      <polygon class="cls-6" points="125.98 37.89 102.13 37.89 113.32 15.85 125.98 37.89"/>
      <polygon class="cls-6" points="137.8 10.22 132.93 29.55 121.81 10.22 137.8 10.22"/>
      <polygon class="cls-6" points="165.61 37.89 141.34 37.89 146.83 15.92 165.61 37.89"/>
      <polygon class="cls-6" points="198.35 10.22 176.66 35.18 155.39 10.22 198.35 10.22"/>
      <polygon class="cls-6" points="212.95 37.89 187.78 37.89 207.04 15.71 212.95 37.89"/>
      <polygon class="cls-6" points="229.71 10.22 220.95 28.37 216.15 10.22 229.71 10.22"/>
      <polygon class="cls-6" points="251.54 37.89 227.69 37.89 238.33 15.85 251.54 37.89"/>
      <polygon class="cls-6" points="249.24 48.11 195.22 109.64 222.89 48.11 249.24 48.11"/>
      <polygon class="cls-6" points="211.7 48.11 181.74 114.71 181.74 48.11 211.7 48.11"/>
      <polygon class="cls-6" points="171.59 48.11 171.59 114.16 142.59 48.11 171.59 48.11"/>
      <path class="cls-6" d="M158.52,109.78l-11.54-13.35c-.07,0-.07-.07-.14-.07l-41.85-48.25h26.49l27.04,61.67Z"/>
    </g>
    <g>
      <path class="cls-2" d="M163.87,233.57c1.55-1.52,3.14-3,4.64-4.56.64-.66,1.03-.67,1.68,0,1.82,1.87,3.73,3.67,5.6,5.49.82.29,1.35.94,1.94,1.52,8.44,8.43,16.88,16.87,25.31,25.31.58.58,1.24,1.12,1.53,1.93.43.47.83.96,1.28,1.41,18.8,18.8,37.58,37.63,56.42,56.38,3.78,3.76,6.55,7.97,7.24,13.35.01.09.17.16.27.24v.38c-.32,1.28-.32,2.56,0,3.84v1.15c-.67,6.73-4.25,11.63-9.75,15.22-8.02,5.24-19,4.06-25.79-2.72-19.81-19.78-39.6-39.59-59.4-59.38-8.94-9.04-17.97-17.98-26.94-26.98-.63-.63-1.34-1.2-1.69-2.05-1.77-1.81-3.49-3.68-5.33-5.41-.89-.84-.79-1.32.04-2.09,1.39-1.29,2.67-2.7,4-4.06-.22-.91.41-1.42.94-1.96,5.35-5.37,10.71-10.74,16.09-16.09.52-.52,1.01-1.21,1.94-.93Z"/>
      <path class="cls-7" d="M145.07,322.75c-.77,1.11-.07,2.21,0,3.32.43,6.69-.14,13.23-3.27,19.31-4.62,8.98-11.54,15.33-21.26,18.51-2.4.79-4.89,1.16-7.31,1.84h-7.29c-1.91-.38-3.8-.8-5.72-1.13-1.44-.25-1.53-.63-.5-1.7,7.25-7.64,14.69-15.1,22.2-22.49,1.23-1.21,1.44-1.97.54-3.62-2.44-4.46-5.4-8.51-9.01-12.03-3.52-3.43-7.49-6.29-11.85-8.62-1.19-.63-1.88-.51-2.77.46-7.06,7.74-14.63,14.98-22.01,22.41-.47.47-.84,1.37-1.6,1.16-.64-.17-.51-1.1-.65-1.67-2.77-11.33-.63-21.78,6.33-31.04,5.8-7.72,13.77-12.05,23.34-13.5,3.64-.55,7.22-.48,10.81.21.49.09.87,0,1.28-.17,6.46,1.16,12.05,4.1,16.92,8.4,6.19,5.46,9.97,12.36,11.83,20.36Z"/>
      <path class="cls-1" d="M269.77,338.87c-.59-1.28-.63-2.56,0-3.84v3.84Z"/>
      <path class="cls-2" d="M104.12,217.64c.08-1.1-.84-1.56-1.49-2.07-1.26-.99-.97-1.64.03-2.64,7.39-7.43,14.91-14.76,22.04-22.44,8.11-8.74,17.97-13.95,29.59-16.02,8.01-1.43,16.03-1.14,24.02.32,6.8,1.24,13.4,3.18,19.81,5.78.04.71-.56.97-.94,1.36-1.42,1.47-2.98,2.82-4.31,4.37-3.02,3.51-6.38,5.65-11.34,6.26-8.04.97-14.07,5.99-18.93,12.31-2.62,3.4-4.74,7.1-6.44,11.06-.93,2.16-3.14,3.3-4.55,5.11-.09.77-.69,1.19-1.18,1.67-5.43,5.45-10.87,10.88-16.31,16.32-.49.49-.96,1.03-1.68,1.19-.65.64-1.31,1.28-1.96,1.92-.55.49-1.03-.03-1.54-.09-6.86-6.02-13.13-12.64-19.59-19.06-1.76-1.75-3.62-3.41-5.2-5.34Z"/>
      <path class="cls-7" d="M198.03,212.29c.21-2.48-.49-4.89-.43-7.38.32-13.45,6.28-23.6,17.67-30.6,6.51-4,13.69-5.45,21.23-4.94,2.46.17,5,.52,7.44,1.62-1.68,1.87-3.18,3.68-4.83,5.34-6.16,6.22-12.35,12.41-18.58,18.56-.93.92-1.1,1.64-.47,2.81,4.71,8.73,11.23,15.67,20,20.41,2.67,1.44,2.7,1.42,4.92-.83,7.03-7.14,14.05-14.3,21.08-21.44.48-.48.85-1.11,1.66-1.36,3.66,12.62,1.46,24.15-6.72,34.26-5.79,7.15-13.61,11.05-22.8,12.36-3.86.55-7.61-.08-11.41-.08-3.5-.3-6.64-1.71-9.69-3.28-9.52-4.89-15.59-12.65-18.62-22.86-.25-.85-.4-1.72-.44-2.61Z"/>
      <path class="cls-3" d="M145.07,322.75c-.85-.04-.72-.75-.85-1.27-1.78-7.1-5.32-13.14-10.68-18.15-4.47-4.19-9.68-6.97-15.56-8.55-.62-.17-1.25-.24-1.67-.79,1.69-1.64,3.4-3.26,5.07-4.92,7.81-7.79,15.61-15.6,23.4-23.4.49-.49.94-1.04,1.4-1.56,5.51,5.47,11.05,10.92,16.54,16.41,4.1,4.09,8.15,8.23,12.22,12.35-1.51,1.46-3.04,2.9-4.53,4.38-7.99,7.97-15.97,15.96-23.94,23.94-.49.49-.94,1.04-1.4,1.56Z"/>
      <path class="cls-3" d="M198.03,212.29c.94,1.47,1.05,3.23,1.64,4.82,4.46,12.02,12.95,19.64,25.21,23.16.66.19,1.38.23,1.9.77-5.73,5.68-11.47,11.35-17.19,17.04-1.71,1.7-3.36,3.46-5.04,5.19-3.22-3.17-6.46-6.32-9.65-9.52-6.39-6.4-12.75-12.83-19.12-19.25,3.17-3.11,6.37-6.2,9.51-9.35,4.27-4.27,8.49-8.58,12.73-12.87Z"/>
      <path class="cls-2" d="M118,254.43q3.2,2.67.32,5.62c-4.06,4.17-8.15,8.31-12.16,12.52-.85.9-1.3.92-2.2.03-9.7-9.65-19.44-19.26-29.23-28.82-1.06-1.04-.98-1.54.01-2.53,4.56-4.57,9.08-9.19,13.52-13.88,1.02-1.08,1.62-1.06,2.54.02.62.73,1.23,1.72,2.49,1.41.99,2.16,2.87,3.54,4.55,5.08,6.39,5.86,12.35,12.16,18.46,18.29.67.67,1.02,1.59,1.7,2.26Z"/>
      <path class="cls-8" d="M118,254.43c-1.39-.37-1.75-1.79-2.64-2.66-5.45-5.39-10.8-10.9-16.32-16.22-1.74-1.68-3.56-3.28-5.29-4.97-.52-.51-1.05-.99-.47-1.78,5.48-1.9,9.12-5.6,10.84-11.15.87.08,1.27.8,1.8,1.33,5.87,5.86,11.72,11.74,17.6,17.59,1.8,1.79,4,3.16,5.47,5.28.23.18.59.3.34.71-5.55,1.8-9.5,5.25-11.26,10.95-.09.29-.05.61-.07.92Z"/>
      <path class="cls-9" d="M132.42,240.22c1.13-1.64,2.66-2.9,4.06-4.28,5.05-4.96,9.85-10.16,15.11-14.9,3.88,3.87,7.77,7.73,11.64,11.61.26.26.43.62.64.93-.57.49-1.18.94-1.71,1.46-5.28,5.26-10.55,10.52-15.81,15.8-.53.53-.97,1.14-1.46,1.71-4.16-4.11-8.32-8.22-12.48-12.32Z"/>
      <path class="cls-4" d="M129.33,242.56c-.11-.24-.23-.47-.34-.71.49.1.98.19,1.47.29-.24.52-.7.44-1.13.42Z"/>
    </g>
  </g>
</svg>