<?xml version="1.0" encoding="UTF-8"?>
<svg id="Layer_2" data-name="Layer 2" xmlns="http://www.w3.org/2000/svg" viewBox="0 0 690.98 645.44">
  <defs>
    <style>
      .cls-1 {
        fill: #365e7d;
      }

      .cls-1, .cls-2, .cls-3, .cls-4, .cls-5, .cls-6, .cls-7, .cls-8, .cls-9, .cls-10, .cls-11, .cls-12, .cls-13, .cls-14, .cls-15 {
        stroke-width: 0px;
      }

      .cls-2 {
        fill: #0cbe65;
      }

      .cls-3 {
        fill: #fefaf4;
      }

      .cls-4 {
        fill: #eee1dc;
      }

      .cls-5 {
        fill: #fedb9d;
      }

      .cls-6 {
        fill: #feeab9;
      }

      .cls-7 {
        fill: #d54553;
      }

      .cls-8 {
        fill: #0ed578;
      }

      .cls-9 {
        fill: #fcca02;
      }

      .cls-10 {
        fill: #da5c6e;
      }

      .cls-11 {
        fill: #fc8b02;
      }

      .cls-12 {
        fill: #ececec;
      }

      .cls-13 {
        fill: #407092;
      }

      .cls-14 {
        fill: #cb7964;
      }

      .cls-15 {
        fill: #fcad02;
      }
    </style>
  </defs>
  <g id="Layer_1-2" data-name="Layer 1">
    <g>
      <path class="cls-13" d="M439.67,282.72c-15.54,14.21-34,18.4-54.59,17.01-14.7-.99-29.49-.5-44.25-.67-3.26,2.18-6.88,2.26-10.6,1.92-17.54-1.61-35.16-1.81-52.73-2.75-39.33-3.47-78.73-6.32-117.85-12.03-18.38-2.68-36.55-6.7-54.11-12.51-23-7.61-37.64-24.01-43.27-47.74-8.86-37.32-14.11-75.26-17.84-113.38-.86-8.74-1.8-17.62-.71-26.57,2.66-21.7,14.05-37.47,31.88-49.3,4.2-2.79,9.31-2.81,13.53-5.31,22.86-5.16,46.11-7.98,69.28-11.15,63.73-8.72,127.79-13.45,192.13-13.2,25.44.1,50.89,1.58,76.32,2.62,14.34.59,26.75,6.35,37.89,15.12,11.63,5.99,15.55,17.32,19.35,28.53,2.49,7.33,2.63,15.11,2.07,22.77-4.3,59.47-11.9,118.43-28.04,176.01-3.75,11.65-7.41,23.37-18.48,30.63Z"/>
      <path class="cls-13" d="M212.92,410.04c-14.89,39.15-24.55,79.59-30.22,121.05-.78,5.68.53,9.74,4.86,13.63,9.43,8.45,18,17.65,21.62,30.35,9.94,34.94-17.72,69.22-53.93,65.5-31.51-3.24-60.91-13.84-88.32-29.8-4.94-3.48-5.03-8.76-5.14-13.99-.47-22.76,1.03-45.44,2.66-68.13,2.74-38.27,7.27-76.31,13.66-114.13,5.44-32.21,12.16-64.17,20.77-95.7,3.06-11.21,4.3-11.64,15.7-9.85,32.26,5.08,64.67,8.89,97.21,11.7,13.53,1.17,27.1,1.96,40.58,3.59,3.24,1.44,2.11,3.86,1.21,6.06-1.38,3.35-3.59,6.24-5.53,9.27-11.71,19.46-21.17,40.01-29.76,60.99-1.37,3.36-2,7.2-5.36,9.46Z"/>
      <path class="cls-1" d="M254.23,325.74c-28.26-.82-56.29-4.13-84.37-7.26-20.73-2.31-41.41-4.75-61.9-8.67-3.1-.59-4.55.5-5.36,3.42-7.76,27.95-14.08,56.24-19.25,84.77-3.76,20.74-7.2,41.56-10.01,62.44-2.26,16.77-3.2,33.72-5.02,50.55-3.03,28.17-4.6,56.39-4.44,84.72.03,5.31.77,10.29,3.03,15.06-14.97-7.46-30.38-14.98-32.36-34.17-1.11-10.76-.34-21.76.17-32.62,1.44-30.6,3.57-61.17,7.24-91.58,5.76-47.73,14.04-95.03,25.68-141.7,2.97-11.9,6.06-23.78,9.67-35.49,1.6-5.18-.17-6.59-4.77-7.46-11.43-2.17-22.54-5.27-32.11-12.41-14.51-10.82-21.24-25.74-24.74-43.13C8.31,175.43,2.58,138.46.13,100.99c-2.09-31.88,22.24-58.06,49.83-62.24,13.13-1.99,25.94-5.87,39.19-7.37-9.62,5.79-19.83,10.66-27.35,19.49-11.64,13.68-17.13,28.91-16.01,47.29,1.25,20.39,3.74,40.59,6.34,60.8,3.01,23.39,7.04,46.65,13.08,69.42,7.05,26.57,26.09,40.75,52.11,46.78,20.09,4.66,40.18,9.33,60.73,11.56,15.87,1.73,31.75,3.28,47.64,4.77,16.87,1.58,33.75,3.01,50.63,4.5.8,1.94-.45,3.31-1.42,4.67-5.29,7.41-11.01,14.51-15.98,22.15-1.05,1.62-2.26,3.32-4.68,2.93Z"/>
      <path class="cls-10" d="M456.16,252.9c8.2-32.26,15.12-64.77,19.74-97.76,3.66-26.14,6.08-52.4,8.15-78.7,1.59-20.25-5.15-37.31-19.29-51.66,9.8,1.17,19.73.44,29.5,2.21,25.08,4.54,44.05,26.12,43.19,51.7-1.55,46.22-8.08,91.88-18.36,136.97-1.96,8.6-4.38,17.09-6.59,25.63-15.41,13.67-33.91,14.99-53.16,13.3-1.24-.11-2.29-.82-3.2-1.68Z"/>
      <path class="cls-10" d="M212.92,410.04c9.11-24.63,19.55-48.64,33.7-70.87,9.86-2.71,19.69.09,29.39.87,13.51,1.09,27.14.15,40.55,2.52,2.4.42,4.97.32,6.83,2.33-5.15,13.86-9.97,27.86-15.52,41.56-8,19.73-26.56,30.64-47.85,28.57-15.71-1.53-31.4-3.32-47.1-4.99Z"/>
      <path class="cls-7" d="M323.4,344.89c-21.01-1.72-42.18-1.27-63.1-4.32-4.55-.66-9.36,1.35-13.68-1.4,2.54-4.48,5.07-8.95,7.61-13.43,7.36-9.92,14.72-19.83,22.08-29.75,21.51,1.02,43.01,2.05,64.52,3.07-5.81,15.28-11.62,30.55-17.43,45.83Z"/>
      <path class="cls-14" d="M607.17,64.45c-11.43.03-19.22-5.9-23.03-16.3-3.36-9.17-.99-18.62,7.02-24.4,9.98-7.21,20.18-14.17,30.67-20.61,10.2-6.25,22.59-2.87,28.98,7.32,3.65,5.83,7.68,11.62,6.93,19.06-.7,7.02-3.54,13.18-9.81,16.5-11.53,6.1-23.38,11.58-35.19,17.13-2.15,1.01-4.73,1.11-5.58,1.3Z"/>
      <path class="cls-14" d="M657.91,282.86c-2.13,8.72-5.8,18.07-15.27,23.59-9.12,5.31-17.53,2.5-25.56-3.16-8.08-5.69-16.45-10.98-24.52-16.7-10.45-7.41-12.69-18.72-6.23-29.98,6.31-10.98,16.98-14.86,28.41-9.73,10.59,4.75,21.04,9.84,31.33,15.22,7.58,3.96,11.49,10.61,11.83,20.75Z"/>
      <path class="cls-14" d="M664.1,129.42c25.66-2.56,31.12,21.71,24.02,38.64-3.7,8.83-11.77,12.41-21.26,11.84-11.34-.69-22.67-1.61-33.99-2.65-10.92-1-18.68-9.49-19.36-20.84-.71-11.84,5.79-21.99,16.69-23.76,11.18-1.82,22.59-2.21,33.9-3.23Z"/>
      <path class="cls-7" d="M456.16,252.9c7.12,0,14.24,0,21.37,0,10.39.02,19.6-3.58,28.32-8.95,1.99-1.23,3.52-4.18,6.68-2.68-4.72,24.81-26.82,42.31-53.72,42.33-6.38,0-12.75-.58-19.13-.89,7.71-8.72,13.29-18.61,16.49-29.82Z"/>
      <path class="cls-12" d="M243.09,172.97c-48.48,0-96.96.05-145.44-.04-14.61-.03-23.67-10.92-20.45-24.13,1.91-7.84,8.67-13.78,16.78-14.59,2.21-.22,4.45-.12,6.67-.12,94.98,0,189.96,0,284.94.01,2.96,0,6-.14,8.86.47,9.5,2.04,16.27,11.53,15.21,20.87-1.17,10.21-8.89,17.39-19.65,17.44-34.38.16-68.76.07-103.14.08-14.59,0-29.19,0-43.78,0Z"/>
    </g>
    <g>
      <path class="cls-2" d="M562.24,457.2c26.29-.01,52.59-.25,78.87.03,21.91.24,38.59,17.55,38.62,39.51.05,36.39.04,72.77,0,109.16-.02,19.71-13.16,35.32-32.66,38.97-.4.08-.78.12-.93.57h-120.02c-.96-1.06-.96-2.37-.96-3.67,0-36.73-.06-73.46.02-110.19,0-.2.03-.4.05-.6-.1-6.01-.13-12.02,0-18.02-.11-4.97-.06-9.94-.03-14.91.01-1.86.22-3.65,2.52-4.14,1.8-.61,3.71-.64,5.57-1.02,15.55-3.19,27.26-16.82,28.06-32.68.05-1.06-.17-2.23.89-3.01Z"/>
      <path class="cls-8" d="M528.5,494.4c-1.8.34-2.51,1.24-2.45,3.25.17,5.09.03,10.19,0,15.28-1.39,1.1-3.04.83-4.62.83-10.7.03-21.4,0-32.1.02-4.09,0-4.27.18-4.27,4.18-.01,24.5-.01,49,0,73.5,0,4.19.21,4.36,4.42,4.39,2.4.02,4.8.01,7.2,0,4.28-.02,4.43-.15,4.45-4.33.02-7.2,0-14.4,0-21.6,0-1-.01-2,.01-3,.11-3.9.72-4.55,4.54-4.65,2.7-.07,5.4-.04,8.1-.02,1.98.02,2.95-.78,2.94-2.83-.02-3.5.01-7-.02-10.5-.02-1.89-.94-2.69-2.77-2.72-2.9-.05-5.8.07-8.7-.07-3.16-.15-3.91-.85-4.05-3.94-.13-3-.13-6,.03-9,.1-1.82.9-3.13,2.86-3.2,6.7-.25,13.39-.22,20.09-.02.71.02,1.36.32,1.9.8,0,38.22.01,76.44.02,114.65h-120.62c-15.71-2.39-25.8-11.59-31.59-26.03-.91-2.26-.71-4.7-1.41-6.97v-122.42c1.02-.5.73-1.57.93-2.37,4.51-17.96,19.16-30.21,37.51-30.41,26.36-.28,52.72-.04,79.08-.02.96.69.84,1.74.88,2.72.67,18.72,16.82,34.13,35.47,33.5.83.08,1.68.1,2.15.97Z"/>
      <path class="cls-5" d="M528.5,494.4c-.8-.06-1.6-.12-2.4-.19-1.02-1.15-.95-2.58-.96-3.97-.02-21.34-.02-42.69,0-64.03,0-1.39-.08-2.82.99-3.95,16.52-.38,32.34,12.46,35.34,28.73.38,2.05.51,4.14.75,6.21.42,17.87-11.84,32.26-27.26,36.07-2.12.52-4.32.76-6.48,1.13Z"/>
      <path class="cls-6" d="M526.14,422.25c-.01,23.99-.02,47.97-.03,71.96-18.01.81-35.08-14.89-35.99-33.1-.06-1.3-.07-2.6-.11-3.89.68-17.72,13.66-32.33,32.24-34.93,1.27-.18,2.59-.03,3.89-.04Z"/>
      <path class="cls-11" d="M526.13,338.29c26.85-.07,51.04,8.04,72.7,23.79,11.42,8.3,20.99,18.42,29.03,30.03,1.19,1.72,1.15,2.54-.69,3.63-3.69,2.19-7.33,4.48-10.8,7-2.07,1.51-2.78.47-3.87-1.09-13.54-19.39-31.52-32.86-53.97-40.33-10.51-3.5-21.35-5-32.39-5.23-.54-.51-.8-1.16-.83-1.87-.21-4.69-.21-9.38,0-14.06.03-.71.29-1.36.83-1.87Z"/>
      <path class="cls-15" d="M526.13,338.29c0,5.93,0,11.87,0,17.8-18.83.3-36.5,4.84-52.81,14.41-13.48,7.91-24.69,18.27-33.53,31.15-1.28,1.86-2.12,2.37-4.13.9-3.38-2.47-6.95-4.7-10.56-6.83-1.83-1.08-1.9-1.88-.69-3.62,17.34-24.89,40.53-41.55,69.77-49.66,10.43-2.9,21.09-4.39,31.96-4.15Z"/>
      <path class="cls-15" d="M526.12,380.29c28.31.36,50.42,12.44,66.87,35.29.82,1.14.84,1.72-.46,2.52-3.91,2.41-7.77,4.9-11.54,7.52-1.64,1.14-2.4.83-3.52-.74-9.31-13.04-21.79-21.43-37.4-25.13-4.58-1.09-9.25-1.47-13.95-1.66-.56-.5-.8-1.16-.83-1.86-.21-4.69-.21-9.37,0-14.06.03-.71.3-1.36.83-1.87Z"/>
      <path class="cls-9" d="M526.12,380.29c0,5.93,0,11.86,0,17.79-17.56.43-32.67,6.64-45.08,19.16-2.46,2.49-4.71,5.17-6.63,8.11-.75,1.15-1.41,1.37-2.64.54-3.89-2.63-7.81-5.21-11.82-7.63-1.53-.92-1.5-1.56-.55-2.93,8.53-12.25,19.53-21.58,33.08-27.8,10.65-4.89,21.85-7.49,33.63-7.24Z"/>
      <path class="cls-4" d="M575.37,554.83c0-13.09.04-26.18-.04-39.27-.01-2.03.45-2.77,2.62-2.72,6.59.14,13.19-.02,19.79.07,14.46.19,25.35,6.59,31.19,19.82,7.14,16.18,6.89,32.52-2.39,47.94-6.38,10.61-16.2,15.97-28.67,16.13-6.59.09-13.19-.05-19.78.17-2.36.08-2.78-.71-2.76-2.86.09-13.09.05-26.18.05-39.27Z"/>
      <path class="cls-3" d="M526.1,530.79c-6.99.03-13.99.18-20.97.03-2.47-.05-3.07.76-2.93,3.05.18,2.99.14,6,0,8.99-.08,1.81.43,2.47,2.33,2.4,3.69-.14,7.39.03,11.09-.07,1.64-.05,2.29.37,2.24,2.14-.12,4.59-.11,9.19,0,13.78.04,1.76-.6,2.19-2.25,2.15-3.69-.1-7.4.07-11.09-.07-1.9-.07-2.34.59-2.33,2.39.08,9.49-.06,18.98.1,28.47.04,2.47-.77,3-3.03,2.91-4.29-.17-8.59-.12-12.89-.01-1.74.04-2.19-.57-2.18-2.24.04-26.47.04-52.95,0-79.42,0-1.75.36-2.45,2.3-2.44,13.19.1,26.37.08,39.56.1.01,5.95.02,11.9.03,17.86Z"/>
      <path class="cls-4" d="M541.79,554.87c0-12.98.07-25.97-.06-38.95-.03-2.56.73-3.22,3.18-3.09,3.99.2,8,.21,11.98,0,2.41-.13,2.97.67,2.96,3-.09,21.47-.05,42.95-.05,64.42,0,4.69-.12,9.39.05,14.08.08,2.17-.65,2.69-2.7,2.62-4.29-.15-8.59-.14-12.88,0-1.98.07-2.52-.56-2.51-2.52.08-13.18.04-26.37.04-39.55Z"/>
      <path class="cls-3" d="M470.95,596.9c-5.99,0-11.75-.03-17.52.02-1.59.01-1.63-1.2-1.95-2.2-2.94-9.12-5.87-18.24-8.82-27.36-.62-1.92-6.13-3.34-7.53-1.92-.7.71-.36,1.71-.36,2.58-.02,8.7-.09,17.4.04,26.1.03,2.26-.59,2.93-2.85,2.83-4.09-.19-8.21-.2-12.3,0-2.39.12-2.98-.63-2.97-2.98.09-22.7.05-45.41.05-68.11,0-3.7.02-7.4,0-11.1,0-1.14.15-1.93,1.6-1.89,9.79.28,19.65-.89,29.36.56,10.93,1.64,18.43,8.03,21.54,18.73,3.08,10.58-.24,19.5-8.41,26.64-1.34,1.17-1.37,2.06-.87,3.57,3.53,10.81,6.97,21.66,10.44,32.49.18.56.31,1.12.56,2.02Z"/>
      <path class="cls-2" d="M593.37,554.74c0-7.09.09-14.18-.05-21.27-.04-2.17.68-2.62,2.71-2.63,9.84-.02,15.59,4.07,18.18,13.54,1.99,7.26,2.13,14.6-.35,21.81-3.01,8.78-9.2,12.92-18.41,12.68-1.79-.05-2.13-.67-2.11-2.27.07-7.29.03-14.58.03-21.87Z"/>
      <path class="cls-8" d="M434.76,539.38q0-8.99,8.6-8.47c5.12.31,9.01,3.89,8.95,8.25-.07,4.37-4.01,7.87-9.16,7.94-2.67.04-6.09,1.13-7.8-.44-1.76-1.61-.3-5.09-.58-7.27Z"/>
    </g>
    <g>
      <path class="cls-2" d="M562.24,457.2c26.29-.01,52.59-.25,78.87.03,21.91.24,38.59,17.55,38.62,39.51.05,36.39.04,72.77,0,109.16-.02,19.71-13.16,35.32-32.66,38.97-.4.08-.78.12-.93.57h-120.02c-.96-1.06-.96-2.37-.96-3.67,0-36.73-.06-73.46.02-110.19,0-.2.03-.4.05-.6-.1-6.01-.13-12.02,0-18.02-.11-4.97-.06-9.94-.03-14.91.01-1.86.22-3.65,2.52-4.14,1.8-.61,3.71-.64,5.57-1.02,15.55-3.19,27.26-16.82,28.06-32.68.05-1.06-.17-2.23.89-3.01Z"/>
      <path class="cls-8" d="M528.5,494.4c-1.8.34-2.51,1.24-2.45,3.25.17,5.09.03,10.19,0,15.28-1.39,1.1-3.04.83-4.62.83-10.7.03-21.4,0-32.1.02-4.09,0-4.27.18-4.27,4.18-.01,24.5-.01,49,0,73.5,0,4.19.21,4.36,4.42,4.39,2.4.02,4.8.01,7.2,0,4.28-.02,4.43-.15,4.45-4.33.02-7.2,0-14.4,0-21.6,0-1-.01-2,.01-3,.11-3.9.72-4.55,4.54-4.65,2.7-.07,5.4-.04,8.1-.02,1.98.02,2.95-.78,2.94-2.83-.02-3.5.01-7-.02-10.5-.02-1.89-.94-2.69-2.77-2.72-2.9-.05-5.8.07-8.7-.07-3.16-.15-3.91-.85-4.05-3.94-.13-3-.13-6,.03-9,.1-1.82.9-3.13,2.86-3.2,6.7-.25,13.39-.22,20.09-.02.71.02,1.36.32,1.9.8,0,38.22.01,76.44.02,114.65h-120.62c-15.71-2.39-25.8-11.59-31.59-26.03-.91-2.26-.71-4.7-1.41-6.97v-122.42c1.02-.5.73-1.57.93-2.37,4.51-17.96,19.16-30.21,37.51-30.41,26.36-.28,52.72-.04,79.08-.02.96.69.84,1.74.88,2.72.67,18.72,16.82,34.13,35.47,33.5.83.08,1.68.1,2.15.97Z"/>
      <path class="cls-5" d="M528.5,494.4c-.8-.06-1.6-.12-2.4-.19-1.02-1.15-.95-2.58-.96-3.97-.02-21.34-.02-42.69,0-64.03,0-1.39-.08-2.82.99-3.95,16.52-.38,32.34,12.46,35.34,28.73.38,2.05.51,4.14.75,6.21.42,17.87-11.84,32.26-27.26,36.07-2.12.52-4.32.76-6.48,1.13Z"/>
      <path class="cls-6" d="M526.14,422.25c-.01,23.99-.02,47.97-.03,71.96-18.01.81-35.08-14.89-35.99-33.1-.06-1.3-.07-2.6-.11-3.89.68-17.72,13.66-32.33,32.24-34.93,1.27-.18,2.59-.03,3.89-.04Z"/>
      <path class="cls-11" d="M526.13,338.29c26.85-.07,51.04,8.04,72.7,23.79,11.42,8.3,20.99,18.42,29.03,30.03,1.19,1.72,1.15,2.54-.69,3.63-3.69,2.19-7.33,4.48-10.8,7-2.07,1.51-2.78.47-3.87-1.09-13.54-19.39-31.52-32.86-53.97-40.33-10.51-3.5-21.35-5-32.39-5.23-.54-.51-.8-1.16-.83-1.87-.21-4.69-.21-9.38,0-14.06.03-.71.29-1.36.83-1.87Z"/>
      <path class="cls-15" d="M526.13,338.29c0,5.93,0,11.87,0,17.8-18.83.3-36.5,4.84-52.81,14.41-13.48,7.91-24.69,18.27-33.53,31.15-1.28,1.86-2.12,2.37-4.13.9-3.38-2.47-6.95-4.7-10.56-6.83-1.83-1.08-1.9-1.88-.69-3.62,17.34-24.89,40.53-41.55,69.77-49.66,10.43-2.9,21.09-4.39,31.96-4.15Z"/>
      <path class="cls-15" d="M526.12,380.29c28.31.36,50.42,12.44,66.87,35.29.82,1.14.84,1.72-.46,2.52-3.91,2.41-7.77,4.9-11.54,7.52-1.64,1.14-2.4.83-3.52-.74-9.31-13.04-21.79-21.43-37.4-25.13-4.58-1.09-9.25-1.47-13.95-1.66-.56-.5-.8-1.16-.83-1.86-.21-4.69-.21-9.37,0-14.06.03-.71.3-1.36.83-1.87Z"/>
      <path class="cls-9" d="M526.12,380.29c0,5.93,0,11.86,0,17.79-17.56.43-32.67,6.64-45.08,19.16-2.46,2.49-4.71,5.17-6.63,8.11-.75,1.15-1.41,1.37-2.64.54-3.89-2.63-7.81-5.21-11.82-7.63-1.53-.92-1.5-1.56-.55-2.93,8.53-12.25,19.53-21.58,33.08-27.8,10.65-4.89,21.85-7.49,33.63-7.24Z"/>
      <path class="cls-4" d="M575.37,554.83c0-13.09.04-26.18-.04-39.27-.01-2.03.45-2.77,2.62-2.72,6.59.14,13.19-.02,19.79.07,14.46.19,25.35,6.59,31.19,19.82,7.14,16.18,6.89,32.52-2.39,47.94-6.38,10.61-16.2,15.97-28.67,16.13-6.59.09-13.19-.05-19.78.17-2.36.08-2.78-.71-2.76-2.86.09-13.09.05-26.18.05-39.27Z"/>
      <path class="cls-3" d="M526.1,530.79c-6.99.03-13.99.18-20.97.03-2.47-.05-3.07.76-2.93,3.05.18,2.99.14,6,0,8.99-.08,1.81.43,2.47,2.33,2.4,3.69-.14,7.39.03,11.09-.07,1.64-.05,2.29.37,2.24,2.14-.12,4.59-.11,9.19,0,13.78.04,1.76-.6,2.19-2.25,2.15-3.69-.1-7.4.07-11.09-.07-1.9-.07-2.34.59-2.33,2.39.08,9.49-.06,18.98.1,28.47.04,2.47-.77,3-3.03,2.91-4.29-.17-8.59-.12-12.89-.01-1.74.04-2.19-.57-2.18-2.24.04-26.47.04-52.95,0-79.42,0-1.75.36-2.45,2.3-2.44,13.19.1,26.37.08,39.56.1.01,5.95.02,11.9.03,17.86Z"/>
      <path class="cls-4" d="M541.79,554.87c0-12.98.07-25.97-.06-38.95-.03-2.56.73-3.22,3.18-3.09,3.99.2,8,.21,11.98,0,2.41-.13,2.97.67,2.96,3-.09,21.47-.05,42.95-.05,64.42,0,4.69-.12,9.39.05,14.08.08,2.17-.65,2.69-2.7,2.62-4.29-.15-8.59-.14-12.88,0-1.98.07-2.52-.56-2.51-2.52.08-13.18.04-26.37.04-39.55Z"/>
      <path class="cls-3" d="M470.95,596.9c-5.99,0-11.75-.03-17.52.02-1.59.01-1.63-1.2-1.95-2.2-2.94-9.12-5.87-18.24-8.82-27.36-.62-1.92-6.13-3.34-7.53-1.92-.7.71-.36,1.71-.36,2.58-.02,8.7-.09,17.4.04,26.1.03,2.26-.59,2.93-2.85,2.83-4.09-.19-8.21-.2-12.3,0-2.39.12-2.98-.63-2.97-2.98.09-22.7.05-45.41.05-68.11,0-3.7.02-7.4,0-11.1,0-1.14.15-1.93,1.6-1.89,9.79.28,19.65-.89,29.36.56,10.93,1.64,18.43,8.03,21.54,18.73,3.08,10.58-.24,19.5-8.41,26.64-1.34,1.17-1.37,2.06-.87,3.57,3.53,10.81,6.97,21.66,10.44,32.49.18.56.31,1.12.56,2.02Z"/>
      <path class="cls-2" d="M593.37,554.74c0-7.09.09-14.18-.05-21.27-.04-2.17.68-2.62,2.71-2.63,9.84-.02,15.59,4.07,18.18,13.54,1.99,7.26,2.13,14.6-.35,21.81-3.01,8.78-9.2,12.92-18.41,12.68-1.79-.05-2.13-.67-2.11-2.27.07-7.29.03-14.58.03-21.87Z"/>
      <path class="cls-8" d="M434.76,539.38q0-8.99,8.6-8.47c5.12.31,9.01,3.89,8.95,8.25-.07,4.37-4.01,7.87-9.16,7.94-2.67.04-6.09,1.13-7.8-.44-1.76-1.61-.3-5.09-.58-7.27Z"/>
    </g>
  </g>
</svg>