<?xml version="1.0" encoding="UTF-8"?>
<svg id="Layer_2" data-name="Layer 2" xmlns="http://www.w3.org/2000/svg" viewBox="0 0 412.47 410.53">
  <defs>
    <style>
      .cls-1 {
        fill: #3648ba;
      }

      .cls-1, .cls-2, .cls-3, .cls-4, .cls-5, .cls-6, .cls-7, .cls-8 {
        stroke-width: 0px;
      }

      .cls-2 {
        fill: #6d90ca;
      }

      .cls-3 {
        fill: #c5b2b5;
      }

      .cls-4 {
        fill: #dfc9cc;
      }

      .cls-5 {
        fill: #f5b84d;
      }

      .cls-6 {
        fill: #fff;
      }

      .cls-7 {
        fill: #d7a048;
      }

      .cls-8 {
        fill: #f6dcde;
      }
    </style>
  </defs>
  <g id="Layer_1-2" data-name="Layer 1">
    <g>
      <path class="cls-8" d="M104.09,299.95c5.14-13.98,20.89-17.35,31.9-7.33,10.31,9.38,21.23,18.09,31.87,27.11,2.72,2.3,5.44,4.6,8.11,6.95,1.49,1.32,2.28,2.03,2.87-.85,1.52-7.4,6.78-11.38,14.36-11.38,14.31,0,28.63-.07,42.94.05,2.83.02,4.71-.63,6.35-3.15,4.61-7.11,11.49-10.5,19.87-10.58,9.11-.09,18.19-.48,27.12,2.52,13.96,4.69,24.5,13.05,30.93,26.38.74,1.53,1.66,2.98,2.5,4.46,1.3.97,1.45,2.43,1.46,3.84.1,11.8.21,23.59-.05,35.39-.02.71-.21,1.4-.46,2.07-1.77,2.71-4.56,1.98-7.01,1.82-16.54-1.09-33.11-1.54-49.64-2.55-19.53-1.19-39.09-1.76-58.62-3.12-6.97-.48-13.98-.97-20.97-.98-16.21-.03-29.15-6.37-39.81-18.51-11.4-12.98-23.12-25.68-34.69-38.51-3.65-4.05-8.3-7.58-9.03-13.62Z"/>
      <path class="cls-8" d="M214.65,55.53c6.15.34,12.12-1.2,18.18-1.78,7.46-.7,12.91,5.43,14.34,9.96,1.9,5.98-.86,12.2-6.9,16-.68.43-1.69.5-1.87,1.54,14.21,8.97,10.46,21.68-.54,27.41,8.91,4.88,12.09,11.81,7.93,21.23-1.88,4.8-5.79,6.78-10.57,7.3-3.16.34-6.36.18-9.54-.29,6.28,1.02,10.38,8.59,8.39,15.62-2.04,2.06-4.79,2.48-7.42,3.02-32,6.56-60.21-1.07-83.72-23.68-19.36-18.62-27.73-42.04-27.16-68.74.06-2.85.75-5.65,1.12-8.47,15.27-7.25,30.74-14.05,46.33-20.58,2.1.82,2.18,2.85,2.63,4.57,1.65,6.32,3.3,12.65,4.74,19.02.74,3.28,2.26,4.36,5.7,3.82,12.78-2,25.57-3.96,38.34-5.98Z"/>
      <path class="cls-1" d="M48.11,53.72q.2-6.76,7.08-6.76c14.81,0,29.63.06,44.44-.06,2.7-.02,3.8.57,3.6,3.47-.23,3.39.03,6.81.08,10.22,1.47,1.68,1.23,3.74,1.23,5.71.04,23.68.04,47.36,0,71.04,0,1.97.23,4.04-1.23,5.71-.05,3.55-.2,7.1-.11,10.65.05,2.03-.27,3.05-2.72,3.03-16.52-.1-33.04-.1-49.57,0-2.38.01-2.95-.88-2.75-2.98.12-1.26-.03-2.55-.06-3.83-1.36-1.7-1.31-3.73-1.31-5.72-.02-28.26-.02-56.52,0-84.78,0-2-.05-4.03,1.31-5.72Z"/>
      <path class="cls-1" d="M322.92,376.15c0-14.01-.01-28.01-.02-42.02.05-9.82.25-19.64.08-29.46-.05-3.14.69-4.06,3.96-4.02,15.26.19,30.53.22,45.79,0,4.03-.06,6.28.57,5.33,5.15-.11.54.03,1.13.06,1.7,1.36,1.7,1.31,3.73,1.31,5.72.02,28.26.02,56.52,0,84.78,0,2,.05,4.03-1.31,5.72q-.2,6.76-7.09,6.76c-14.83,0-29.66-.07-44.48.06-2.8.03-3.64-.74-3.55-3.54.18-5.68-.02-11.38-.07-17.07-1.84-4.59-1.85-9.18,0-13.78Z"/>
      <path class="cls-2" d="M48.11,53.72c0,32.07,0,64.15,0,96.22-14.59-.03-29.18-.16-43.77-.03-3.25.03-4.36-.68-4.34-4.18.15-29.27.15-58.53,0-87.8-.02-3.51,1.09-4.21,4.34-4.18,14.59.13,29.18,0,43.77-.03Z"/>
      <path class="cls-5" d="M233.49,152.39c1.38-7.5-2.46-12.25-9.63-16.39,8.84.43,16.62,1.02,21.94-6.1,18.57,17.81,25.23,39.51,21.12,64.69-.04.25-.31.46-.47.69-3.79,9.79-10.79,17.02-18.96,23.17-12.84,9.64-27.35,14.66-43.47,14.8-1.69.01-3.46.2-4.93-1-1.64-4.57-.86-9.27-.58-13.91.14-2.3,2.33-3.04,3.98-4.12,8.88-5.8,11.99-16.09,7.26-24.93-3.37-6.29-8.71-10.05-15.95-10.8-2.15-.22-4.26-.44-6.06-1.79-4.72-3.55-4-9.83,1.6-13.85,7.36-1.13,14.78-.27,22.16-.52,2.56-.09,5.13-.01,7.69-.03,5.11-.04,9.06-2.14,11.72-6.54.74-1.22,1.51-2.41,2.58-3.38Z"/>
      <path class="cls-4" d="M233.49,152.39c-2.44,7.91-6.78,11.13-15,11.17-9.84.05-19.69.1-29.53.14-5.1,2.18-10.43.85-15.66,1.09-7.71-.01-15.43-.12-23.14.03-4.13.08-7.89-.74-11.49-2.74-4.86-2.71-10.09-4.72-14.81-7.7-.35-.36-.66-.74-.95-1.15-6.21-4.01-13.1-6.69-19.59-10.16,0-27.49,0-54.98,0-82.47,4.53-1.98,9.06-3.96,13.59-5.93,1.23.97,1,2.37.78,3.57-2.18,11.94-.4,23.64,3.17,34.92,9.9,31.3,31.07,51.56,62.58,60.55,16.64,4.75,33.51,4.15,50.06-1.32Z"/>
      <path class="cls-2" d="M378.12,403.71c0-32.07,0-64.15,0-96.22,10.15.03,20.31.17,30.46.04,2.92-.04,3.9.67,3.89,3.75-.12,29.55-.12,59.09,0,88.64.01,3.09-.97,3.79-3.89,3.75-10.15-.14-20.3,0-30.46.04Z"/>
      <path class="cls-7" d="M122.91,153.23c.3.07.59.13.89.2,1.53,2.01,1.06,4.37,1.1,6.61.49,26.93,11.83,47.69,35.1,61.71,8.11,4.89,17.04,7.25,26.27,8.76,2.9.52,5.83.3,8.74.38,1.53.04,3.07.08,4.31,1.2,21.5.84,39.96-6.27,55.29-21.29,4.67-4.58,8.2-10.12,11.85-15.52-3.22,18.37-12.9,32.72-27.71,43.72-12.44,9.24-26.59,13.3-42.07,13.79-18.26.59-35.21-2.78-50.31-13.64-26.99-19.41-37.04-55.99-23.46-85.93Z"/>
      <path class="cls-4" d="M322.92,376.15c0,4.59,0,9.18,0,13.78-19.22-.89-38.44-1.61-57.64-2.73-11.24-.66-22.48-1.13-33.71-1.74-16.5-.89-33.02-1.4-49.5-2.58-13.35-.96-24.35-7.14-32.99-17.58-5.53-6.69-11.61-12.93-17.43-19.38-8.02-8.88-16.12-17.69-24.04-26.66-4.98-5.65-5.31-12.33-3.53-19.3,2.05,4.46,5.46,7.94,8.63,11.51,12.56,14.16,25.14,28.31,38.01,42.19,9.19,9.91,20.69,15.2,34.41,15.7,19.5.71,39,1.46,58.48,2.64,11.52.7,23.05,1.01,34.55,1.76,14.91.97,29.85,1.44,44.76,2.39Z"/>
      <path class="cls-7" d="M214.65,55.53c-3.75,3.18-8.56,2.42-12.89,3.24-8.94,1.69-18,2.74-26.98,4.26-3.05.52-4.21-.29-4.92-3.38-1.97-8.57-4.39-17.04-6.63-25.55-1.59-6.89-3.17-13.79-4.9-21.3,5.86,2.75,11.35,5.05,16.56,7.88,3.18,1.73,4.58,1.02,6.15-2,2.76-5.31,5.96-10.39,9-15.56,2.44-4.15,2.46-4.15,5.25.02,3.1,4.62,6.28,9.19,9.22,13.91,1.31,2.1,2.33,2.2,4.31.82,5.7-3.97,11.55-7.72,17.86-11.91-4.12,16.97-8.08,33.27-12.04,49.56Z"/>
      <path class="cls-3" d="M214.21,348.74c-7.14,0-14.29.02-21.43,0-9.67-.04-17.88-6.53-20.32-15.83-.51-1.92-.56-2.97,1.81-3.1,2.26-.12,4.51-.5,6.77-.77,2.59-.31,4.52.13,5.82,2.94,1.27,2.73,4.13,3.09,7.01,3.08,14.14-.06,28.29.07,42.43-.09,3.3-.04,4.45.79,4.39,4.27-.15,9.52.02,9.52-9.34,9.52-5.71,0-11.43,0-17.14,0Z"/>
      <path class="cls-3" d="M223.37,88.12h-.43c-10.92,0-10.86,0-9.87-11.09.19-2.07.99-2.67,2.91-2.65,5,.07,10,.07,14.99,0,2.01-.03,2.93.76,2.75,2.76-.01.14,0,.29,0,.43q.55,10.54-10.36,10.54Z"/>
      <path class="cls-3" d="M223.33,101.84c.14,0,.29,0,.43,0,10.88,0,10.83,0,10.01,10.94-.15,1.96-.72,2.82-2.76,2.79-5.14-.08-10.38.61-15.39-.2-5.22-.85-1.71-5.56-2.33-8.44-.35-1.63-1.72-4.98,2.34-5.07,2.57-.06,5.14-.01,7.71-.02Z"/>
      <path class="cls-3" d="M219.99,136.15c0,1.28-.1,2.57.02,3.84.26,2.61-1.15,3.09-3.37,3.03-2.03-.05-3.74-.07-3.54-2.86.14-1.98,0-3.98.03-5.98.03-2.46-.75-5.1,3.56-5.04,4.09.06,3.23,2.57,3.3,4.86.02.71,0,1.42,0,2.13Z"/>
      <path class="cls-5" d="M199.45,231.45c1.12,1.12-9.51.52-13.9-.12-14.32-1.56-26.83-7.31-37.6-16.71-12.21-10.66-19.67-24.12-22.92-39.97-1.44-7.03-1.26-14.12-1.23-21.22,14.25,9.71,30.21,11.6,46.89,10.15.7-.06,17.57.08,18.28.13-1.94,8.18,12.43,13.91,18.91,19.88,3.81,3.51-.02,7.29,5.21,7.38,4,.07-2.72,13.72-1.95,17.64.67,3.41-3.97,4.16-7.25,5.17-3.4,1.04,3.94,11.04,2.89,7.19-.3-1.09-8.11,12.55-11.76,9.94-1.16-.83-16.95-32.02-17.3-33.05"/>
    </g>
    <path class="cls-6" d="M208.15,175.41c.68.38.85,1,.83,1.73-.02,1.03,0,2.05,0,3.08,0,1.19-.44,1.62-1.63,1.62-2.64,0-5.28,0-7.92,0-.19,0-.39,0-.57,0-.06.18.06.26.12.35,1,1.41,1.7,2.96,2.06,4.66.09.42.26.55.71.55,1.89-.03,3.79-.02,5.68-.01,1.2,0,1.6.39,1.6,1.58,0,1.12,0,2.23,0,3.35,0,1.09-.42,1.49-1.52,1.5-1.88,0-3.75.01-5.63,0-.41,0-.59.06-.69.53-1.14,5.74-4.66,9.42-10.03,11.48-1.75.67-3.57,1.04-5.49,1.3.89.98,1.73,1.9,2.57,2.83,4.57,5.08,8.94,10.33,13.29,15.6.58.71,1.16,1.43,1.76,2.13.36.42.53.87.28,1.41-.26.55-.68.75-1.28.74-2.34-.01-4.68-.03-7.01,0-.71.01-1.19-.24-1.63-.77-3-3.56-6.01-7.11-9.03-10.65-3.13-3.66-6.34-7.25-9.63-10.76-.47-.5-.69-1.02-.67-1.71.03-1.36,0-2.73.01-4.09,0-1.11.47-1.56,1.58-1.58,2.12-.03,4.25.09,6.37-.1,2.54-.24,4.99-.79,7.08-2.36,1.22-.92,2.07-2.1,2.56-3.55.13-.4.05-.46-.34-.46-5.17.01-10.34,0-15.51,0-.21,0-.43,0-.64-.02-.6-.06-1.03-.45-1.06-1.05-.08-1.41-.08-2.83,0-4.24.03-.65.44-1.01,1.09-1.08.21-.02.42-.03.64-.03,4.94,0,9.88,0,14.82,0,.17,0,.34,0,.59,0-.64-1.23-1.52-2.1-2.65-2.74-2.08-1.16-4.35-1.51-6.68-1.57-2.07-.05-4.14-.02-6.22-.02-1.14,0-1.62-.47-1.62-1.59,0-1.51.01-3.01,0-4.52-.01-.71.23-1.23.89-1.53h32.94Z"/>
  </g>
</svg>